<svg xmlns="http://www.w3.org/2000/svg" xmlns:xlink="http://www.w3.org/1999/xlink" contentStyleType="text/css" height="1502px" preserveAspectRatio="none" style="width:633px;height:1502px;background:#FFFFFF;" version="1.1" viewBox="0 0 633 1502" width="633px" zoomAndPan="magnify"><defs/><g><!--cluster actors--><g id="cluster_actors"><rect fill="none" height="246" rx="2.5" ry="2.5" style="stroke:#000000;stroke-width:1.0;" width="167" x="7" y="639"/><text fill="#000000" font-family="sans-serif" font-size="14" font-weight="bold" lengthAdjust="spacing" textLength="99.2876" x="40.8562" y="655.9659">System Actors</text></g><!--cluster usecases--><g id="cluster_usecases"><rect fill="none" height="742" rx="2.5" ry="2.5" style="stroke:#000000;stroke-width:1.0;" width="425" x="202" y="7"/><text fill="#000000" font-family="sans-serif" font-size="14" font-weight="bold" lengthAdjust="spacing" textLength="69.0197" x="379.9901" y="23.9659">Use Cases</text></g><!--cluster usecases2--><g id="cluster_usecases2"><rect fill="none" height="723" rx="2.5" ry="2.5" style="stroke:#000000;stroke-width:1.0;" width="345" x="242" y="773"/><text fill="#000000" font-family="sans-serif" font-size="14" font-weight="bold" lengthAdjust="spacing" textLength="69.0197" x="379.9901" y="789.9659">Use Cases</text></g><!--entity PM--><g id="elem_PM"><ellipse cx="90.7387" cy="685" fill="#F1F1F1" rx="8" ry="8" style="stroke:#181818;stroke-width:0.5;"/><path d="M90.7387,693 L90.7387,720 M77.7387,701 L103.7387,701 M90.7387,720 L77.7387,735 M90.7387,720 L103.7387,735 " fill="none" style="stroke:#181818;stroke-width:0.5;"/><text fill="#000000" font-family="sans-serif" font-size="14" lengthAdjust="spacing" textLength="135.4775" x="23" y="751.4659">Production Manager</text></g><!--entity PF--><g id="elem_PF"><ellipse cx="90.4409" cy="799" fill="#F1F1F1" rx="8" ry="8" style="stroke:#181818;stroke-width:0.5;"/><path d="M90.4409,807 L90.4409,834 M77.4409,815 L103.4409,815 M90.4409,834 L77.4409,849 M90.4409,834 L103.4409,849 " fill="none" style="stroke:#181818;stroke-width:0.5;"/><text fill="#000000" font-family="sans-serif" font-size="14" lengthAdjust="spacing" textLength="70.8817" x="55" y="865.4659">Plant Floor</text></g><g id="elem_UCEI1"><ellipse cx="414.5491" cy="63.9098" fill="#F1F1F1" rx="82.5491" ry="18.9098" style="stroke:#181818;stroke-width:0.5;"/><text fill="#000000" font-family="sans-serif" font-size="14" lengthAdjust="spacing" textLength="110.5016" x="356.2983" y="68.6428">UCEI1 - Read File</text></g><g id="elem_UCEI2"><ellipse cx="414.4138" cy="146.1828" fill="#F1F1F1" rx="128.9138" ry="28.1828" style="stroke:#181818;stroke-width:0.5;"/><text fill="#000000" font-family="sans-serif" font-size="14" lengthAdjust="spacing" textLength="221.0592" x="303.2591" y="149.9204">UCEI2 - Simulator without priority</text></g><g id="elem_UCEI3"><ellipse cx="414.2602" cy="234.952" fill="#F1F1F1" rx="117.7602" ry="25.952" style="stroke:#181818;stroke-width:0.5;"/><text fill="#000000" font-family="sans-serif" font-size="14" lengthAdjust="spacing" textLength="196.3352" x="313.2519" y="239.6255">UCEI3 - Total Production Time</text></g><g id="elem_UCEI4"><ellipse cx="414.5224" cy="326.1045" fill="#F1F1F1" rx="136.0224" ry="29.6045" style="stroke:#181818;stroke-width:0.5;"/><text fill="#000000" font-family="sans-serif" font-size="14" lengthAdjust="spacing" textLength="236.3751" x="296.3348" y="329.5365">UCEI4 - Execution time by operation</text></g><g id="elem_UCEI5"><ellipse cx="414.6707" cy="432.2341" fill="#F1F1F1" rx="196.6707" ry="41.7341" style="stroke:#181818;stroke-width:0.5;"/><text fill="#000000" font-family="sans-serif" font-size="14" lengthAdjust="spacing" textLength="363.4246" x="232.9583" y="435.6661">UCEI5 - List of workstations with total time of operation</text></g><g id="elem_UCEI6"><ellipse cx="414.4217" cy="535.8843" fill="#F1F1F1" rx="122.4217" ry="26.8843" style="stroke:#181818;stroke-width:0.5;"/><text fill="#000000" font-family="sans-serif" font-size="14" lengthAdjust="spacing" textLength="206.7932" x="309.1724" y="540.1666">UCEI6 - Average execution time</text></g><g id="elem_UCEI7"><ellipse cx="414.6755" cy="621.8351" fill="#F1F1F1" rx="104.6755" ry="23.3351" style="stroke:#181818;stroke-width:0.5;"/><text fill="#000000" font-family="sans-serif" font-size="14" lengthAdjust="spacing" textLength="166.0813" x="328.6348" y="626.5681">UCEI7 - Flow dependency</text></g><g id="elem_UCEI8"><ellipse cx="414.3877" cy="707.1775" fill="#F1F1F1" rx="118.8877" ry="26.1775" style="stroke:#181818;stroke-width:0.5;"/><text fill="#000000" font-family="sans-serif" font-size="14" lengthAdjust="spacing" textLength="198.8832" x="312.3535" y="711.7564">UCEI8 - Simulator with priority</text></g><g id="elem_UCBD1"><ellipse cx="414.5838" cy="830.2168" fill="#F1F1F1" rx="84.0838" ry="19.2168" style="stroke:#181818;stroke-width:0.5;"/><text fill="#000000" font-family="sans-serif" font-size="14" lengthAdjust="spacing" textLength="114.6595" x="354.254" y="834.9497">UCBD1 - Glossary</text></g><g id="elem_UCBD2"><ellipse cx="414.3965" cy="907.8793" fill="#F1F1F1" rx="107.3965" ry="23.8793" style="stroke:#181818;stroke-width:0.5;"/><text fill="#000000" font-family="sans-serif" font-size="14" lengthAdjust="spacing" textLength="168.8393" x="325.1568" y="912.6123">UCBD2 - Relational model</text></g><g id="elem_UCBD3"><ellipse cx="414.6817" cy="1000.0363" fill="#F1F1F1" rx="150.6817" ry="32.5363" style="stroke:#181818;stroke-width:0.5;"/><text fill="#000000" font-family="sans-serif" font-size="14" lengthAdjust="spacing" textLength="267.5529" x="280.9052" y="1003.4683">UCBD3 - Relational model (physical level)</text></g><g id="elem_UCBD4"><ellipse cx="414.5647" cy="1101.2129" fill="#F1F1F1" rx="156.5647" ry="33.7129" style="stroke:#181818;stroke-width:0.5;"/><text fill="#000000" font-family="sans-serif" font-size="14" lengthAdjust="spacing" textLength="279.9569" x="274.5862" y="1104.6449">UCBD4 - Import data from a legacy system</text></g><g id="elem_UCBD5"><ellipse cx="414.2881" cy="1186.805" fill="#F1F1F1" rx="45.2881" ry="16.805" style="stroke:#181818;stroke-width:0.5;"/><text fill="#000000" font-family="sans-serif" font-size="14" lengthAdjust="spacing" textLength="46.4098" x="388.0832" y="1191.5379">UCBD5</text></g><g id="elem_UCBD6"><ellipse cx="414.2881" cy="1255.805" fill="#F1F1F1" rx="45.2881" ry="16.805" style="stroke:#181818;stroke-width:0.5;"/><text fill="#000000" font-family="sans-serif" font-size="14" lengthAdjust="spacing" textLength="46.4098" x="388.0832" y="1260.5379">UCBD6</text></g><g id="elem_UCBD7"><ellipse cx="414.2881" cy="1324.805" fill="#F1F1F1" rx="45.2881" ry="16.805" style="stroke:#181818;stroke-width:0.5;"/><text fill="#000000" font-family="sans-serif" font-size="14" lengthAdjust="spacing" textLength="46.4098" x="388.0832" y="1329.5379">UCBD7</text></g><g id="elem_UCBD8"><ellipse cx="414.2881" cy="1393.805" fill="#F1F1F1" rx="45.2881" ry="16.805" style="stroke:#181818;stroke-width:0.5;"/><text fill="#000000" font-family="sans-serif" font-size="14" lengthAdjust="spacing" textLength="46.4098" x="388.0832" y="1398.5379">UCBD8</text></g><g id="elem_UCBD9"><ellipse cx="414.2881" cy="1462.805" fill="#F1F1F1" rx="45.2881" ry="16.805" style="stroke:#181818;stroke-width:0.5;"/><text fill="#000000" font-family="sans-serif" font-size="14" lengthAdjust="spacing" textLength="46.4098" x="388.0832" y="1467.5379">UCBD9</text></g><!--link PM to UCEI1--><g id="link_PM_UCEI1"><path d="M92.3,676.17 C95.62,552.96 112.36,181.45 194,100 C231.52,62.57 285.9012,54.7986 333.8512,55.7686 " fill="none" id="PM-to-UCEI1" style="stroke:#181818;stroke-width:1.0;"/><polygon fill="#181818" points="339.85,55.89,330.9327,51.7088,334.851,55.7889,330.7709,59.7072,339.85,55.89" style="stroke:#181818;stroke-width:1.0;"/></g><!--link PM to UCEI2--><g id="link_PM_UCEI2"><path d="M93.69,676.38 C100.6,566.24 125.7,259.94 194,191 C218.16,166.61 245.8577,154.8215 279.4977,148.3615 " fill="none" id="PM-to-UCEI2" style="stroke:#181818;stroke-width:1.0;"/><polygon fill="#181818" points="285.39,147.23,275.7971,144.9991,280.4797,148.1729,277.3058,152.8555,285.39,147.23" style="stroke:#181818;stroke-width:1.0;"/></g><!--link PM to UCEI3--><g id="link_PM_UCEI3"><path d="M95.36,676.43 C105.63,579.56 136.82,334.35 194,279 C221.16,252.71 253.4278,240.9495 290.3578,235.3495 " fill="none" id="PM-to-UCEI3" style="stroke:#181818;stroke-width:1.0;"/><polygon fill="#181818" points="296.29,234.45,286.792,231.8445,291.3465,235.1996,287.9914,239.7541,296.29,234.45" style="stroke:#181818;stroke-width:1.0;"/></g><!--link PM to UCEI4--><g id="link_PM_UCEI4"><path d="M91.1,676.47 C92.66,604.83 106.79,453.54 194,373 C217.69,351.12 243.1462,339.7863 274.6762,332.6963 " fill="none" id="PM-to-UCEI4" style="stroke:#181818;stroke-width:1.0;"/><polygon fill="#181818" points="280.53,331.38,270.8717,329.4519,275.6518,332.4769,272.6268,337.257,280.53,331.38" style="stroke:#181818;stroke-width:1.0;"/></g><!--link PM to UCEI5--><g id="link_PM_UCEI5"><path d="M98.77,676.4 C110.14,625.88 137.02,539.29 194,491 C211.76,475.95 227.3896,466.8267 249.5496,458.4267 " fill="none" id="PM-to-UCEI5" style="stroke:#181818;stroke-width:1.0;"/><polygon fill="#181818" points="255.16,456.3,245.3265,455.7498,250.4846,458.0723,248.1621,463.2304,255.16,456.3" style="stroke:#181818;stroke-width:1.0;"/></g><!--link PM to UCEI6--><g id="link_PM_UCEI6"><path d="M111.33,676.27 C128.83,645.42 157.27,604.12 194,581 C224.7,561.68 256.2582,551.5408 291.4782,545.0908 " fill="none" id="PM-to-UCEI6" style="stroke:#181818;stroke-width:1.0;"/><polygon fill="#181818" points="297.38,544.01,287.8067,541.6967,292.4618,544.9107,289.2478,549.5658,297.38,544.01" style="stroke:#181818;stroke-width:1.0;"/></g><!--link PM to UCEI7--><g id="link_PM_UCEI7"><path d="M158.08,678.04 C169.79,672.39 182.06,667.1 194,663 C234.97,648.92 276.0742,640.2609 316.0642,633.9109 " fill="none" id="PM-to-UCEI7" style="stroke:#181818;stroke-width:1.0;"/><polygon fill="#181818" points="321.99,632.97,312.4741,630.4309,317.0519,633.7541,313.7287,638.3319,321.99,632.97" style="stroke:#181818;stroke-width:1.0;"/></g><!--link PM to UCEI8--><g id="link_PM_UCEI8"><path d="M158.22,714.14 C198.1,713.02 243.9023,711.7376 290.4123,710.4376 " fill="none" id="PM-to-UCEI8" style="stroke:#181818;stroke-width:1.0;"/><polygon fill="#181818" points="296.41,710.27,287.3018,706.523,291.412,710.4097,287.5253,714.5199,296.41,710.27" style="stroke:#181818;stroke-width:1.0;"/></g><!--link PF to UCBD1--><g id="link_PF_UCBD1"><path d="M126.27,830 C174.73,830 258.08,830 324.31,830 " fill="none" id="PF-to-UCBD1" style="stroke:#181818;stroke-width:1.0;"/><polygon fill="#181818" points="330.31,830,321.31,826,325.31,830,321.31,834,330.31,830" style="stroke:#181818;stroke-width:1.0;"/></g><!--link PF to UCBD2--><g id="link_PF_UCBD2"><path d="M126.2,843.63 C145.87,850.99 171.06,859.81 194,866 C236.99,877.59 279.6304,886.1923 320.1204,893.3023 " fill="none" id="PF-to-UCBD2" style="stroke:#181818;stroke-width:1.0;"/><polygon fill="#181818" points="326.03,894.34,317.8574,888.8437,321.1053,893.4752,316.4738,896.7231,326.03,894.34" style="stroke:#181818;stroke-width:1.0;"/></g><!--link PF to UCBD3--><g id="link_PF_UCBD3"><path d="M115.84,869.56 C134.14,895.99 161.57,929.38 194,949 C220.95,965.3 246.8224,974.962 277.6324,982.512 " fill="none" id="PF-to-UCBD3" style="stroke:#181818;stroke-width:1.0;"/><polygon fill="#181818" points="283.46,983.94,275.6707,977.9129,278.6037,982.75,273.7666,985.683,283.46,983.94" style="stroke:#181818;stroke-width:1.0;"/></g><!--link PF to UCBD4--><g id="link_PF_UCBD4"><path d="M98.98,869.9 C110.48,919.75 137.39,1004.08 194,1050 C216.1,1067.93 237.5939,1078.1662 265.3039,1085.9562 " fill="none" id="PF-to-UCBD4" style="stroke:#181818;stroke-width:1.0;"/><polygon fill="#181818" points="271.08,1087.58,263.4984,1081.2936,266.2666,1086.2268,261.3333,1088.995,271.08,1087.58" style="stroke:#181818;stroke-width:1.0;"/></g><!--link PF to UCBD5--><g id="link_PF_UCBD5"><path d="M91.61,869.76 C94.13,938.64 109.94,1079.69 194,1152 C243.15,1194.28 316.3375,1196.5977 364.9575,1192.8777 " fill="none" id="PF-to-UCBD5" style="stroke:#181818;stroke-width:1.0;"/><polygon fill="#181818" points="370.94,1192.42,361.6611,1189.1183,365.9546,1192.8014,362.2714,1197.0949,370.94,1192.42" style="stroke:#181818;stroke-width:1.0;"/></g><!--link PF to UCBD6--><g id="link_PF_UCBD6"><path d="M96.42,869.83 C108.36,959.61 141.74,1173.64 194,1221 C242.32,1264.79 316.5223,1266.5369 365.4423,1262.3069 " fill="none" id="PF-to-UCBD6" style="stroke:#181818;stroke-width:1.0;"/><polygon fill="#181818" points="371.42,1261.79,362.1089,1258.5802,366.4386,1262.2207,362.798,1266.5504,371.42,1261.79" style="stroke:#181818;stroke-width:1.0;"/></g><!--link PF to UCBD7--><g id="link_PF_UCBD7"><path d="M94.71,869.55 C103.72,970.22 132.69,1232.33 194,1290 C241.64,1334.82 316.4458,1336.1855 365.5958,1331.6155 " fill="none" id="PF-to-UCBD7" style="stroke:#181818;stroke-width:1.0;"/><polygon fill="#181818" points="371.57,1331.06,362.2383,1327.9104,366.5915,1331.5229,362.979,1335.8761,371.57,1331.06" style="stroke:#181818;stroke-width:1.0;"/></g><!--link PF to UCBD8--><g id="link_PF_UCBD8"><path d="M93.47,869.67 C99.82,980.71 123.65,1290.95 194,1359 C241.15,1404.61 316.5086,1405.6649 365.8186,1400.8349 " fill="none" id="PF-to-UCBD8" style="stroke:#181818;stroke-width:1.0;"/><polygon fill="#181818" points="371.79,1400.25,362.4429,1397.1464,366.8138,1400.7374,363.2228,1405.1083,371.79,1400.25" style="stroke:#181818;stroke-width:1.0;"/></g><!--link PF to UCBD9--><g id="link_PF_UCBD9"><path d="M92.49,869.54 C96.37,990.07 114.5,1349.42 194,1428 C240.79,1474.25 316.6511,1475.0297 366.0911,1469.9797 " fill="none" id="PF-to-UCBD9" style="stroke:#181818;stroke-width:1.0;"/><polygon fill="#181818" points="372.06,1469.37,362.7001,1466.3052,367.0859,1469.8781,363.513,1474.2638,372.06,1469.37" style="stroke:#181818;stroke-width:1.0;"/></g><!--SRC=[XLJDZfim4Bxp5ADSqXvoA0H2BfLsiqcrKYD5pUu3U652h1YCRBDPLFNTEpY9mzgLoW7XxsTcx1aprIVUj4on6chPoEAeP8rWL8VHdMbPSM8Lxaql41GMXZMLm6XwL-WZA-MPDnKScD0OZSnE_pi2UXwbAb6jf90AtWG5Zlv4qTHmGw5VDSAAqUk9ishmhZzOtLAcIE31W96WU7KqKF8XA9TD5BdeCDdtsc0D3uMHIa-0QM3s4ow9xG8cEoNBpffXonhQbRBItVQJIB36m4P8UMKtGvNs6IMybNj9rcaiXiKbstL5ejNw-HlCu1Uo4ZPSe1LRD1J69DppkXDiAEFCpL5s1bh5fUAcTyuuT2RaV9662HXjy8NNztH9Q9gJQVs1HMVLXjJmreDiKR41STPvQ4t9-fDh0_80PwbEsbYBjaLJfuPAR43Ymu1f632ZW0_l9AmGy5DDpfM5hWMvg4rdAB75fiIck9_I8fJdmVc6XvjRssuBizdtKPz6GEm3YG_CVI3rWSm75ZwG3oFttscBWt5xV1h6xOUGMZDrsnQ1eIwsOobiQwXTjInHW3F4eI7vb-5BU-mrBsWjy1t5LnSW2GCC0_TSjrBH7MQ6mO7-Di38MB6Y1sqliFFFGt_go3GaCqTc8Rbmv28aSqVc8RbqvFBIeisrHRSp7G6n3oG-CFU1r0So7rZuGEu3I_jt-Wi0]--></g></svg>