<svg xmlns="http://www.w3.org/2000/svg" xmlns:xlink="http://www.w3.org/1999/xlink" contentStyleType="text/css" height="1689.6px" preserveAspectRatio="none" style="width:2099px;height:1689px;background:#FFFFFF;" version="1.1" viewBox="0 0 2099 1689" width="2099.2px" zoomAndPan="magnify"><defs/><g><!--class ApplicationSession--><g id="elem_ApplicationSession"><rect codeLine="11" fill="#F1F1F1" height="129.5625" id="ApplicationSession" rx="4" ry="4" style="stroke:#181818;stroke-width:0.8000000000000002;" width="255.6766" x="259.856" y="422.256"/><ellipse cx="283.856" cy="447.856" fill="#ADD1B2" rx="17.6" ry="17.6" style="stroke:#181818;stroke-width:1.6000000000000003;"/><path d="M288.613,456.8849 Q287.6833,457.363 286.6607,457.6021 Q285.638,457.8412 284.5091,457.8412 Q280.4982,457.8412 278.3865,455.1982 Q276.2748,452.5552 276.2748,447.5615 Q276.2748,442.5544 278.3865,439.9115 Q280.4982,437.2685 284.5091,437.2685 Q285.638,437.2685 286.674,437.5076 Q287.7099,437.7466 288.613,438.2248 L288.613,442.581 Q287.6037,441.6513 286.654,441.2197 Q285.7044,440.788 284.6951,440.788 Q282.5435,440.788 281.4478,442.4947 Q280.3521,444.2013 280.3521,447.5615 Q280.3521,450.9083 281.4478,452.615 Q282.5435,454.3216 284.6951,454.3216 Q285.7044,454.3216 286.654,453.89 Q287.6037,453.4583 288.613,452.5287 Z " fill="#000000"/><text fill="#000000" font-family="sans-serif" font-size="22.4" lengthAdjust="spacing" textLength="204.4766" x="306.256" y="456.3216">ApplicationSession</text><line style="stroke:#181818;stroke-width:0.8000000000000002;" x1="261.456" x2="513.9326" y1="473.456" y2="473.456"/><line style="stroke:#181818;stroke-width:0.8000000000000002;" x1="261.456" x2="513.9326" y1="486.256" y2="486.256"/><text fill="#000000" font-family="sans-serif" font-size="22.4" lengthAdjust="spacing" textLength="223.1578" x="269.456" y="514.3123">+static getInstance()</text><text fill="#000000" font-family="sans-serif" font-size="22.4" lengthAdjust="spacing" textLength="231.2078" x="269.456" y="540.6935">+getCurrentSession()</text></g><!--class UserSession--><g id="elem_UserSession"><rect codeLine="17" fill="#F1F1F1" height="103.1813" id="UserSession" rx="4" ry="4" style="stroke:#181818;stroke-width:0.8000000000000002;" width="193.3578" x="433.424" y="767.344"/><ellipse cx="462.8493" cy="792.944" fill="#ADD1B2" rx="17.6" ry="17.6" style="stroke:#181818;stroke-width:1.6000000000000003;"/><path d="M467.6063,801.9729 Q466.6767,802.451 465.654,802.6901 Q464.6313,802.9292 463.5024,802.9292 Q459.4915,802.9292 457.3798,800.2862 Q455.2681,797.6432 455.2681,792.6495 Q455.2681,787.6424 457.3798,784.9995 Q459.4915,782.3565 463.5024,782.3565 Q464.6313,782.3565 465.6673,782.5956 Q466.7032,782.8346 467.6063,783.3128 L467.6063,787.669 Q466.597,786.7393 465.6474,786.3077 Q464.6978,785.876 463.6884,785.876 Q461.5368,785.876 460.4411,787.5827 Q459.3454,789.2893 459.3454,792.6495 Q459.3454,795.9963 460.4411,797.703 Q461.5368,799.4096 463.6884,799.4096 Q464.6978,799.4096 465.6474,798.978 Q466.597,798.5463 467.6063,797.6167 Z " fill="#000000"/><text fill="#000000" font-family="sans-serif" font-size="22.4" lengthAdjust="spacing" textLength="130.1016" x="486.4549" y="801.4096">UserSession</text><line style="stroke:#181818;stroke-width:0.8000000000000002;" x1="435.024" x2="625.1818" y1="818.544" y2="818.544"/><line style="stroke:#181818;stroke-width:0.8000000000000002;" x1="435.024" x2="625.1818" y1="831.344" y2="831.344"/><text fill="#000000" font-family="sans-serif" font-size="22.4" lengthAdjust="spacing" textLength="174.1578" x="443.024" y="859.4003">+getUserEmail()</text></g><!--class ItemRepository--><g id="elem_ItemRepository"><rect codeLine="25" fill="#F1F1F1" height="103.1813" id="ItemRepository" rx="4" ry="4" style="stroke:#181818;stroke-width:0.8000000000000002;" width="214.825" x="1086.688" y="435.44"/><ellipse cx="1110.688" cy="461.04" fill="#ADD1B2" rx="17.6" ry="17.6" style="stroke:#181818;stroke-width:1.6000000000000003;"/><path d="M1115.445,470.0689 Q1114.5153,470.547 1113.4927,470.7861 Q1112.47,471.0252 1111.3411,471.0252 Q1107.3302,471.0252 1105.2185,468.3822 Q1103.1068,465.7392 1103.1068,460.7455 Q1103.1068,455.7384 1105.2185,453.0955 Q1107.3302,450.4525 1111.3411,450.4525 Q1112.47,450.4525 1113.506,450.6916 Q1114.5419,450.9306 1115.445,451.4088 L1115.445,455.765 Q1114.4357,454.8353 1113.486,454.4037 Q1112.5364,453.972 1111.5271,453.972 Q1109.3755,453.972 1108.2798,455.6787 Q1107.1841,457.3853 1107.1841,460.7455 Q1107.1841,464.0923 1108.2798,465.799 Q1109.3755,467.5056 1111.5271,467.5056 Q1112.5364,467.5056 1113.486,467.074 Q1114.4357,466.6423 1115.445,465.7127 Z " fill="#000000"/><text fill="#000000" font-family="sans-serif" font-size="22.4" lengthAdjust="spacing" textLength="163.625" x="1133.088" y="469.5056">ItemRepository</text><line style="stroke:#181818;stroke-width:0.8000000000000002;" x1="1088.288" x2="1299.913" y1="486.64" y2="486.64"/><line style="stroke:#181818;stroke-width:0.8000000000000002;" x1="1088.288" x2="1299.913" y1="499.44" y2="499.44"/><text fill="#000000" font-family="sans-serif" font-size="22.4" lengthAdjust="spacing" textLength="153.6391" x="1096.288" y="527.4963">+getItemList()</text></g><!--class MachineRepository--><g id="elem_MachineRepository"><rect codeLine="29" fill="#F1F1F1" height="103.1813" id="MachineRepository" rx="4" ry="4" style="stroke:#181818;stroke-width:0.8000000000000002;" width="256.4969" x="1374.656" y="435.44"/><ellipse cx="1398.656" cy="461.04" fill="#ADD1B2" rx="17.6" ry="17.6" style="stroke:#181818;stroke-width:1.6000000000000003;"/><path d="M1403.413,470.0689 Q1402.4833,470.547 1401.4607,470.7861 Q1400.438,471.0252 1399.3091,471.0252 Q1395.2982,471.0252 1393.1865,468.3822 Q1391.0748,465.7392 1391.0748,460.7455 Q1391.0748,455.7384 1393.1865,453.0955 Q1395.2982,450.4525 1399.3091,450.4525 Q1400.438,450.4525 1401.474,450.6916 Q1402.5099,450.9306 1403.413,451.4088 L1403.413,455.765 Q1402.4037,454.8353 1401.454,454.4037 Q1400.5044,453.972 1399.4951,453.972 Q1397.3435,453.972 1396.2478,455.6787 Q1395.1521,457.3853 1395.1521,460.7455 Q1395.1521,464.0923 1396.2478,465.799 Q1397.3435,467.5056 1399.4951,467.5056 Q1400.5044,467.5056 1401.454,467.074 Q1402.4037,466.6423 1403.413,465.7127 Z " fill="#000000"/><text fill="#000000" font-family="sans-serif" font-size="22.4" lengthAdjust="spacing" textLength="205.2969" x="1421.056" y="469.5056">MachineRepository</text><line style="stroke:#181818;stroke-width:0.8000000000000002;" x1="1376.256" x2="1629.5529" y1="486.64" y2="486.64"/><line style="stroke:#181818;stroke-width:0.8000000000000002;" x1="1376.256" x2="1629.5529" y1="499.44" y2="499.44"/><text fill="#000000" font-family="sans-serif" font-size="22.4" lengthAdjust="spacing" textLength="195.3109" x="1384.256" y="527.4963">+getMachineList()</text></g><!--class OperationRepository--><g id="elem_OperationRepository"><rect codeLine="33" fill="#F1F1F1" height="103.1813" id="OperationRepository" rx="4" ry="4" style="stroke:#181818;stroke-width:0.8000000000000002;" width="274.6313" x="1696.784" y="435.44"/><ellipse cx="1720.784" cy="461.04" fill="#ADD1B2" rx="17.6" ry="17.6" style="stroke:#181818;stroke-width:1.6000000000000003;"/><path d="M1725.541,470.0689 Q1724.6113,470.547 1723.5887,470.7861 Q1722.566,471.0252 1721.4371,471.0252 Q1717.4262,471.0252 1715.3145,468.3822 Q1713.2028,465.7392 1713.2028,460.7455 Q1713.2028,455.7384 1715.3145,453.0955 Q1717.4262,450.4525 1721.4371,450.4525 Q1722.566,450.4525 1723.602,450.6916 Q1724.6379,450.9306 1725.541,451.4088 L1725.541,455.765 Q1724.5317,454.8353 1723.582,454.4037 Q1722.6324,453.972 1721.6231,453.972 Q1719.4715,453.972 1718.3758,455.6787 Q1717.2801,457.3853 1717.2801,460.7455 Q1717.2801,464.0923 1718.3758,465.799 Q1719.4715,467.5056 1721.6231,467.5056 Q1722.6324,467.5056 1723.582,467.074 Q1724.5317,466.6423 1725.541,465.7127 Z " fill="#000000"/><text fill="#000000" font-family="sans-serif" font-size="22.4" lengthAdjust="spacing" textLength="223.4313" x="1743.184" y="469.5056">OperationRepository</text><line style="stroke:#181818;stroke-width:0.8000000000000002;" x1="1698.384" x2="1969.8153" y1="486.64" y2="486.64"/><line style="stroke:#181818;stroke-width:0.8000000000000002;" x1="1698.384" x2="1969.8153" y1="499.44" y2="499.44"/><text fill="#000000" font-family="sans-serif" font-size="22.4" lengthAdjust="spacing" textLength="186.6484" x="1706.384" y="527.4963">+getOperations()</text></g><!--class Repositories--><g id="elem_Repositories"><rect codeLine="37" fill="#F1F1F1" height="208.7063" id="Repositories" rx="4" ry="4" style="stroke:#181818;stroke-width:0.8000000000000002;" width="332.1109" x="1597.648" y="50.768"/><ellipse cx="1689.8675" cy="76.368" fill="#ADD1B2" rx="17.6" ry="17.6" style="stroke:#181818;stroke-width:1.6000000000000003;"/><path d="M1694.6246,85.3969 Q1693.6949,85.875 1692.6722,86.1141 Q1691.6496,86.3532 1690.5207,86.3532 Q1686.5097,86.3532 1684.398,83.7102 Q1682.2863,81.0672 1682.2863,76.0735 Q1682.2863,71.0664 1684.398,68.4235 Q1686.5097,65.7805 1690.5207,65.7805 Q1691.6496,65.7805 1692.6855,66.0196 Q1693.7214,66.2586 1694.6246,66.7368 L1694.6246,71.093 Q1693.6152,70.1633 1692.6656,69.7317 Q1691.716,69.3 1690.7066,69.3 Q1688.555,69.3 1687.4593,71.0067 Q1686.3636,72.7133 1686.3636,76.0735 Q1686.3636,79.4203 1687.4593,81.127 Q1688.555,82.8336 1690.7066,82.8336 Q1691.716,82.8336 1692.6656,82.402 Q1693.6152,81.9703 1694.6246,81.0407 Z " fill="#000000"/><text fill="#000000" font-family="sans-serif" font-size="22.4" lengthAdjust="spacing" textLength="134.0719" x="1722.6675" y="84.8336">Repositories</text><line style="stroke:#181818;stroke-width:0.8000000000000002;" x1="1599.248" x2="1928.1589" y1="101.968" y2="101.968"/><line style="stroke:#181818;stroke-width:0.8000000000000002;" x1="1599.248" x2="1928.1589" y1="114.768" y2="114.768"/><text fill="#000000" font-family="sans-serif" font-size="22.4" lengthAdjust="spacing" textLength="161.6016" x="1607.248" y="142.8243">-Repositories()</text><text fill="#000000" font-family="sans-serif" font-size="22.4" lengthAdjust="spacing" textLength="312.9109" x="1607.248" y="169.2055">+getInstance() : Repositories</text><text fill="#000000" font-family="sans-serif" font-size="22.4" lengthAdjust="spacing" textLength="230.825" x="1607.248" y="195.5868">+getItemRepository()</text><text fill="#000000" font-family="sans-serif" font-size="22.4" lengthAdjust="spacing" textLength="272.4969" x="1607.248" y="221.968">+getMachineRepository()</text><text fill="#000000" font-family="sans-serif" font-size="22.4" lengthAdjust="spacing" textLength="290.6313" x="1607.248" y="248.3493">+getOperationRepository()</text></g><!--class SimulatorController--><g id="elem_SimulatorController"><rect codeLine="45" fill="#F1F1F1" height="287.85" id="SimulatorController" rx="4" ry="4" style="stroke:#181818;stroke-width:0.8000000000000002;" width="890.175" x="518.608" y="11.2"/><ellipse cx="850.6158" cy="36.8" fill="#ADD1B2" rx="17.6" ry="17.6" style="stroke:#181818;stroke-width:1.6000000000000003;"/><path d="M855.3728,45.8289 Q854.4432,46.307 853.4205,46.5461 Q852.3978,46.7852 851.2689,46.7852 Q847.258,46.7852 845.1463,44.1422 Q843.0346,41.4992 843.0346,36.5055 Q843.0346,31.4984 845.1463,28.8555 Q847.258,26.2125 851.2689,26.2125 Q852.3978,26.2125 853.4338,26.4516 Q854.4697,26.6906 855.3728,27.1688 L855.3728,31.525 Q854.3635,30.5953 853.4139,30.1637 Q852.4643,29.732 851.4549,29.732 Q849.3033,29.732 848.2076,31.4387 Q847.1119,33.1453 847.1119,36.5055 Q847.1119,39.8523 848.2076,41.559 Q849.3033,43.2656 851.4549,43.2656 Q852.4643,43.2656 853.4139,42.834 Q854.3635,42.4023 855.3728,41.4727 Z " fill="#000000"/><text fill="#000000" font-family="sans-serif" font-size="22.4" lengthAdjust="spacing" textLength="212.5594" x="883.4158" y="45.2656">SimulatorController</text><line style="stroke:#181818;stroke-width:0.8000000000000002;" x1="520.208" x2="1407.183" y1="62.4" y2="62.4"/><line style="stroke:#181818;stroke-width:0.8000000000000002;" x1="520.208" x2="1407.183" y1="75.2" y2="75.2"/><text fill="#000000" font-family="sans-serif" font-size="22.4" lengthAdjust="spacing" textLength="244.9344" x="528.208" y="103.2563">+SimulatorController()</text><text fill="#000000" font-family="sans-serif" font-size="22.4" lengthAdjust="spacing" textLength="328.7922" x="528.208" y="129.6375">+getExecutionTimesMachine()</text><text fill="#000000" font-family="sans-serif" font-size="22.4" lengthAdjust="spacing" textLength="870.975" x="528.208" y="156.0188">+startSimulationWithOutPriority(Map&lt;Operation, Queue&lt;Machine&gt;&gt; machines,</text><text fill="#000000" font-family="sans-serif" font-size="22.4" lengthAdjust="spacing" textLength="747.1625" x="528.208" y="182.4">List&lt;Item&gt; items, List&lt;Operation&gt; operations, boolean priorityFlag)</text><text fill="#000000" font-family="sans-serif" font-size="22.4" lengthAdjust="spacing" textLength="209.4313" x="528.208" y="208.7813">-getMachinesMap()</text><text fill="#000000" font-family="sans-serif" font-size="22.4" lengthAdjust="spacing" textLength="182.9406" x="528.208" y="235.1625">-sumTotalTime()</text><text fill="#000000" font-family="sans-serif" font-size="22.4" lengthAdjust="spacing" textLength="355.2719" x="528.208" y="261.5438">-ascendingOrderMachineTimes()</text><text fill="#000000" font-family="sans-serif" font-size="22.4" lengthAdjust="spacing" textLength="341.1406" x="528.208" y="287.925">-printExecutionTimesMachine()</text></g><!--class Simulator--><g id="elem_Simulator"><rect codeLine="57" fill="#F1F1F1" height="287.85" id="Simulator" rx="4" ry="4" style="stroke:#181818;stroke-width:0.8000000000000002;" width="280.4531" x="730.672" y="675.008"/><ellipse cx="812.3478" cy="700.608" fill="#ADD1B2" rx="17.6" ry="17.6" style="stroke:#181818;stroke-width:1.6000000000000003;"/><path d="M817.1048,709.6369 Q816.1751,710.115 815.1525,710.3541 Q814.1298,710.5932 813.0009,710.5932 Q808.99,710.5932 806.8783,707.9502 Q804.7665,705.3072 804.7665,700.3135 Q804.7665,695.3064 806.8783,692.6635 Q808.99,690.0205 813.0009,690.0205 Q814.1298,690.0205 815.1658,690.2596 Q816.2017,690.4986 817.1048,690.9768 L817.1048,695.333 Q816.0954,694.4033 815.1458,693.9717 Q814.1962,693.54 813.1868,693.54 Q811.0353,693.54 809.9396,695.2467 Q808.8439,696.9533 808.8439,700.3135 Q808.8439,703.6603 809.9396,705.367 Q811.0353,707.0736 813.1868,707.0736 Q814.1962,707.0736 815.1458,706.642 Q816.0954,706.2103 817.1048,705.2807 Z " fill="#000000"/><text fill="#000000" font-family="sans-serif" font-size="22.4" lengthAdjust="spacing" textLength="103.5016" x="845.1478" y="709.0736">Simulator</text><line style="stroke:#181818;stroke-width:0.8000000000000002;" x1="732.272" x2="1009.5251" y1="726.208" y2="726.208"/><text fill="#000000" font-family="sans-serif" font-size="22.4" lengthAdjust="spacing" textLength="86.4609" x="740.272" y="754.2643">itemList</text><text fill="#000000" font-family="sans-serif" font-size="22.4" lengthAdjust="spacing" textLength="129.7297" x="740.272" y="780.6455">machineList</text><line style="stroke:#181818;stroke-width:0.8000000000000002;" x1="732.272" x2="1009.5251" y1="791.7705" y2="791.7705"/><text fill="#000000" font-family="sans-serif" font-size="22.4" lengthAdjust="spacing" textLength="261.2531" x="740.272" y="819.8268">addOperationToQueue()</text><text fill="#000000" font-family="sans-serif" font-size="22.4" lengthAdjust="spacing" textLength="162.4984" x="740.272" y="846.208">createQueues()</text><text fill="#000000" font-family="sans-serif" font-size="22.4" lengthAdjust="spacing" textLength="191.2094" x="740.272" y="872.5893">updateMachines()</text><text fill="#000000" font-family="sans-serif" font-size="22.4" lengthAdjust="spacing" textLength="136.7516" x="740.272" y="898.9705">printQueue()</text><text fill="#000000" font-family="sans-serif" font-size="22.4" lengthAdjust="spacing" textLength="222.9938" x="740.272" y="925.3518">printMachineStatus()</text><text fill="#000000" font-family="sans-serif" font-size="22.4" lengthAdjust="spacing" textLength="250.1625" x="740.272" y="951.733">assignItemToMachine()</text></g><!--class Item--><g id="elem_Item"><rect codeLine="69" fill="#F1F1F1" height="208.7063" id="Item" rx="4" ry="4" style="stroke:#181818;stroke-width:0.8000000000000002;" width="396.8719" x="390.864" y="1152.016"/><ellipse cx="558.3882" cy="1177.616" fill="#ADD1B2" rx="17.6" ry="17.6" style="stroke:#181818;stroke-width:1.6000000000000003;"/><path d="M563.1453,1186.6449 Q562.2156,1187.123 561.1929,1187.3621 Q560.1703,1187.6012 559.0413,1187.6012 Q555.0304,1187.6012 552.9187,1184.9582 Q550.807,1182.3152 550.807,1177.3215 Q550.807,1172.3144 552.9187,1169.6715 Q555.0304,1167.0285 559.0413,1167.0285 Q560.1703,1167.0285 561.2062,1167.2676 Q562.2421,1167.5066 563.1453,1167.9848 L563.1453,1172.341 Q562.1359,1171.4113 561.1863,1170.9797 Q560.2367,1170.548 559.2273,1170.548 Q557.0757,1170.548 555.98,1172.2547 Q554.8843,1173.9613 554.8843,1177.3215 Q554.8843,1180.6683 555.98,1182.375 Q557.0757,1184.0816 559.2273,1184.0816 Q560.2367,1184.0816 561.1863,1183.65 Q562.1359,1183.2183 563.1453,1182.2887 Z " fill="#000000"/><text fill="#000000" font-family="sans-serif" font-size="22.4" lengthAdjust="spacing" textLength="48.2234" x="591.1882" y="1186.0816">Item</text><line style="stroke:#181818;stroke-width:0.8000000000000002;" x1="392.464" x2="786.1359" y1="1203.216" y2="1203.216"/><text fill="#000000" font-family="sans-serif" font-size="22.4" lengthAdjust="spacing" textLength="115.9703" x="400.464" y="1231.2723">itemID : ID</text><text fill="#000000" font-family="sans-serif" font-size="22.4" lengthAdjust="spacing" textLength="377.6719" x="400.464" y="1257.6535">operationList : Qeueu&lt;Operation&gt;</text><text fill="#000000" font-family="sans-serif" font-size="22.4" lengthAdjust="spacing" textLength="308.7" x="400.464" y="1284.0348">currentOperation: Operation</text><line style="stroke:#181818;stroke-width:0.8000000000000002;" x1="392.464" x2="786.1359" y1="1295.1598" y2="1295.1598"/><text fill="#000000" font-family="sans-serif" font-size="22.4" lengthAdjust="spacing" textLength="208.5672" x="400.464" y="1323.216">getNextOperation()</text><text fill="#000000" font-family="sans-serif" font-size="22.4" lengthAdjust="spacing" textLength="239.9141" x="400.464" y="1349.5973">getCurrentOperation()</text></g><!--class PriorityEnum--><g id="elem_PriorityEnum"><rect codeLine="77" fill="#F1F1F1" height="155.9438" id="PriorityEnum" rx="4" ry="4" style="stroke:#181818;stroke-width:0.8000000000000002;" width="189.5594" x="900.928" y="1178.4"/><ellipse cx="924.928" cy="1204" fill="#ADD1B2" rx="17.6" ry="17.6" style="stroke:#181818;stroke-width:1.6000000000000003;"/><path d="M929.685,1213.0289 Q928.7553,1213.507 927.7327,1213.7461 Q926.71,1213.9852 925.5811,1213.9852 Q921.5702,1213.9852 919.4585,1211.3422 Q917.3468,1208.6992 917.3468,1203.7055 Q917.3468,1198.6984 919.4585,1196.0555 Q921.5702,1193.4125 925.5811,1193.4125 Q926.71,1193.4125 927.746,1193.6516 Q928.7819,1193.8906 929.685,1194.3688 L929.685,1198.725 Q928.6757,1197.7953 927.726,1197.3637 Q926.7764,1196.932 925.7671,1196.932 Q923.6155,1196.932 922.5198,1198.6387 Q921.4241,1200.3453 921.4241,1203.7055 Q921.4241,1207.0523 922.5198,1208.759 Q923.6155,1210.4656 925.7671,1210.4656 Q926.7764,1210.4656 927.726,1210.034 Q928.6757,1209.6023 929.685,1208.6727 Z " fill="#000000"/><text fill="#000000" font-family="sans-serif" font-size="22.4" lengthAdjust="spacing" textLength="138.3594" x="947.328" y="1212.4656">PriorityEnum</text><line style="stroke:#181818;stroke-width:0.8000000000000002;" x1="902.528" x2="1088.8874" y1="1229.6" y2="1229.6"/><text fill="#000000" font-family="sans-serif" font-size="22.4" lengthAdjust="spacing" textLength="48.2453" x="910.528" y="1257.6563">high</text><text fill="#000000" font-family="sans-serif" font-size="22.4" lengthAdjust="spacing" textLength="76.5844" x="910.528" y="1284.0375">normal</text><text fill="#000000" font-family="sans-serif" font-size="22.4" lengthAdjust="spacing" textLength="37.4938" x="910.528" y="1310.4188">low</text><line style="stroke:#181818;stroke-width:0.8000000000000002;" x1="902.528" x2="1088.8874" y1="1321.5438" y2="1321.5438"/></g><!--class Operation--><g id="elem_Operation"><rect codeLine="85" fill="#F1F1F1" height="129.5625" id="Operation" rx="4" ry="4" style="stroke:#181818;stroke-width:0.8000000000000002;" width="271.1125" x="815.344" y="1549.872"/><ellipse cx="890.0854" cy="1575.472" fill="#ADD1B2" rx="17.6" ry="17.6" style="stroke:#181818;stroke-width:1.6000000000000003;"/><path d="M894.8424,1584.5009 Q893.9128,1584.979 892.8901,1585.2181 Q891.8674,1585.4572 890.7385,1585.4572 Q886.7276,1585.4572 884.6159,1582.8142 Q882.5042,1580.1712 882.5042,1575.1775 Q882.5042,1570.1704 884.6159,1567.5275 Q886.7276,1564.8845 890.7385,1564.8845 Q891.8674,1564.8845 892.9034,1565.1236 Q893.9393,1565.3626 894.8424,1565.8408 L894.8424,1570.197 Q893.8331,1569.2673 892.8835,1568.8357 Q891.9338,1568.404 890.9245,1568.404 Q888.7729,1568.404 887.6772,1570.1107 Q886.5815,1571.8173 886.5815,1575.1775 Q886.5815,1578.5243 887.6772,1580.231 Q888.7729,1581.9376 890.9245,1581.9376 Q891.9338,1581.9376 892.8835,1581.506 Q893.8331,1581.0743 894.8424,1580.1447 Z " fill="#000000"/><text fill="#000000" font-family="sans-serif" font-size="22.4" lengthAdjust="spacing" textLength="108.0297" x="922.8854" y="1583.9376">Operation</text><line style="stroke:#181818;stroke-width:0.8000000000000002;" x1="816.944" x2="1084.8565" y1="1601.072" y2="1601.072"/><text fill="#000000" font-family="sans-serif" font-size="22.4" lengthAdjust="spacing" textLength="251.9125" x="824.944" y="1629.1283">operationName : String</text><text fill="#000000" font-family="sans-serif" font-size="22.4" lengthAdjust="spacing" textLength="162.5313" x="824.944" y="1655.5095">duration : float</text><line style="stroke:#181818;stroke-width:0.8000000000000002;" x1="816.944" x2="1084.8565" y1="1666.6345" y2="1666.6345"/></g><!--class Machine--><g id="elem_Machine"><rect codeLine="90" fill="#F1F1F1" height="340.6125" id="Machine" rx="4" ry="4" style="stroke:#181818;stroke-width:0.8000000000000002;" width="331.8156" x="1146.592" y="1086.064"/><ellipse cx="1260.7522" cy="1111.664" fill="#ADD1B2" rx="17.6" ry="17.6" style="stroke:#181818;stroke-width:1.6000000000000003;"/><path d="M1265.5092,1120.6929 Q1264.5795,1121.171 1263.5568,1121.4101 Q1262.5342,1121.6492 1261.4053,1121.6492 Q1257.3943,1121.6492 1255.2826,1119.0062 Q1253.1709,1116.3632 1253.1709,1111.3695 Q1253.1709,1106.3624 1255.2826,1103.7195 Q1257.3943,1101.0765 1261.4053,1101.0765 Q1262.5342,1101.0765 1263.5701,1101.3156 Q1264.6061,1101.5546 1265.5092,1102.0328 L1265.5092,1106.389 Q1264.4998,1105.4593 1263.5502,1105.0277 Q1262.6006,1104.596 1261.5912,1104.596 Q1259.4397,1104.596 1258.344,1106.3027 Q1257.2483,1108.0093 1257.2483,1111.3695 Q1257.2483,1114.7163 1258.344,1116.423 Q1259.4397,1118.1296 1261.5912,1118.1296 Q1262.6006,1118.1296 1263.5502,1117.698 Q1264.4998,1117.2663 1265.5092,1116.3367 Z " fill="#000000"/><text fill="#000000" font-family="sans-serif" font-size="22.4" lengthAdjust="spacing" textLength="89.8953" x="1293.5522" y="1120.1296">Machine</text><line style="stroke:#181818;stroke-width:0.8000000000000002;" x1="1148.192" x2="1476.8076" y1="1137.264" y2="1137.264"/><text fill="#000000" font-family="sans-serif" font-size="22.4" lengthAdjust="spacing" textLength="154.9625" x="1156.192" y="1165.3203">idMachine : ID</text><text fill="#000000" font-family="sans-serif" font-size="22.4" lengthAdjust="spacing" textLength="233.6797" x="1156.192" y="1191.7015">operation : Operation</text><text fill="#000000" font-family="sans-serif" font-size="22.4" lengthAdjust="spacing" textLength="265.3328" x="1156.192" y="1218.0828">proccessingSpeed : float</text><text fill="#000000" font-family="sans-serif" font-size="22.4" lengthAdjust="spacing" textLength="202.8141" x="1156.192" y="1244.464">available : boolean</text><text fill="#000000" font-family="sans-serif" font-size="22.4" lengthAdjust="spacing" textLength="244.7813" x="1156.192" y="1270.8453">timeLeftToFinish: float</text><text fill="#000000" font-family="sans-serif" font-size="22.4" lengthAdjust="spacing" textLength="312.6156" x="1156.192" y="1297.2265">currentProcessingItem : Item</text><line style="stroke:#181818;stroke-width:0.8000000000000002;" x1="1148.192" x2="1476.8076" y1="1308.3515" y2="1308.3515"/><text fill="#000000" font-family="sans-serif" font-size="22.4" lengthAdjust="spacing" textLength="250.1625" x="1156.192" y="1336.4078">processItem(Item item)</text><text fill="#000000" font-family="sans-serif" font-size="22.4" lengthAdjust="spacing" textLength="179.7906" x="1156.192" y="1362.789">updateMachine()</text><text fill="#000000" font-family="sans-serif" font-size="22.4" lengthAdjust="spacing" textLength="158.3859" x="1156.192" y="1389.1703">resetMachine()</text><text fill="#000000" font-family="sans-serif" font-size="22.4" lengthAdjust="spacing" textLength="133.0984" x="1156.192" y="1415.5515">printStatus()</text></g><!--class OperationQueue--><g id="elem_OperationQueue"><rect codeLine="104" fill="#F1F1F1" height="287.85" id="OperationQueue" rx="4" ry="4" style="stroke:#181818;stroke-width:0.8000000000000002;" width="324.2031" x="11.2" y="1112.448"/><ellipse cx="77.8642" cy="1138.048" fill="#ADD1B2" rx="17.6" ry="17.6" style="stroke:#181818;stroke-width:1.6000000000000003;"/><path d="M82.6213,1147.0769 Q81.6916,1147.555 80.6689,1147.7941 Q79.6463,1148.0332 78.5173,1148.0332 Q74.5064,1148.0332 72.3947,1145.3902 Q70.283,1142.7472 70.283,1137.7535 Q70.283,1132.7464 72.3947,1130.1035 Q74.5064,1127.4605 78.5173,1127.4605 Q79.6463,1127.4605 80.6822,1127.6996 Q81.7181,1127.9386 82.6213,1128.4168 L82.6213,1132.773 Q81.6119,1131.8433 80.6623,1131.4117 Q79.7127,1130.98 78.7033,1130.98 Q76.5517,1130.98 75.456,1132.6867 Q74.3603,1134.3933 74.3603,1137.7535 Q74.3603,1141.1003 75.456,1142.807 Q76.5517,1144.5136 78.7033,1144.5136 Q79.7127,1144.5136 80.6623,1144.082 Q81.6119,1143.6503 82.6213,1142.7207 Z " fill="#000000"/><text fill="#000000" font-family="sans-serif" font-size="22.4" lengthAdjust="spacing" textLength="178.1938" x="109.7452" y="1146.5136">OperationQueue</text><line style="stroke:#181818;stroke-width:0.8000000000000002;" x1="12.8" x2="333.8031" y1="1163.648" y2="1163.648"/><text fill="#000000" font-family="sans-serif" font-size="22.4" lengthAdjust="spacing" textLength="233.6797" x="20.8" y="1191.7043">operation : Operation</text><text fill="#000000" font-family="sans-serif" font-size="22.4" lengthAdjust="spacing" textLength="261.7234" x="20.8" y="1218.0855">itemList : Queue&lt;Item&gt;</text><text fill="#000000" font-family="sans-serif" font-size="22.4" lengthAdjust="spacing" textLength="187.3266" x="20.8" y="1244.4668">priority : boolean</text><line style="stroke:#181818;stroke-width:0.8000000000000002;" x1="12.8" x2="333.8031" y1="1255.5918" y2="1255.5918"/><text fill="#000000" font-family="sans-serif" font-size="22.4" lengthAdjust="spacing" textLength="157.4234" x="20.8" y="1283.648">getOperation()</text><text fill="#000000" font-family="sans-serif" font-size="22.4" lengthAdjust="spacing" textLength="305.0031" x="20.8" y="1310.0293">addItemToQueue(Item item)</text><text fill="#000000" font-family="sans-serif" font-size="22.4" lengthAdjust="spacing" textLength="288.575" x="20.8" y="1336.4105">checkOperation(Item item)</text><text fill="#000000" font-family="sans-serif" font-size="22.4" lengthAdjust="spacing" textLength="148.7609" x="20.8" y="1362.7918">getNextItem()</text><text fill="#000000" font-family="sans-serif" font-size="22.4" lengthAdjust="spacing" textLength="99.6953" x="20.8" y="1389.173">isEmpty()</text></g><!--class SimulatorUI--><g id="elem_SimulatorUI"><rect codeLine="117" fill="#F1F1F1" height="76.8" id="SimulatorUI" rx="4" ry="4" style="stroke:#181818;stroke-width:0.8000000000000002;" width="176.675" x="286.56" y="116.72"/><ellipse cx="310.56" cy="142.32" fill="#ADD1B2" rx="17.6" ry="17.6" style="stroke:#181818;stroke-width:1.6000000000000003;"/><path d="M315.317,151.3489 Q314.3873,151.827 313.3647,152.0661 Q312.342,152.3052 311.2131,152.3052 Q307.2022,152.3052 305.0905,149.6622 Q302.9788,147.0192 302.9788,142.0255 Q302.9788,137.0184 305.0905,134.3755 Q307.2022,131.7325 311.2131,131.7325 Q312.342,131.7325 313.378,131.9716 Q314.4139,132.2106 315.317,132.6888 L315.317,137.045 Q314.3077,136.1153 313.358,135.6837 Q312.4084,135.252 311.3991,135.252 Q309.2475,135.252 308.1518,136.9587 Q307.0561,138.6653 307.0561,142.0255 Q307.0561,145.3723 308.1518,147.079 Q309.2475,148.7856 311.3991,148.7856 Q312.4084,148.7856 313.358,148.354 Q314.3077,147.9223 315.317,146.9927 Z " fill="#000000"/><text fill="#000000" font-family="sans-serif" font-size="22.4" lengthAdjust="spacing" textLength="125.475" x="332.96" y="150.7856">SimulatorUI</text><line style="stroke:#181818;stroke-width:0.8000000000000002;" x1="288.16" x2="461.635" y1="167.92" y2="167.92"/><line style="stroke:#181818;stroke-width:0.8000000000000002;" x1="288.16" x2="461.635" y1="180.72" y2="180.72"/></g><!--link Repositories to Repositories--><g id="link_Repositories_Repositories"><path codeLine="120" d="M1930.272,118.304 C1962.72,122.576 1985.76,134.864 1985.76,155.12 C1985.76,175.392 1972.2379,186.4269 1939.7899,190.6989 " fill="none" id="Repositories-to-Repositories" style="stroke:#181818;stroke-width:1.6000000000000003;"/><polygon fill="#181818" points="1930.272,191.952,1945.3842,196.4176,1938.2036,190.9078,1943.7134,183.7271,1930.272,191.952" style="stroke:#181818;stroke-width:1.6000000000000003;"/><text fill="#000000" font-family="sans-serif" font-size="20.8" lengthAdjust="spacing" textLength="83.9414" x="1995.36" y="163.2294">instance</text></g><!--link ApplicationSession to ApplicationSession--><g id="link_ApplicationSession_ApplicationSession"><path codeLine="121" d="M516.144,463.68 C547.872,465.36 571.536,473.152 571.536,487.04 C571.536,500.912 557.4586,508.1964 525.7306,509.8764 " fill="none" id="ApplicationSession-to-ApplicationSession" style="stroke:#181818;stroke-width:1.6000000000000003;"/><polygon fill="#181818" points="516.144,510.384,530.8623,516.0136,524.1328,509.961,530.1854,503.2315,516.144,510.384" style="stroke:#181818;stroke-width:1.6000000000000003;"/><text fill="#000000" font-family="sans-serif" font-size="20.8" lengthAdjust="spacing" textLength="83.9414" x="581.136" y="495.1494">instance</text></g><!--link SimulatorUI to SimulatorController--><g id="link_SimulatorUI_SimulatorController"><path codeLine="123" d="M463.696,155.12 C480.24,155.12 488.912,155.12 508.4,155.12 " fill="none" id="SimulatorUI-to-SimulatorController" style="stroke:#181818;stroke-width:1.6000000000000003;stroke-dasharray:7.0,7.0;"/><polygon fill="#181818" points="518,155.12,503.6,148.72,510,155.12,503.6,161.52,518,155.12" style="stroke:#181818;stroke-width:1.6000000000000003;"/></g><!--link SimulatorController to Repositories--><g id="link_SimulatorController_Repositories"><path codeLine="125" d="M1409.312,155.12 C1476.224,155.12 1531.808,155.12 1587.648,155.12 " fill="none" id="SimulatorController-to-Repositories" style="stroke:#181818;stroke-width:1.6000000000000003;stroke-dasharray:7.0,7.0;"/><polygon fill="#181818" points="1597.248,155.12,1582.848,148.72,1589.248,155.12,1582.848,161.52,1597.248,155.12" style="stroke:#181818;stroke-width:1.6000000000000003;"/><text fill="#000000" font-family="sans-serif" font-size="20.8" lengthAdjust="spacing" textLength="119.8539" x="1444.016" y="144.8294">repositories</text></g><!--link Repositories to ItemRepository--><g id="link_Repositories_ItemRepository"><path codeLine="127" d="M1597.424,252.688 C1493.984,312.384 1373.483,381.9221 1289.659,430.2901 " fill="none" id="Repositories-to-ItemRepository" style="stroke:#181818;stroke-width:1.6000000000000003;"/><polygon fill="#181818" points="1281.344,435.088,1297.0152,433.4345,1288.2732,431.0897,1290.6179,422.3477,1281.344,435.088" style="stroke:#181818;stroke-width:1.6000000000000003;"/><text fill="#000000" font-family="sans-serif" font-size="20.8" lengthAdjust="spacing" textLength="13.1523" x="1285.2543" y="418.0604">1</text></g><!--link Repositories to OperationRepository--><g id="link_Repositories_OperationRepository"><path codeLine="128" d="M1785.776,259.824 C1798.288,318.192 1811.3494,379.2049 1821.3014,425.6689 " fill="none" id="Repositories-to-OperationRepository" style="stroke:#181818;stroke-width:1.6000000000000003;"/><polygon fill="#181818" points="1823.312,435.056,1826.5542,419.635,1821.6365,427.2334,1814.038,422.3158,1823.312,435.056" style="stroke:#181818;stroke-width:1.6000000000000003;"/><text fill="#000000" font-family="sans-serif" font-size="20.8" lengthAdjust="spacing" textLength="13.1523" x="1807.0034" y="418.0218">1</text></g><!--link SimulatorController to MachineRepository--><g id="link_SimulatorController_MachineRepository"><path codeLine="130" d="M1103.264,299.392 C1143.376,340.4 1176.496,374.256 1176.496,374.256 C1176.496,374.256 1330.096,422.256 1330.096,422.256 C1330.096,422.256 1339.9107,425.8424 1365.1427,435.0584 " fill="none" id="SimulatorController-to-MachineRepository" style="stroke:#181818;stroke-width:1.6000000000000003;stroke-dasharray:7.0,7.0;"/><polygon fill="#181818" points="1374.16,438.352,1362.8297,427.4001,1366.6456,435.6073,1358.4383,439.4232,1374.16,438.352" style="stroke:#181818;stroke-width:1.6000000000000003;"/><text fill="#000000" font-family="sans-serif" font-size="20.8" lengthAdjust="spacing" textLength="192.1359" x="1178.096" y="368.7654">machineRepository</text></g><!--link SimulatorController to ItemRepository--><g id="link_SimulatorController_ItemRepository"><path codeLine="131" d="M960.096,299.52 C959.408,326.8 958.896,347.056 958.896,347.056 C958.896,347.056 958.896,374.256 958.896,374.256 C958.896,374.256 1016.1202,401.3066 1078.1522,430.6186 " fill="none" id="SimulatorController-to-ItemRepository" style="stroke:#181818;stroke-width:1.6000000000000003;stroke-dasharray:7.0,7.0;"/><polygon fill="#181818" points="1086.832,434.72,1076.5467,422.7813,1079.5989,431.3021,1071.0781,434.3543,1086.832,434.72" style="stroke:#181818;stroke-width:1.6000000000000003;"/><text fill="#000000" font-family="sans-serif" font-size="20.8" lengthAdjust="spacing" textLength="151.9578" x="960.496" y="368.7654">itemRepository</text></g><!--link SimulatorController to OperationRepository--><g id="link_SimulatorController_OperationRepository"><path codeLine="132" d="M1322.032,299.76 C1390.08,326.928 1440.496,347.056 1440.496,347.056 C1440.496,347.056 1493.296,374.256 1493.296,374.256 C1493.296,374.256 1659.696,422.256 1659.696,422.256 C1659.696,422.256 1665.8394,424.4703 1687.2314,432.2303 " fill="none" id="SimulatorController-to-OperationRepository" style="stroke:#181818;stroke-width:1.6000000000000003;stroke-dasharray:7.0,7.0;"/><polygon fill="#181818" points="1696.256,435.504,1684.9016,424.5771,1688.7355,432.7759,1680.5367,436.6099,1696.256,435.504" style="stroke:#181818;stroke-width:1.6000000000000003;"/><text fill="#000000" font-family="sans-serif" font-size="20.8" lengthAdjust="spacing" textLength="204.0898" x="1494.896" y="368.7654">operationRepository</text></g><!--link Repositories to MachineRepository--><g id="link_Repositories_MachineRepository"><path codeLine="134" d="M1739.456,259.76 C1726.224,315.984 1712.496,374.256 1712.496,374.256 C1712.496,374.256 1662.2574,400.9108 1606.9774,430.2228 " fill="none" id="Repositories-to-MachineRepository" style="stroke:#181818;stroke-width:1.6000000000000003;"/><polygon fill="#181818" points="1598.496,434.72,1614.2163,433.6284,1605.5639,430.9723,1608.22,422.3198,1598.496,434.72" style="stroke:#181818;stroke-width:1.6000000000000003;"/><text fill="#000000" font-family="sans-serif" font-size="20.8" lengthAdjust="spacing" textLength="13.1523" x="1603.2903" y="418.2171">1</text></g><!--link ApplicationSession to UserSession--><g id="link_ApplicationSession_UserSession"><path codeLine="136" d="M415.152,552.016 C442.32,614.688 479.5113,700.5673 504.5033,758.2473 " fill="none" id="ApplicationSession-to-UserSession" style="stroke:#181818;stroke-width:1.6000000000000003;"/><polygon fill="#181818" points="508.32,767.056,508.4674,751.2985,505.1394,759.7154,496.7225,756.3874,508.32,767.056" style="stroke:#181818;stroke-width:1.6000000000000003;"/><text fill="#000000" font-family="sans-serif" font-size="20.8" lengthAdjust="spacing" textLength="119.3055" x="448.496" y="621.5174">userSession</text><text fill="#000000" font-family="sans-serif" font-size="20.8" lengthAdjust="spacing" textLength="13.1523" x="489.7436" y="750.0416">1</text></g><!--link SimulatorController to ApplicationSession--><g id="link_SimulatorController_ApplicationSession"><path codeLine="138" d="M713.152,299.712 C638.528,342.304 568.8181,382.0743 507.8581,416.8583 " fill="none" id="SimulatorController-to-ApplicationSession" style="stroke:#181818;stroke-width:1.6000000000000003;stroke-dasharray:7.0,7.0;"/><polygon fill="#181818" points="499.52,421.616,515.199,420.0381,506.4684,417.6512,508.8553,408.9206,499.52,421.616" style="stroke:#181818;stroke-width:1.6000000000000003;"/></g><!--link SimulatorController to UserSession--><g id="link_SimulatorController_UserSession"><path codeLine="139" d="M869.888,299.664 C773.264,446.864 633.2196,660.2303 568.4996,758.8383 " fill="none" id="SimulatorController-to-UserSession" style="stroke:#181818;stroke-width:1.6000000000000003;stroke-dasharray:7.0,7.0;"/><polygon fill="#181818" points="563.232,766.864,576.4839,758.3371,567.6217,760.1759,565.7829,751.3137,563.232,766.864" style="stroke:#181818;stroke-width:1.6000000000000003;"/></g><!--link SimulatorController to Simulator--><g id="link_SimulatorController_Simulator"><path codeLine="142" d="M930.992,299.6 C916.592,362.448 902.896,422.256 902.896,422.256 C902.896,422.256 892.3912,551.9673 883.2232,665.1353 " fill="none" id="SimulatorController-to-Simulator" style="stroke:#181818;stroke-width:1.6000000000000003;"/><polygon fill="#181818" points="882.448,674.704,889.9899,660.8678,883.094,666.7301,877.2317,659.8342,882.448,674.704" style="stroke:#181818;stroke-width:1.6000000000000003;"/><text fill="#000000" font-family="sans-serif" font-size="20.8" lengthAdjust="spacing" textLength="152.6789" x="904.496" y="495.1494">startSimulation</text></g><!--link Item to Operation--><g id="link_Item_Operation"><path codeLine="143" d="M694.384,1361.152 C756.304,1421.968 825.8543,1490.2658 879.1023,1542.5538 " fill="none" id="Item-to-Operation" style="stroke:#181818;stroke-width:1.6000000000000003;"/><polygon fill="#181818" points="885.952,1549.28,880.1616,1534.6242,880.2439,1543.6748,871.1933,1543.7572,885.952,1549.28" style="stroke:#181818;stroke-width:1.6000000000000003;"/><polygon fill="#000000" points="846.2039,1494.1258,839.173,1480.6306,832.5835,1487.3406,846.2039,1494.1258" style="stroke:#000000;stroke-width:1.6000000000000003;"/><text fill="#000000" font-family="sans-serif" font-size="20.8" lengthAdjust="spacing" textLength="34.9984" x="854.896" y="1496.3814">has</text><text fill="#000000" font-family="sans-serif" font-size="20.8" lengthAdjust="spacing" textLength="13.1523" x="691.779" y="1393.3302">1</text><text fill="#000000" font-family="sans-serif" font-size="20.8" lengthAdjust="spacing" textLength="10.0242" x="864.8351" y="1532.6156">*</text></g><!--link Machine to Operation--><g id="link_Machine_Operation"><path codeLine="144" d="M1145.984,1421.488 C1099.84,1466.8 1059.283,1506.6351 1022.755,1542.4911 " fill="none" id="Machine-to-Operation" style="stroke:#181818;stroke-width:1.6000000000000003;"/><polygon fill="#181818" points="1015.904,1549.216,1030.6637,1543.6959,1021.6131,1543.6119,1021.6971,1534.5613,1015.904,1549.216" style="stroke:#181818;stroke-width:1.6000000000000003;"/><polygon fill="#000000" points="1090.7878,1494.1255,1104.4086,1487.341,1097.8194,1480.6307,1090.7878,1494.1255" style="stroke:#000000;stroke-width:1.6000000000000003;"/><text fill="#000000" font-family="sans-serif" font-size="20.8" lengthAdjust="spacing" textLength="78.8633" x="1110.896" y="1496.3814">execute</text></g><!--link Item to PriorityEnum--><g id="link_Item_PriorityEnum"><path codeLine="145" d="M788.336,1256.368 C827.344,1256.368 856.976,1256.368 890.64,1256.368 " fill="none" id="Item-to-PriorityEnum" style="stroke:#181818;stroke-width:1.6000000000000003;"/><polygon fill="#181818" points="900.24,1256.368,885.84,1249.968,892.24,1256.368,885.84,1262.768,900.24,1256.368" style="stroke:#181818;stroke-width:1.6000000000000003;"/><polygon fill="#000000" points="831.536,1238.2164,817.0639,1233.5142,817.0639,1242.9187,831.536,1238.2164" style="stroke:#000000;stroke-width:1.6000000000000003;"/><text fill="#000000" font-family="sans-serif" font-size="20.8" lengthAdjust="spacing" textLength="34.9984" x="837.936" y="1246.0774">has</text><text fill="#000000" font-family="sans-serif" font-size="20.8" lengthAdjust="spacing" textLength="13.1523" x="800.223" y="1251.7979">1</text><text fill="#000000" font-family="sans-serif" font-size="20.8" lengthAdjust="spacing" textLength="13.1523" x="875.0463" y="1251.0447">1</text></g><!--link Simulator to OperationQueue--><g id="link_Simulator_OperationQueue"><path codeLine="146" d="M730.448,913.088 C689.2,940.272 654.896,962.864 654.896,962.864 C654.896,962.864 362.096,1086.064 362.096,1086.064 C362.096,1086.064 357.8347,1089.8961 340.5867,1105.2881 " fill="none" id="Simulator-to-OperationQueue" style="stroke:#181818;stroke-width:1.6000000000000003;"/><polygon fill="#181818" points="333.424,1111.68,348.4292,1106.8672,339.3929,1106.3534,339.9067,1097.317,333.424,1111.68" style="stroke:#181818;stroke-width:1.6000000000000003;"/><polygon fill="#000000" points="535.7206,1028.2499,550.7803,1026.0682,546.6218,1017.633,535.7206,1028.2499" style="stroke:#000000;stroke-width:1.6000000000000003;"/><text fill="#000000" font-family="sans-serif" font-size="20.8" lengthAdjust="spacing" textLength="34.9984" x="557.296" y="1032.5734">has</text><text fill="#000000" font-family="sans-serif" font-size="20.8" lengthAdjust="spacing" textLength="13.1523" x="704.5848" y="916.5364">1</text><text fill="#000000" font-family="sans-serif" font-size="20.8" lengthAdjust="spacing" textLength="13.1523" x="332.8878" y="1095.3227">1</text></g><!--link Simulator to Machine--><g id="link_Simulator_Machine"><path codeLine="147" d="M1011.84,959.12 C1054.496,1001.072 1094.9162,1040.8038 1139.0762,1084.2438 " fill="none" id="Simulator-to-Machine" style="stroke:#181818;stroke-width:1.6000000000000003;"/><polygon fill="#181818" points="1145.92,1090.976,1140.1425,1076.3152,1140.2168,1085.3658,1131.1662,1085.4402,1145.92,1090.976" style="stroke:#181818;stroke-width:1.6000000000000003;"/><polygon fill="#000000" points="1105.4,1030.3217,1098.3784,1016.8217,1091.7843,1023.5271,1105.4,1030.3217" style="stroke:#000000;stroke-width:1.6000000000000003;"/><text fill="#000000" font-family="sans-serif" font-size="20.8" lengthAdjust="spacing" textLength="34.9984" x="1114.096" y="1032.5734">has</text><text fill="#000000" font-family="sans-serif" font-size="20.8" lengthAdjust="spacing" textLength="13.1523" x="1024.0563" y="965.8654">1</text><text fill="#000000" font-family="sans-serif" font-size="20.8" lengthAdjust="spacing" textLength="36.3391" x="1097.2361" y="1074.0762">1..*</text></g><!--link OperationQueue to Item--><g id="link_OperationQueue_Item"><path codeLine="148" d="M335.92,1256.368 C353.696,1256.368 362.336,1256.368 380.496,1256.368 " fill="none" id="OperationQueue-to-Item" style="stroke:#181818;stroke-width:1.6000000000000003;"/><polygon fill="#181818" points="390.096,1256.368,375.696,1249.968,382.096,1256.368,375.696,1262.768,390.096,1256.368" style="stroke:#181818;stroke-width:1.6000000000000003;"/><text fill="#000000" font-family="sans-serif" font-size="20.8" lengthAdjust="spacing" textLength="13.1523" x="348.3452" y="1251.614">1</text><text fill="#000000" font-family="sans-serif" font-size="20.8" lengthAdjust="spacing" textLength="36.3391" x="348.4247" y="1277.6905">1..*</text></g><!--SRC=[ZLPBJ-Cm4BxdLrXSU2nKkzS8LK9Gf4eyjqLxDicGM3XsP3iBNSH_tx7ZE6xgijj3bSnyC_xcwHpgLoPQgcX36YbaKIlP036gWspKjBHufHMip8O3KL0OAYeU0tHDI_d6H4LUADUnXZC1PjC2QINVs9ViCA6KoiWiiYeurVh26CMUEmFBGeeL-mFaUvOTSdWnn4YYM5KRKZ9BXqcHPSw6NBGjPmMreXLeRJKV6S7VDw8DYWjIWLaAV1O571rx5SekEwL066-4ci_1vPC6DVM51bQyQ2ZZFJORu4i3pKzefMP6gWs9BApcXcaJEx-bHOrPI1juvTJclWNb8anR1RMEZGAMWVReiorXd8mnGIJV0cq7CvuV6- -452iJt6EMAzPqdABqKWgZ9EUWGcW9NUnvyGv5PpslMGFQamW0Z4SPxm4nlvYfxplpe1Y6PJP7jxGz3zHEoMC77Pnx7_CvQVedVUgysNgSs_ZdXE6_FkqbmNvEP2Z1ANcMaWCLfFLdNNDQ7VlyZzb2mktH8DPTivQ6SXj9459TW2XnnkvL2SgRkLW318yGN-OXaMYVNkPxqxqqOz-vTrgM8RYrTCdn3Wi5r82J33IwjaJH49ONEcQneHDuq0e7inkGI8vLmcPtBKVodrlZ5N5UNc67Bg_SUyYw9OxYHpokYyhIC-xdF4ZpSPoS7ajo1- -ZtjCQDqIi2UaS6caXkgOdL-D-SWz2gePozyZbMxyg9dFiumdyxoZku9oiSF-9ogdApYDpyi8bDJiBn6UazA-9f91ffAsIHM7tcgXMBK0PVBio_CRDHf-vzUGxsCaDDjKDhk2rl6Q2wJgsyQbzGB-zMrUht9Kid8WQ-txaTBQ2YQxnELUWmtp4RHFw9R4INOzz_2FoeTbjZxX9TyCy7E0AEGaxtbn3evPbtwLzMq_YAMeeNaUJYTOtcKj4Bs5wqRHcuuEQ3kdJ4bi4vLjB_6o-lTHpmlpQpdPlGOjEI2ERB3vjDa-jsmWJxUVP3WyLtnWxf0z-74mkoGd4On9NnHu2o63t7is7DHQPxxEUtDcvAzL_sALkudnil9XuCiGTrbcoT1uTVOZWALtqMRANOE9pQ1yq_in9EpopHCQB8vzUgfdhSilKCJw9IeZWcceopuRzP17H3WPtQG42HXzzqF5c3Lv64k6qk67SH7w5dSrEGlA3qstpaOC3kns6lxy0]--></g></svg>