<svg xmlns="http://www.w3.org/2000/svg" xmlns:xlink="http://www.w3.org/1999/xlink" contentStyleType="text/css" height="1085px" preserveAspectRatio="none" style="width:1276px;height:1085px;background:#FFFFFF;" version="1.1" viewBox="0 0 1276 1085" width="1276px" zoomAndPan="magnify"><defs/><g><!--class ApplicationSession--><g id="elem_ApplicationSession"><rect codeLine="11" fill="#F1F1F1" height="86.1358" id="ApplicationSession" rx="2.5" ry="2.5" style="stroke:#181818;stroke-width:0.5;" width="155.4795" x="157" y="229"/><ellipse cx="172" cy="245" fill="#ADD1B2" rx="11" ry="11" style="stroke:#181818;stroke-width:1.0;"/><path d="M174.9688,250.6406 Q174.3906,250.9375 173.75,251.0781 Q173.1094,251.2344 172.4063,251.2344 Q169.9063,251.2344 168.5781,249.5938 Q167.2656,247.9375 167.2656,244.8125 Q167.2656,241.6875 168.5781,240.0313 Q169.9063,238.375 172.4063,238.375 Q173.1094,238.375 173.75,238.5313 Q174.4063,238.6875 174.9688,238.9844 L174.9688,241.7031 Q174.3438,241.125 173.75,240.8594 Q173.1563,240.5781 172.5313,240.5781 Q171.1875,240.5781 170.5,241.6563 Q169.8125,242.7188 169.8125,244.8125 Q169.8125,246.9063 170.5,247.9844 Q171.1875,249.0469 172.5313,249.0469 Q173.1563,249.0469 173.75,248.7813 Q174.3438,248.5 174.9688,247.9219 L174.9688,250.6406 Z " fill="#000000"/><text fill="#000000" font-family="sans-serif" font-size="14" lengthAdjust="spacing" textLength="123.4795" x="186" y="250.432">ApplicationSession</text><line style="stroke:#181818;stroke-width:0.5;" x1="158" x2="311.4795" y1="261" y2="261"/><line style="stroke:#181818;stroke-width:0.5;" x1="158" x2="311.4795" y1="269" y2="269"/><text fill="#000000" font-family="sans-serif" font-size="14" lengthAdjust="spacing" textLength="132.8875" x="163" y="287.9659">+static getInstance()</text><text fill="#000000" font-family="sans-serif" font-size="14" lengthAdjust="spacing" textLength="138.3615" x="163" y="307.0339">+getCurrentSession()</text></g><!--class UserSession--><g id="elem_UserSession"><rect codeLine="17" fill="#F1F1F1" height="67.0679" id="UserSession" rx="2.5" ry="2.5" style="stroke:#181818;stroke-width:0.5;" width="116.5376" x="265" y="461"/><ellipse cx="281.8864" cy="477" fill="#ADD1B2" rx="11" ry="11" style="stroke:#181818;stroke-width:1.0;"/><path d="M284.8551,482.6406 Q284.277,482.9375 283.6364,483.0781 Q282.9957,483.2344 282.2926,483.2344 Q279.7926,483.2344 278.4645,481.5938 Q277.152,479.9375 277.152,476.8125 Q277.152,473.6875 278.4645,472.0313 Q279.7926,470.375 282.2926,470.375 Q282.9957,470.375 283.6364,470.5313 Q284.2926,470.6875 284.8551,470.9844 L284.8551,473.7031 Q284.2301,473.125 283.6364,472.8594 Q283.0426,472.5781 282.4176,472.5781 Q281.0739,472.5781 280.3864,473.6563 Q279.6989,474.7188 279.6989,476.8125 Q279.6989,478.9063 280.3864,479.9844 Q281.0739,481.0469 282.4176,481.0469 Q283.0426,481.0469 283.6364,480.7813 Q284.2301,480.5 284.8551,479.9219 L284.8551,482.6406 Z " fill="#000000"/><text fill="#000000" font-family="sans-serif" font-size="14" lengthAdjust="spacing" textLength="80.3457" x="296.3055" y="482.432">UserSession</text><line style="stroke:#181818;stroke-width:0.5;" x1="266" x2="380.5376" y1="493" y2="493"/><line style="stroke:#181818;stroke-width:0.5;" x1="266" x2="380.5376" y1="501" y2="501"/><text fill="#000000" font-family="sans-serif" font-size="14" lengthAdjust="spacing" textLength="104.5376" x="271" y="519.9659">+getUserEmail()</text></g><!--class ItemRepository--><g id="elem_ItemRepository"><rect codeLine="25" fill="#F1F1F1" height="67.0679" id="ItemRepository" rx="2.5" ry="2.5" style="stroke:#181818;stroke-width:0.5;" width="133.2336" x="666" y="238.5"/><ellipse cx="681" cy="254.5" fill="#ADD1B2" rx="11" ry="11" style="stroke:#181818;stroke-width:1.0;"/><path d="M683.9688,260.1406 Q683.3906,260.4375 682.75,260.5781 Q682.1094,260.7344 681.4063,260.7344 Q678.9063,260.7344 677.5781,259.0938 Q676.2656,257.4375 676.2656,254.3125 Q676.2656,251.1875 677.5781,249.5313 Q678.9063,247.875 681.4063,247.875 Q682.1094,247.875 682.75,248.0313 Q683.4063,248.1875 683.9688,248.4844 L683.9688,251.2031 Q683.3438,250.625 682.75,250.3594 Q682.1563,250.0781 681.5313,250.0781 Q680.1875,250.0781 679.5,251.1563 Q678.8125,252.2188 678.8125,254.3125 Q678.8125,256.4063 679.5,257.4844 Q680.1875,258.5469 681.5313,258.5469 Q682.1563,258.5469 682.75,258.2813 Q683.3438,258 683.9688,257.4219 L683.9688,260.1406 Z " fill="#000000"/><text fill="#000000" font-family="sans-serif" font-size="14" lengthAdjust="spacing" textLength="101.2336" x="695" y="259.932">ItemRepository</text><line style="stroke:#181818;stroke-width:0.5;" x1="667" x2="798.2336" y1="270.5" y2="270.5"/><line style="stroke:#181818;stroke-width:0.5;" x1="667" x2="798.2336" y1="278.5" y2="278.5"/><text fill="#000000" font-family="sans-serif" font-size="14" lengthAdjust="spacing" textLength="91.4617" x="672" y="297.4659">+getItemList()</text></g><!--class MachineRepository--><g id="elem_MachineRepository"><rect codeLine="29" fill="#F1F1F1" height="67.0679" id="MachineRepository" rx="2.5" ry="2.5" style="stroke:#181818;stroke-width:0.5;" width="158.5315" x="837" y="238.5"/><ellipse cx="852" cy="254.5" fill="#ADD1B2" rx="11" ry="11" style="stroke:#181818;stroke-width:1.0;"/><path d="M854.9688,260.1406 Q854.3906,260.4375 853.75,260.5781 Q853.1094,260.7344 852.4063,260.7344 Q849.9063,260.7344 848.5781,259.0938 Q847.2656,257.4375 847.2656,254.3125 Q847.2656,251.1875 848.5781,249.5313 Q849.9063,247.875 852.4063,247.875 Q853.1094,247.875 853.75,248.0313 Q854.4063,248.1875 854.9688,248.4844 L854.9688,251.2031 Q854.3438,250.625 853.75,250.3594 Q853.1563,250.0781 852.5313,250.0781 Q851.1875,250.0781 850.5,251.1563 Q849.8125,252.2188 849.8125,254.3125 Q849.8125,256.4063 850.5,257.4844 Q851.1875,258.5469 852.5313,258.5469 Q853.1563,258.5469 853.75,258.2813 Q854.3438,258 854.9688,257.4219 L854.9688,260.1406 Z " fill="#000000"/><text fill="#000000" font-family="sans-serif" font-size="14" lengthAdjust="spacing" textLength="126.5315" x="866" y="259.932">MachineRepository</text><line style="stroke:#181818;stroke-width:0.5;" x1="838" x2="994.5315" y1="270.5" y2="270.5"/><line style="stroke:#181818;stroke-width:0.5;" x1="838" x2="994.5315" y1="278.5" y2="278.5"/><text fill="#000000" font-family="sans-serif" font-size="14" lengthAdjust="spacing" textLength="116.7595" x="843" y="297.4659">+getMachineList()</text></g><!--class OperationRepository--><g id="elem_OperationRepository"><rect codeLine="33" fill="#F1F1F1" height="67.0679" id="OperationRepository" rx="2.5" ry="2.5" style="stroke:#181818;stroke-width:0.5;" width="169.3115" x="1032" y="238.5"/><ellipse cx="1047" cy="254.5" fill="#ADD1B2" rx="11" ry="11" style="stroke:#181818;stroke-width:1.0;"/><path d="M1049.9688,260.1406 Q1049.3906,260.4375 1048.75,260.5781 Q1048.1094,260.7344 1047.4063,260.7344 Q1044.9063,260.7344 1043.5781,259.0938 Q1042.2656,257.4375 1042.2656,254.3125 Q1042.2656,251.1875 1043.5781,249.5313 Q1044.9063,247.875 1047.4063,247.875 Q1048.1094,247.875 1048.75,248.0313 Q1049.4063,248.1875 1049.9688,248.4844 L1049.9688,251.2031 Q1049.3438,250.625 1048.75,250.3594 Q1048.1563,250.0781 1047.5313,250.0781 Q1046.1875,250.0781 1045.5,251.1563 Q1044.8125,252.2188 1044.8125,254.3125 Q1044.8125,256.4063 1045.5,257.4844 Q1046.1875,258.5469 1047.5313,258.5469 Q1048.1563,258.5469 1048.75,258.2813 Q1049.3438,258 1049.9688,257.4219 L1049.9688,260.1406 Z " fill="#000000"/><text fill="#000000" font-family="sans-serif" font-size="14" lengthAdjust="spacing" textLength="137.3115" x="1061" y="259.932">OperationRepository</text><line style="stroke:#181818;stroke-width:0.5;" x1="1033" x2="1200.3115" y1="270.5" y2="270.5"/><line style="stroke:#181818;stroke-width:0.5;" x1="1033" x2="1200.3115" y1="278.5" y2="278.5"/><text fill="#000000" font-family="sans-serif" font-size="14" lengthAdjust="spacing" textLength="111.5376" x="1038" y="297.4659">+getOperations()</text></g><!--class Repositories--><g id="elem_Repositories"><rect codeLine="37" fill="#F1F1F1" height="143.3396" id="Repositories" rx="2.5" ry="2.5" style="stroke:#181818;stroke-width:0.5;" width="198.8013" x="972" y="7"/><ellipse cx="1026.3898" cy="23" fill="#ADD1B2" rx="11" ry="11" style="stroke:#181818;stroke-width:1.0;"/><path d="M1029.3585,28.6406 Q1028.7804,28.9375 1028.1398,29.0781 Q1027.4992,29.2344 1026.796,29.2344 Q1024.296,29.2344 1022.9679,27.5938 Q1021.6554,25.9375 1021.6554,22.8125 Q1021.6554,19.6875 1022.9679,18.0313 Q1024.296,16.375 1026.796,16.375 Q1027.4992,16.375 1028.1398,16.5313 Q1028.796,16.6875 1029.3585,16.9844 L1029.3585,19.7031 Q1028.7335,19.125 1028.1398,18.8594 Q1027.546,18.5781 1026.921,18.5781 Q1025.5773,18.5781 1024.8898,19.6563 Q1024.2023,20.7188 1024.2023,22.8125 Q1024.2023,24.9063 1024.8898,25.9844 Q1025.5773,27.0469 1026.921,27.0469 Q1027.546,27.0469 1028.1398,26.7813 Q1028.7335,26.5 1029.3585,25.9219 L1029.3585,28.6406 Z " fill="#000000"/><text fill="#000000" font-family="sans-serif" font-size="14" lengthAdjust="spacing" textLength="81.5217" x="1046.8898" y="28.432">Repositories</text><line style="stroke:#181818;stroke-width:0.5;" x1="973" x2="1169.8013" y1="39" y2="39"/><line style="stroke:#181818;stroke-width:0.5;" x1="973" x2="1169.8013" y1="47" y2="47"/><text fill="#000000" font-family="sans-serif" font-size="14" lengthAdjust="spacing" textLength="94.4296" x="978" y="65.9659">-Repositories()</text><text fill="#000000" font-family="sans-serif" font-size="14" lengthAdjust="spacing" textLength="186.8013" x="978" y="85.0339">+getInstance() : Repositories</text><text fill="#000000" font-family="sans-serif" font-size="14" lengthAdjust="spacing" textLength="139.2015" x="978" y="104.1018">+getItemRepository()</text><text fill="#000000" font-family="sans-serif" font-size="14" lengthAdjust="spacing" textLength="164.4994" x="978" y="123.1697">+getMachineRepository()</text><text fill="#000000" font-family="sans-serif" font-size="14" lengthAdjust="spacing" textLength="175.2793" x="978" y="142.2376">+getOperationRepository()</text></g><!--class SimulatorController--><g id="elem_SimulatorController"><rect codeLine="45" fill="#F1F1F1" height="124.2717" id="SimulatorController" rx="2.5" ry="2.5" style="stroke:#181818;stroke-width:0.5;" width="533.988" x="325.5" y="16.5"/><ellipse cx="523.2493" cy="32.5" fill="#ADD1B2" rx="11" ry="11" style="stroke:#181818;stroke-width:1.0;"/><path d="M526.218,38.1406 Q525.6399,38.4375 524.9993,38.5781 Q524.3586,38.7344 523.6555,38.7344 Q521.1555,38.7344 519.8274,37.0938 Q518.5149,35.4375 518.5149,32.3125 Q518.5149,29.1875 519.8274,27.5313 Q521.1555,25.875 523.6555,25.875 Q524.3586,25.875 524.9993,26.0313 Q525.6555,26.1875 526.218,26.4844 L526.218,29.2031 Q525.593,28.625 524.9993,28.3594 Q524.4055,28.0781 523.7805,28.0781 Q522.4368,28.0781 521.7493,29.1563 Q521.0618,30.2188 521.0618,32.3125 Q521.0618,34.4063 521.7493,35.4844 Q522.4368,36.5469 523.7805,36.5469 Q524.4055,36.5469 524.9993,36.2813 Q525.593,36 526.218,35.4219 L526.218,38.1406 Z " fill="#000000"/><text fill="#000000" font-family="sans-serif" font-size="14" lengthAdjust="spacing" textLength="129.9895" x="543.7493" y="37.932">SimulatorController</text><line style="stroke:#181818;stroke-width:0.5;" x1="326.5" x2="858.488" y1="48.5" y2="48.5"/><line style="stroke:#181818;stroke-width:0.5;" x1="326.5" x2="858.488" y1="56.5" y2="56.5"/><text fill="#000000" font-family="sans-serif" font-size="14" lengthAdjust="spacing" textLength="146.3974" x="331.5" y="75.4659">+SimulatorController()</text><text fill="#000000" font-family="sans-serif" font-size="14" lengthAdjust="spacing" textLength="521.988" x="331.5" y="94.5339">+startSimulationWithOutPriority(Map&lt;Operation, Queue&lt;Machine&gt;&gt; machines,</text><text fill="#000000" font-family="sans-serif" font-size="14" lengthAdjust="spacing" textLength="441.4325" x="331.5" y="113.6018">List&lt;Item&gt; items, List&lt;Operation&gt; operations, boolean priorityFlag)</text><text fill="#000000" font-family="sans-serif" font-size="14" lengthAdjust="spacing" textLength="126.4195" x="331.5" y="132.6697">-getMachinesMap()</text></g><!--class Simulator--><g id="elem_Simulator"><rect codeLine="52" fill="#F1F1F1" height="200.5433" id="Simulator" rx="2.5" ry="2.5" style="stroke:#181818;stroke-width:0.5;" width="172.6214" x="448" y="394"/><ellipse cx="498.1548" cy="410" fill="#ADD1B2" rx="11" ry="11" style="stroke:#181818;stroke-width:1.0;"/><path d="M501.1236,415.6406 Q500.5454,415.9375 499.9048,416.0781 Q499.2642,416.2344 498.5611,416.2344 Q496.0611,416.2344 494.7329,414.5938 Q493.4204,412.9375 493.4204,409.8125 Q493.4204,406.6875 494.7329,405.0313 Q496.0611,403.375 498.5611,403.375 Q499.2642,403.375 499.9048,403.5313 Q500.5611,403.6875 501.1236,403.9844 L501.1236,406.7031 Q500.4986,406.125 499.9048,405.8594 Q499.3111,405.5781 498.6861,405.5781 Q497.3423,405.5781 496.6548,406.6563 Q495.9673,407.7188 495.9673,409.8125 Q495.9673,411.9063 496.6548,412.9844 Q497.3423,414.0469 498.6861,414.0469 Q499.3111,414.0469 499.9048,413.7813 Q500.4986,413.5 501.1236,412.9219 L501.1236,415.6406 Z " fill="#000000"/><text fill="#000000" font-family="sans-serif" font-size="14" lengthAdjust="spacing" textLength="63.8118" x="518.6548" y="415.432">Simulator</text><line style="stroke:#181818;stroke-width:0.5;" x1="449" x2="619.6214" y1="426" y2="426"/><text fill="#000000" font-family="sans-serif" font-size="14" lengthAdjust="spacing" textLength="52.3598" x="454" y="444.9659">itemList</text><text fill="#000000" font-family="sans-serif" font-size="14" lengthAdjust="spacing" textLength="79.1837" x="454" y="464.0339">machineList</text><line style="stroke:#181818;stroke-width:0.5;" x1="449" x2="619.6214" y1="472.1358" y2="472.1358"/><text fill="#000000" font-family="sans-serif" font-size="14" lengthAdjust="spacing" textLength="160.6214" x="454" y="491.1018">addOperationToQueue()</text><text fill="#000000" font-family="sans-serif" font-size="14" lengthAdjust="spacing" textLength="100.3376" x="454" y="510.1697">createQueues()</text><text fill="#000000" font-family="sans-serif" font-size="14" lengthAdjust="spacing" textLength="117.8655" x="454" y="529.2376">updateMachines()</text><text fill="#000000" font-family="sans-serif" font-size="14" lengthAdjust="spacing" textLength="84.1397" x="454" y="548.3055">printQueue()</text><text fill="#000000" font-family="sans-serif" font-size="14" lengthAdjust="spacing" textLength="137.1995" x="454" y="567.3734">printMachineStatus()</text><text fill="#000000" font-family="sans-serif" font-size="14" lengthAdjust="spacing" textLength="153.6634" x="454" y="586.4414">assignItemToMachine()</text></g><!--class Item--><g id="elem_Item"><rect codeLine="64" fill="#F1F1F1" height="143.3396" id="Item" rx="2.5" ry="2.5" style="stroke:#181818;stroke-width:0.5;" width="237.0491" x="243" y="722"/><ellipse cx="341.8816" cy="738" fill="#ADD1B2" rx="11" ry="11" style="stroke:#181818;stroke-width:1.0;"/><path d="M344.8504,743.6406 Q344.2722,743.9375 343.6316,744.0781 Q342.991,744.2344 342.2879,744.2344 Q339.7879,744.2344 338.4597,742.5938 Q337.1472,740.9375 337.1472,737.8125 Q337.1472,734.6875 338.4597,733.0313 Q339.7879,731.375 342.2879,731.375 Q342.991,731.375 343.6316,731.5313 Q344.2879,731.6875 344.8504,731.9844 L344.8504,734.7031 Q344.2254,734.125 343.6316,733.8594 Q343.0379,733.5781 342.4129,733.5781 Q341.0691,733.5781 340.3816,734.6563 Q339.6941,735.7188 339.6941,737.8125 Q339.6941,739.9063 340.3816,740.9844 Q341.0691,742.0469 342.4129,742.0469 Q343.0379,742.0469 343.6316,741.7813 Q344.2254,741.5 344.8504,740.9219 L344.8504,743.6406 Z " fill="#000000"/><text fill="#000000" font-family="sans-serif" font-size="14" lengthAdjust="spacing" textLength="30.7859" x="362.3816" y="743.432">Item</text><line style="stroke:#181818;stroke-width:0.5;" x1="244" x2="479.0491" y1="754" y2="754"/><text fill="#000000" font-family="sans-serif" font-size="14" lengthAdjust="spacing" textLength="70.6157" x="249" y="772.9659">itemID : ID</text><text fill="#000000" font-family="sans-serif" font-size="14" lengthAdjust="spacing" textLength="225.0491" x="249" y="792.0339">operationList : Qeueu&lt;Operation&gt;</text><text fill="#000000" font-family="sans-serif" font-size="14" lengthAdjust="spacing" textLength="189.6573" x="249" y="811.1018">currentOperation: Operation</text><line style="stroke:#181818;stroke-width:0.5;" x1="244" x2="479.0491" y1="819.2038" y2="819.2038"/><text fill="#000000" font-family="sans-serif" font-size="14" lengthAdjust="spacing" textLength="127.8195" x="249" y="838.1697">getNextOperation()</text><text fill="#000000" font-family="sans-serif" font-size="14" lengthAdjust="spacing" textLength="147.4894" x="249" y="857.2376">getCurrentOperation()</text></g><!--class PriorityEnum--><g id="elem_PriorityEnum"><rect codeLine="72" fill="#F1F1F1" height="105.2038" id="PriorityEnum" rx="2.5" ry="2.5" style="stroke:#181818;stroke-width:0.5;" width="118.0997" x="550.5" y="741"/><ellipse cx="565.5" cy="757" fill="#ADD1B2" rx="11" ry="11" style="stroke:#181818;stroke-width:1.0;"/><path d="M568.4688,762.6406 Q567.8906,762.9375 567.25,763.0781 Q566.6094,763.2344 565.9063,763.2344 Q563.4063,763.2344 562.0781,761.5938 Q560.7656,759.9375 560.7656,756.8125 Q560.7656,753.6875 562.0781,752.0313 Q563.4063,750.375 565.9063,750.375 Q566.6094,750.375 567.25,750.5313 Q567.9063,750.6875 568.4688,750.9844 L568.4688,753.7031 Q567.8438,753.125 567.25,752.8594 Q566.6563,752.5781 566.0313,752.5781 Q564.6875,752.5781 564,753.6563 Q563.3125,754.7188 563.3125,756.8125 Q563.3125,758.9063 564,759.9844 Q564.6875,761.0469 566.0313,761.0469 Q566.6563,761.0469 567.25,760.7813 Q567.8438,760.5 568.4688,759.9219 L568.4688,762.6406 Z " fill="#000000"/><text fill="#000000" font-family="sans-serif" font-size="14" lengthAdjust="spacing" textLength="86.0997" x="579.5" y="762.432">PriorityEnum</text><line style="stroke:#181818;stroke-width:0.5;" x1="551.5" x2="667.5997" y1="773" y2="773"/><text fill="#000000" font-family="sans-serif" font-size="14" lengthAdjust="spacing" textLength="29.5259" x="556.5" y="791.9659">high</text><text fill="#000000" font-family="sans-serif" font-size="14" lengthAdjust="spacing" textLength="47.4598" x="556.5" y="811.0339">normal</text><text fill="#000000" font-family="sans-serif" font-size="14" lengthAdjust="spacing" textLength="23.0859" x="556.5" y="830.1018">low</text><line style="stroke:#181818;stroke-width:0.5;" x1="551.5" x2="667.5997" y1="838.2038" y2="838.2038"/></g><!--class Operation--><g id="elem_Operation"><rect codeLine="80" fill="#F1F1F1" height="86.1358" id="Operation" rx="2.5" ry="2.5" style="stroke:#181818;stroke-width:0.5;" width="166.3074" x="500.5" y="992"/><ellipse cx="545.9718" cy="1008" fill="#ADD1B2" rx="11" ry="11" style="stroke:#181818;stroke-width:1.0;"/><path d="M548.9406,1013.6406 Q548.3625,1013.9375 547.7218,1014.0781 Q547.0812,1014.2344 546.3781,1014.2344 Q543.8781,1014.2344 542.55,1012.5938 Q541.2375,1010.9375 541.2375,1007.8125 Q541.2375,1004.6875 542.55,1003.0313 Q543.8781,1001.375 546.3781,1001.375 Q547.0812,1001.375 547.7218,1001.5313 Q548.3781,1001.6875 548.9406,1001.9844 L548.9406,1004.7031 Q548.3156,1004.125 547.7218,1003.8594 Q547.1281,1003.5781 546.5031,1003.5781 Q545.1593,1003.5781 544.4718,1004.6563 Q543.7843,1005.7188 543.7843,1007.8125 Q543.7843,1009.9063 544.4718,1010.9844 Q545.1593,1012.0469 546.5031,1012.0469 Q547.1281,1012.0469 547.7218,1011.7813 Q548.3156,1011.5 548.9406,1010.9219 L548.9406,1013.6406 Z " fill="#000000"/><text fill="#000000" font-family="sans-serif" font-size="14" lengthAdjust="spacing" textLength="66.8638" x="566.4718" y="1013.432">Operation</text><line style="stroke:#181818;stroke-width:0.5;" x1="501.5" x2="665.8074" y1="1024" y2="1024"/><text fill="#000000" font-family="sans-serif" font-size="14" lengthAdjust="spacing" textLength="154.3074" x="506.5" y="1042.9659">operationName : String</text><text fill="#000000" font-family="sans-serif" font-size="14" lengthAdjust="spacing" textLength="97.5236" x="506.5" y="1062.0339">duration : float</text><line style="stroke:#181818;stroke-width:0.5;" x1="501.5" x2="665.8074" y1="1070.1358" y2="1070.1358"/></g><!--class Machine--><g id="elem_Machine"><rect codeLine="85" fill="#F1F1F1" height="238.6792" id="Machine" rx="2.5" ry="2.5" style="stroke:#181818;stroke-width:0.5;" width="204.7653" x="704" y="674"/><ellipse cx="774.0908" cy="690" fill="#ADD1B2" rx="11" ry="11" style="stroke:#181818;stroke-width:1.0;"/><path d="M777.0595,695.6406 Q776.4814,695.9375 775.8408,696.0781 Q775.2001,696.2344 774.497,696.2344 Q771.997,696.2344 770.6689,694.5938 Q769.3564,692.9375 769.3564,689.8125 Q769.3564,686.6875 770.6689,685.0313 Q771.997,683.375 774.497,683.375 Q775.2001,683.375 775.8408,683.5313 Q776.497,683.6875 777.0595,683.9844 L777.0595,686.7031 Q776.4345,686.125 775.8408,685.8594 Q775.247,685.5781 774.622,685.5781 Q773.2783,685.5781 772.5908,686.6563 Q771.9033,687.7188 771.9033,689.8125 Q771.9033,691.9063 772.5908,692.9844 Q773.2783,694.0469 774.622,694.0469 Q775.247,694.0469 775.8408,693.7813 Q776.4345,693.5 777.0595,692.9219 L777.0595,695.6406 Z " fill="#000000"/><text fill="#000000" font-family="sans-serif" font-size="14" lengthAdjust="spacing" textLength="56.0838" x="794.5908" y="695.432">Machine</text><line style="stroke:#181818;stroke-width:0.5;" x1="705" x2="907.7653" y1="706" y2="706"/><text fill="#000000" font-family="sans-serif" font-size="14" lengthAdjust="spacing" textLength="94.3036" x="710" y="724.9659">idMachine : ID</text><text fill="#000000" font-family="sans-serif" font-size="14" lengthAdjust="spacing" textLength="142.2955" x="710" y="744.0339">operation : Operation</text><text fill="#000000" font-family="sans-serif" font-size="14" lengthAdjust="spacing" textLength="160.0194" x="710" y="763.1018">proccessingSpeed : float</text><text fill="#000000" font-family="sans-serif" font-size="14" lengthAdjust="spacing" textLength="122.6115" x="710" y="782.1697">available : boolean</text><text fill="#000000" font-family="sans-serif" font-size="14" lengthAdjust="spacing" textLength="146.7054" x="710" y="801.2376">timeLeftToFinish: float</text><text fill="#000000" font-family="sans-serif" font-size="14" lengthAdjust="spacing" textLength="192.7653" x="710" y="820.3055">currentProcessingItem : Item</text><line style="stroke:#181818;stroke-width:0.5;" x1="705" x2="907.7653" y1="828.4075" y2="828.4075"/><text fill="#000000" font-family="sans-serif" font-size="14" lengthAdjust="spacing" textLength="154.1534" x="710" y="847.3734">processItem(Item item)</text><text fill="#000000" font-family="sans-serif" font-size="14" lengthAdjust="spacing" textLength="111.1596" x="710" y="866.4414">updateMachine()</text><text fill="#000000" font-family="sans-serif" font-size="14" lengthAdjust="spacing" textLength="97.8176" x="710" y="885.5093">resetMachine()</text><text fill="#000000" font-family="sans-serif" font-size="14" lengthAdjust="spacing" textLength="81.1157" x="710" y="904.5772">printStatus()</text></g><!--class OperationQueue--><g id="elem_OperationQueue"><rect codeLine="99" fill="#F1F1F1" height="200.5433" id="OperationQueue" rx="2.5" ry="2.5" style="stroke:#181818;stroke-width:0.5;" width="200.6213" x="7" y="693"/><ellipse cx="47.9775" cy="709" fill="#ADD1B2" rx="11" ry="11" style="stroke:#181818;stroke-width:1.0;"/><path d="M50.9462,714.6406 Q50.3681,714.9375 49.7275,715.0781 Q49.0868,715.2344 48.3837,715.2344 Q45.8837,715.2344 44.5556,713.5938 Q43.2431,711.9375 43.2431,708.8125 Q43.2431,705.6875 44.5556,704.0313 Q45.8837,702.375 48.3837,702.375 Q49.0868,702.375 49.7275,702.5313 Q50.3837,702.6875 50.9462,702.9844 L50.9462,705.7031 Q50.3212,705.125 49.7275,704.8594 Q49.1337,704.5781 48.5087,704.5781 Q47.165,704.5781 46.4775,705.6563 Q45.79,706.7188 45.79,708.8125 Q45.79,710.9063 46.4775,711.9844 Q47.165,713.0469 48.5087,713.0469 Q49.1337,713.0469 49.7275,712.7813 Q50.3212,712.5 50.9462,711.9219 L50.9462,714.6406 Z " fill="#000000"/><text fill="#000000" font-family="sans-serif" font-size="14" lengthAdjust="spacing" textLength="110.8936" x="67.7502" y="714.432">OperationQueue</text><line style="stroke:#181818;stroke-width:0.5;" x1="8" x2="206.6213" y1="725" y2="725"/><text fill="#000000" font-family="sans-serif" font-size="14" lengthAdjust="spacing" textLength="142.2955" x="13" y="743.9659">operation : Operation</text><text fill="#000000" font-family="sans-serif" font-size="14" lengthAdjust="spacing" textLength="154.2234" x="13" y="763.0339">itemList : Queue&lt;Item&gt;</text><text fill="#000000" font-family="sans-serif" font-size="14" lengthAdjust="spacing" textLength="112.6576" x="13" y="782.1018">priority : boolean</text><line style="stroke:#181818;stroke-width:0.5;" x1="8" x2="206.6213" y1="790.2038" y2="790.2038"/><text fill="#000000" font-family="sans-serif" font-size="14" lengthAdjust="spacing" textLength="96.8236" x="13" y="809.1697">getOperation()</text><text fill="#000000" font-family="sans-serif" font-size="14" lengthAdjust="spacing" textLength="188.6213" x="13" y="828.2376">addItemToQueue(Item item)</text><text fill="#000000" font-family="sans-serif" font-size="14" lengthAdjust="spacing" textLength="176.8053" x="13" y="847.3055">checkOperation(Item item)</text><text fill="#000000" font-family="sans-serif" font-size="14" lengthAdjust="spacing" textLength="91.7417" x="13" y="866.3734">getNextItem()</text><text fill="#000000" font-family="sans-serif" font-size="14" lengthAdjust="spacing" textLength="60.3958" x="13" y="885.4414">isEmpty()</text></g><!--class SimulatorUI--><g id="elem_SimulatorUI"><rect codeLine="112" fill="#F1F1F1" height="48" id="SimulatorUI" rx="2.5" ry="2.5" style="stroke:#181818;stroke-width:0.5;" width="110.7917" x="179" y="54.5"/><ellipse cx="194" cy="70.5" fill="#ADD1B2" rx="11" ry="11" style="stroke:#181818;stroke-width:1.0;"/><path d="M196.9688,76.1406 Q196.3906,76.4375 195.75,76.5781 Q195.1094,76.7344 194.4063,76.7344 Q191.9063,76.7344 190.5781,75.0938 Q189.2656,73.4375 189.2656,70.3125 Q189.2656,67.1875 190.5781,65.5313 Q191.9063,63.875 194.4063,63.875 Q195.1094,63.875 195.75,64.0313 Q196.4063,64.1875 196.9688,64.4844 L196.9688,67.2031 Q196.3438,66.625 195.75,66.3594 Q195.1563,66.0781 194.5313,66.0781 Q193.1875,66.0781 192.5,67.1563 Q191.8125,68.2188 191.8125,70.3125 Q191.8125,72.4063 192.5,73.4844 Q193.1875,74.5469 194.5313,74.5469 Q195.1563,74.5469 195.75,74.2813 Q196.3438,74 196.9688,73.4219 L196.9688,76.1406 Z " fill="#000000"/><text fill="#000000" font-family="sans-serif" font-size="14" lengthAdjust="spacing" textLength="78.7917" x="208" y="75.932">SimulatorUI</text><line style="stroke:#181818;stroke-width:0.5;" x1="180" x2="288.7917" y1="86.5" y2="86.5"/><line style="stroke:#181818;stroke-width:0.5;" x1="180" x2="288.7917" y1="94.5" y2="94.5"/></g><!--link Repositories to Repositories--><g id="link_Repositories_Repositories"><path codeLine="115" d="M1171.21,58.66 C1191.48,60.82 1206,67.44 1206,78.5 C1206,89.56 1197.4462,95.5442 1177.1762,97.7042 " fill="none" id="Repositories-to-Repositories" style="stroke:#181818;stroke-width:1.0;"/><polygon fill="#181818" points="1171.21,98.34,1180.5832,101.3638,1176.1819,97.8102,1179.7355,93.4089,1171.21,98.34" style="stroke:#181818;stroke-width:1.0;"/><text fill="#000000" font-family="sans-serif" font-size="13" lengthAdjust="spacing" textLength="51.207" x="1212" y="83.897">instance</text></g><!--link ApplicationSession to ApplicationSession--><g id="link_ApplicationSession_ApplicationSession"><path codeLine="116" d="M312.06,256.8 C332,257.76 347,262.83 347,272 C347,281.17 337.9931,285.9515 318.0531,286.9115 " fill="none" id="ApplicationSession-to-ApplicationSession" style="stroke:#181818;stroke-width:1.0;"/><polygon fill="#181818" points="312.06,287.2,321.2419,290.7626,317.0542,286.9596,320.8572,282.7718,312.06,287.2" style="stroke:#181818;stroke-width:1.0;"/><text fill="#000000" font-family="sans-serif" font-size="13" lengthAdjust="spacing" textLength="51.207" x="353" y="277.397">instance</text></g><!--link SimulatorUI to SimulatorController--><g id="link_SimulatorUI_SimulatorController"><path codeLine="118" d="M290.32,78.5 C302.46,78.5 308.8,78.5 319.34,78.5 " fill="none" id="SimulatorUI-to-SimulatorController" style="stroke:#181818;stroke-width:1.0;stroke-dasharray:7.0,7.0;"/><polygon fill="#181818" points="325.34,78.5,316.34,74.5,320.34,78.5,316.34,82.5,325.34,78.5" style="stroke:#181818;stroke-width:1.0;"/></g><!--link SimulatorController to Repositories--><g id="link_SimulatorController_Repositories"><path codeLine="120" d="M859.66,78.5 C899.57,78.5 932.44,78.5 965.76,78.5 " fill="none" id="SimulatorController-to-Repositories" style="stroke:#181818;stroke-width:1.0;stroke-dasharray:7.0,7.0;"/><polygon fill="#181818" points="971.76,78.5,962.76,74.5,966.76,78.5,962.76,82.5,971.76,78.5" style="stroke:#181818;stroke-width:1.0;"/><text fill="#000000" font-family="sans-serif" font-size="13" lengthAdjust="spacing" textLength="72.9821" x="879.75" y="71.397">repositories</text></g><!--link Repositories to ItemRepository--><g id="link_Repositories_ItemRepository"><path codeLine="122" d="M972,134.75 C929.94,158.1 890.5,180 890.5,180 C890.5,180 839.6292,209.2953 794.2992,235.4053 " fill="none" id="Repositories-to-ItemRepository" style="stroke:#181818;stroke-width:1.0;"/><polygon fill="#181818" points="789.1,238.4,798.8953,237.374,793.4327,235.9044,794.9023,230.4418,789.1,238.4" style="stroke:#181818;stroke-width:1.0;"/><text fill="#000000" font-family="sans-serif" font-size="13" lengthAdjust="spacing" textLength="7.436" x="793.0727" y="226.6797">1</text></g><!--link Repositories to OperationRepository--><g id="link_Repositories_OperationRepository"><path codeLine="123" d="M1088.36,150.12 C1092.37,166.88 1095.5,180 1095.5,180 C1095.5,180 1101.5999,206.4439 1107.6299,232.5539 " fill="none" id="Repositories-to-OperationRepository" style="stroke:#181818;stroke-width:1.0;"/><polygon fill="#181818" points="1108.98,238.4,1110.8522,228.7307,1107.8549,233.5282,1103.0574,230.5309,1108.98,238.4" style="stroke:#181818;stroke-width:1.0;"/><text fill="#000000" font-family="sans-serif" font-size="13" lengthAdjust="spacing" textLength="7.436" x="1099.72" y="226.6797">1</text></g><!--link SimulatorController to MachineRepository--><g id="link_SimulatorController_MachineRepository"><path codeLine="125" d="M680.52,140.65 C722.83,170.05 764.5,199 764.5,199 C764.5,199 801.9775,216.7517 842.1975,235.8017 " fill="none" id="SimulatorController-to-MachineRepository" style="stroke:#181818;stroke-width:1.0;stroke-dasharray:7.0,7.0;"/><polygon fill="#181818" points="847.62,238.37,841.1985,230.9025,843.1012,236.2297,837.774,238.1325,847.62,238.37" style="stroke:#181818;stroke-width:1.0;"/><text fill="#000000" font-family="sans-serif" font-size="13" lengthAdjust="spacing" textLength="117.8581" x="765.5" y="194.897">machineRepository</text></g><!--link SimulatorController to ItemRepository--><g id="link_SimulatorController_ItemRepository"><path codeLine="126" d="M590.68,140.57 C590.05,161.61 589.5,180 589.5,180 C589.5,180 589.5,199 589.5,199 C589.5,199 624.5011,216.6214 662.3311,235.6714 " fill="none" id="SimulatorController-to-ItemRepository" style="stroke:#181818;stroke-width:1.0;stroke-dasharray:7.0,7.0;"/><polygon fill="#181818" points="667.69,238.37,661.4507,230.7496,663.2243,236.1212,657.8526,237.8947,667.69,238.37" style="stroke:#181818;stroke-width:1.0;"/><text fill="#000000" font-family="sans-serif" font-size="13" lengthAdjust="spacing" textLength="92.9501" x="590.5" y="194.897">itemRepository</text></g><!--link SimulatorController to OperationRepository--><g id="link_SimulatorController_OperationRepository"><path codeLine="127" d="M771.75,140.57 C833.53,161.61 887.5,180 887.5,180 C887.5,180 1013.5,229 1013.5,229 C1013.5,229 1017.6241,230.6846 1031.0641,236.1646 " fill="none" id="SimulatorController-to-OperationRepository" style="stroke:#181818;stroke-width:1.0;stroke-dasharray:7.0,7.0;"/><polygon fill="#181818" points="1036.62,238.43,1029.7964,231.328,1031.9901,236.5422,1026.7759,238.7359,1036.62,238.43" style="stroke:#181818;stroke-width:1.0;"/><text fill="#000000" font-family="sans-serif" font-size="13" lengthAdjust="spacing" textLength="125.2161" x="936.5" y="194.897">operationRepository</text></g><!--link Repositories to MachineRepository--><g id="link_Repositories_MachineRepository"><path codeLine="129" d="M1061.46,150.05 C1057.78,175.92 1054.5,199 1054.5,199 C1054.5,199 1020.8694,216.5445 984.3594,235.5945 " fill="none" id="Repositories-to-MachineRepository" style="stroke:#181818;stroke-width:1.0;"/><polygon fill="#181818" points="979.04,238.37,988.8695,237.753,983.4729,236.057,985.1688,230.6604,979.04,238.37" style="stroke:#181818;stroke-width:1.0;"/><text fill="#000000" font-family="sans-serif" font-size="13" lengthAdjust="spacing" textLength="7.436" x="984.3103" y="226.6435">1</text></g><!--link ApplicationSession to UserSession--><g id="link_ApplicationSession_UserSession"><path codeLine="131" d="M251.55,315.25 C268.67,357.65 292.4146,416.476 308.0246,455.156 " fill="none" id="ApplicationSession-to-UserSession" style="stroke:#181818;stroke-width:1.0;"/><polygon fill="#181818" points="310.27,460.72,310.6112,450.8771,308.3988,456.0833,303.1925,453.871,310.27,460.72" style="stroke:#181818;stroke-width:1.0;"/><text fill="#000000" font-family="sans-serif" font-size="13" lengthAdjust="spacing" textLength="73.1381" x="272.5" y="359.897">userSession</text><text fill="#000000" font-family="sans-serif" font-size="13" lengthAdjust="spacing" textLength="7.436" x="299.9121" y="448.9626">1</text></g><!--link SimulatorController to ApplicationSession--><g id="link_SimulatorController_ApplicationSession"><path codeLine="133" d="M478.24,140.62 C424.01,169.63 365.9204,200.6995 317.3804,226.6695 " fill="none" id="SimulatorController-to-ApplicationSession" style="stroke:#181818;stroke-width:1.0;stroke-dasharray:7.0,7.0;"/><polygon fill="#181818" points="312.09,229.5,321.9126,228.7812,316.4987,227.1413,318.1386,221.7273,312.09,229.5" style="stroke:#181818;stroke-width:1.0;"/></g><!--link SimulatorController to UserSession--><g id="link_SimulatorController_UserSession"><path codeLine="134" d="M552.81,140.59 C495.01,229.54 392.9489,386.6187 348.0089,455.7887 " fill="none" id="SimulatorController-to-UserSession" style="stroke:#181818;stroke-width:1.0;stroke-dasharray:7.0,7.0;"/><polygon fill="#181818" points="344.74,460.82,352.9976,455.4522,347.4641,456.6272,346.2891,451.0937,344.74,460.82" style="stroke:#181818;stroke-width:1.0;"/></g><!--link SimulatorController to Simulator--><g id="link_SimulatorController_Simulator"><path codeLine="137" d="M576.52,140.74 C565.75,182.03 553.5,229 553.5,229 C553.5,229 547.4694,312.9154 542.0894,387.8954 " fill="none" id="SimulatorController-to-Simulator" style="stroke:#181818;stroke-width:1.0;"/><polygon fill="#181818" points="541.66,393.88,546.2939,385.1894,542.0178,388.8928,538.3144,384.6168,541.66,393.88" style="stroke:#181818;stroke-width:1.0;"/><text fill="#000000" font-family="sans-serif" font-size="13" lengthAdjust="spacing" textLength="93.5481" x="554.5" y="277.397">startSimulation</text></g><!--link Item to Operation--><g id="link_Item_Operation"><path codeLine="138" d="M426.91,865.06 C465.02,906.18 507.7419,952.2589 540.1919,987.2789 " fill="none" id="Item-to-Operation" style="stroke:#181818;stroke-width:1.0;"/><polygon fill="#181818" points="544.27,991.68,541.0869,982.3597,540.8716,988.0125,535.2188,987.7971,544.27,991.68" style="stroke:#181818;stroke-width:1.0;"/><polygon fill="#000000" points="520.8989,956.5201,516.9057,947.8885,512.5948,951.8841,520.8989,956.5201" style="stroke:#000000;stroke-width:1.0;"/><text fill="#000000" font-family="sans-serif" font-size="13" lengthAdjust="spacing" textLength="21.554" x="526.5" y="957.897">has</text><text fill="#000000" font-family="sans-serif" font-size="13" lengthAdjust="spacing" textLength="7.436" x="426.3144" y="887.2321">1</text><text fill="#000000" font-family="sans-serif" font-size="13" lengthAdjust="spacing" textLength="7.163" x="530.1809" y="980.0415">*</text></g><!--link Machine to Operation--><g id="link_Machine_Operation"><path codeLine="139" d="M703.81,904.79 C675.01,935.72 649.4991,963.1192 626.8691,987.4192 " fill="none" id="Machine-to-Operation" style="stroke:#181818;stroke-width:1.0;"/><polygon fill="#181818" points="622.78,991.81,631.8408,987.9498,626.1876,988.151,625.9864,982.4977,622.78,991.81" style="stroke:#181818;stroke-width:1.0;"/><polygon fill="#000000" points="664.0927,956.5123,672.4074,951.8954,668.1057,947.8898,664.0927,956.5123" style="stroke:#000000;stroke-width:1.0;"/><text fill="#000000" font-family="sans-serif" font-size="13" lengthAdjust="spacing" textLength="47.84" x="676.5" y="957.897">execute</text></g><!--link Item to PriorityEnum--><g id="link_Item_PriorityEnum"><path codeLine="140" d="M480.05,793.5 C504.46,793.5 523.15,793.5 544.33,793.5 " fill="none" id="Item-to-PriorityEnum" style="stroke:#181818;stroke-width:1.0;"/><polygon fill="#181818" points="550.33,793.5,541.33,789.5,545.33,793.5,541.33,797.5,550.33,793.5" style="stroke:#181818;stroke-width:1.0;"/><polygon fill="#000000" points="507.25,781.353,498.2049,778.4141,498.2049,784.2919,507.25,781.353" style="stroke:#000000;stroke-width:1.0;"/><text fill="#000000" font-family="sans-serif" font-size="13" lengthAdjust="spacing" textLength="21.554" x="511.25" y="786.397">has</text><text fill="#000000" font-family="sans-serif" font-size="13" lengthAdjust="spacing" textLength="7.436" x="487.8812" y="789.8642">1</text><text fill="#000000" font-family="sans-serif" font-size="13" lengthAdjust="spacing" textLength="7.436" x="534.9313" y="789.2886">1</text></g><!--link Simulator to OperationQueue--><g id="link_Simulator_OperationQueue"><path codeLine="141" d="M447.86,559.36 C421.57,578.74 399.5,595 399.5,595 C399.5,595 225.5,674 225.5,674 C225.5,674 222.2432,677.2679 211.0332,688.5279 " fill="none" id="Simulator-to-OperationQueue" style="stroke:#181818;stroke-width:1.0;"/><polygon fill="#181818" points="206.8,692.78,215.9845,689.224,210.3277,689.2366,210.3151,683.5798,206.8,692.78" style="stroke:#181818;stroke-width:1.0;"/><polygon fill="#000000" points="334.1104,637.2471,343.4585,635.4962,340.644,630.336,334.1104,637.2471" style="stroke:#000000;stroke-width:1.0;"/><text fill="#000000" font-family="sans-serif" font-size="13" lengthAdjust="spacing" textLength="21.554" x="347.5" y="639.897">has</text><text fill="#000000" font-family="sans-serif" font-size="13" lengthAdjust="spacing" textLength="7.436" x="432.5878" y="561.5063">1</text><text fill="#000000" font-family="sans-serif" font-size="13" lengthAdjust="spacing" textLength="7.436" x="207.1659" y="681.3594">1</text></g><!--link Simulator to Machine--><g id="link_Simulator_Machine"><path codeLine="142" d="M621.31,590.29 C647.59,618.98 672.6376,646.3353 699.8476,676.0453 " fill="none" id="Simulator-to-Machine" style="stroke:#181818;stroke-width:1.0;"/><polygon fill="#181818" points="703.9,680.47,700.7712,671.1313,700.523,676.7827,694.8716,676.5345,703.9,680.47" style="stroke:#181818;stroke-width:1.0;"/><polygon fill="#000000" points="678.877,638.5403,674.9353,629.885,670.6006,633.8548,678.877,638.5403" style="stroke:#000000;stroke-width:1.0;"/><text fill="#000000" font-family="sans-serif" font-size="13" lengthAdjust="spacing" textLength="21.554" x="684.5" y="639.897">has</text><text fill="#000000" font-family="sans-serif" font-size="13" lengthAdjust="spacing" textLength="7.436" x="628.539" y="594.1893">1</text><text fill="#000000" font-family="sans-serif" font-size="13" lengthAdjust="spacing" textLength="21.567" x="674.2715" y="668.1017">1..*</text></g><!--link OperationQueue to Item--><g id="link_OperationQueue_Item"><path codeLine="143" d="M208.09,793.5 C217.86,793.5 224.76,793.5 236.74,793.5 " fill="none" id="OperationQueue-to-Item" style="stroke:#181818;stroke-width:1.0;"/><polygon fill="#181818" points="242.74,793.5,233.74,789.5,237.74,793.5,233.74,797.5,242.74,793.5" style="stroke:#181818;stroke-width:1.0;"/><text fill="#000000" font-family="sans-serif" font-size="13" lengthAdjust="spacing" textLength="7.436" x="215.764" y="789.8155">1</text><text fill="#000000" font-family="sans-serif" font-size="13" lengthAdjust="spacing" textLength="21.567" x="215.4859" y="789.719">1..*</text></g><!--SRC=[ZLP9RzmW5BxxLw1SidGoQgzMP2dA8esKjPEePsA_s2WOBC1Dfb7_UnyOOyR3j9t3oBprUoiSwZScEgfeIrefPDaesG8ngeTiudIqVACrhCs60r5G6Yfg7WleXbRodOcQl5AkOmvd0ioc0z99lh67x331bCh8BD8gETNwt1Z5Nde3grAADVi5v6kM7N9uDSH8ebZT658n2uT9aMLEXvnt7MSbjQGrQ6qvdnd1tnUY3P9BKeDP2VmM9HmTUnRIBdgbG1YlX9pVeybd3Mfk2nKi-QgbZ0-osIY-Cj1-XqvgPgJQa4Z3ScwODh7nMresc8MqWcVETUuxK2x2j5PWwrWfo3BGNlfqYnWdOqeGoRU4jeEP_CVAEo75p0Js6EMQjJsdIBsGmYZ9EQWGMe8NB2DSPRm06l_1J7FVcmV54BNP7DtIxYnuNf377deuypYBWhJ3bruuQpRTPpQyWZ3yruk14lGB8aE65-H5IWvKaCxxkkQqFlRfdPAX4K4oJXyTywtX3krKTdUcLHMSFqa7tWTUAg0676MiNzzLI1hTUYA24oPMT0GljCQvw4T91CTgOQD_afxl-tlgxWZpwX8RP7NfpY4h5ZYI7z5T7wLjG3oCMQ3cKpSxFgRi3ZucleSr3MZC2UaS2tqb-dO0r-1wS1z2gfPozydb-p2fip7oyGJyTnHNO4xMk7v4xLXLxoLpyiebDJlpwpDI-MCYAMGUQQTaMTgr8kfr1r05swuCFt6nq1TkBVaEStJ3MhZ13VWahvbWkebrV6eVqEvWrjKgToKB7f5ZpqUEPokOw1gVSmKwz6_SDg5V4Xl9zTZdFo8VcztsY9j4DsoZ0rV8MTZnuXWRjQg6BXtQUXPFsK3vDgdCkBx9N2862jDNRMSsFgZva3wli4MGlhL3JuljdPeJvhTcjdi9MUa4DTB9Oc_B8hNj8fbeFIvtSAXuOU-0FlXsCBkZPY9U9h6fzm101BlNM3wkiKXzd_RioinTgVv3BtKHvbFZnS2J8UwWpfAbyzBHEm2zzD6hO2_0n6jadsZyoaWRFBL0feiZdrzwcUjoYzGXFebAYC8DrQJ8nlra9Q8T31zGuaCB1IORGz3nPWrM9X31MzmmRYB_9hjSdeJa1wFRwXC69-ns6Fx-0000]--></g></svg>