<?xml version="1.0" encoding="us-ascii" standalone="no"?><svg xmlns="http://www.w3.org/2000/svg" xmlns:xlink="http://www.w3.org/1999/xlink" contentStyleType="text/css" height="643.2px" preserveAspectRatio="none" style="width:735px;height:643px;background:#FFFFFF;" version="1.1" viewBox="0 0 735 643" width="735.6px" zoomAndPan="magnify"><defs/><g><!--class ApplicationSession--><g id="elem_ApplicationSession"><rect codeLine="11" fill="#F1F1F1" height="51.1453" id="ApplicationSession" rx="1.5" ry="1.5" style="stroke:#181818;stroke-width:0.3;" width="90.6" x="83.1" y="136.2"/><ellipse cx="92.1" cy="145.8" fill="#ADD1B2" rx="6.6" ry="6.6" style="stroke:#181818;stroke-width:0.6;"/><path d="M93.7594,143.325 Q93.8531,143.1938 93.9656,143.1281 Q94.0781,143.0625 94.2094,143.0625 Q94.4344,143.0625 94.575,143.2219 Q94.7156,143.3719 94.7156,143.7375 L94.7156,144.6094 Q94.7156,144.975 94.575,145.1344 Q94.4344,145.2938 94.2094,145.2938 Q94.0031,145.2938 93.8813,145.1719 Q93.7594,145.0594 93.6938,144.75 Q93.6656,144.5344 93.5531,144.4219 Q93.3563,144.1969 92.9906,144.0656 Q92.625,143.9344 92.25,143.9344 Q91.7906,143.9344 91.4063,144.1313 Q91.0313,144.3281 90.7313,144.7781 Q90.4406,145.2281 90.4406,145.8469 L90.4406,146.5031 Q90.4406,147.2438 90.975,147.7406 Q91.5094,148.2281 92.4656,148.2281 Q93.0281,148.2281 93.4219,148.0781 Q93.6563,147.9844 93.9094,147.7219 Q94.0688,147.5625 94.1531,147.5156 Q94.2469,147.4688 94.3687,147.4688 Q94.5656,147.4688 94.7156,147.6281 Q94.875,147.7781 94.875,147.9844 Q94.875,148.1906 94.6688,148.4344 Q94.3687,148.7813 93.8906,148.9781 Q93.2437,149.25 92.4656,149.25 Q91.5562,149.25 90.8344,148.875 Q90.2437,148.575 89.8313,147.9375 Q89.4188,147.2906 89.4188,146.5219 L89.4188,145.8281 Q89.4188,145.0313 89.7844,144.3469 Q90.1594,143.6531 90.8156,143.2875 Q91.4719,142.9125 92.2125,142.9125 Q92.6531,142.9125 93.0375,143.0156 Q93.4312,143.1094 93.7594,143.325 Z " fill="#000000"/><text fill="#000000" font-family="sans-serif" font-size="8.4" lengthAdjust="spacing" textLength="71.4" x="100.5" y="149.2781">ApplicationSession</text><line style="stroke:#181818;stroke-width:0.3;" x1="83.7" x2="173.1" y1="155.4" y2="155.4"/><line style="stroke:#181818;stroke-width:0.3;" x1="83.7" x2="173.1" y1="160.2" y2="160.2"/><text fill="#000000" font-family="sans-serif" font-size="8.4" lengthAdjust="spacing" textLength="76.8" x="86.7" y="171.6645">+static getInstance()</text><text fill="#000000" font-family="sans-serif" font-size="8.4" lengthAdjust="spacing" textLength="81.6" x="86.7" y="182.8371">+getCurrentSession()</text></g><!--class UserSession--><g id="elem_UserSession"><rect codeLine="17" fill="#F1F1F1" height="39.9727" id="UserSession" rx="1.5" ry="1.5" style="stroke:#181818;stroke-width:0.3;" width="67.8" x="147.3" y="273.6"/><ellipse cx="156.84" cy="283.2" fill="#ADD1B2" rx="6.6" ry="6.6" style="stroke:#181818;stroke-width:0.6;"/><path d="M158.4994,280.725 Q158.5931,280.5938 158.7056,280.5281 Q158.8181,280.4625 158.9494,280.4625 Q159.1744,280.4625 159.315,280.6219 Q159.4556,280.7719 159.4556,281.1375 L159.4556,282.0094 Q159.4556,282.375 159.315,282.5344 Q159.1744,282.6937 158.9494,282.6937 Q158.7431,282.6937 158.6212,282.5719 Q158.4994,282.4594 158.4337,282.15 Q158.4056,281.9344 158.2931,281.8219 Q158.0962,281.5969 157.7306,281.4656 Q157.365,281.3344 156.99,281.3344 Q156.5306,281.3344 156.1462,281.5313 Q155.7712,281.7281 155.4712,282.1781 Q155.1806,282.6281 155.1806,283.2469 L155.1806,283.9031 Q155.1806,284.6438 155.715,285.1406 Q156.2494,285.6281 157.2056,285.6281 Q157.7681,285.6281 158.1619,285.4781 Q158.3962,285.3844 158.6494,285.1219 Q158.8087,284.9625 158.8931,284.9156 Q158.9869,284.8688 159.1088,284.8688 Q159.3056,284.8688 159.4556,285.0281 Q159.615,285.1781 159.615,285.3844 Q159.615,285.5906 159.4087,285.8344 Q159.1088,286.1813 158.6306,286.3781 Q157.9838,286.65 157.2056,286.65 Q156.2963,286.65 155.5744,286.275 Q154.9838,285.975 154.5713,285.3375 Q154.1587,284.6906 154.1587,283.9219 L154.1587,283.2281 Q154.1587,282.4313 154.5244,281.7469 Q154.8994,281.0531 155.5556,280.6875 Q156.2119,280.3125 156.9525,280.3125 Q157.3931,280.3125 157.7775,280.4156 Q158.1713,280.5094 158.4994,280.725 Z " fill="#000000"/><text fill="#000000" font-family="sans-serif" font-size="8.4" lengthAdjust="spacing" textLength="47.4" x="165.36" y="286.6781">UserSession</text><line style="stroke:#181818;stroke-width:0.3;" x1="147.9" x2="214.5" y1="292.8" y2="292.8"/><line style="stroke:#181818;stroke-width:0.3;" x1="147.9" x2="214.5" y1="297.6" y2="297.6"/><text fill="#000000" font-family="sans-serif" font-size="8.4" lengthAdjust="spacing" textLength="60.6" x="150.9" y="309.0645">+getUserEmail()</text></g><!--class ItemRepository--><g id="elem_ItemRepository"><rect codeLine="25" fill="#F1F1F1" height="39.9727" id="ItemRepository" rx="1.5" ry="1.5" style="stroke:#181818;stroke-width:0.3;" width="75.6" x="381" y="141.6"/><ellipse cx="390" cy="151.2" fill="#ADD1B2" rx="6.6" ry="6.6" style="stroke:#181818;stroke-width:0.6;"/><path d="M391.6594,148.725 Q391.7531,148.5938 391.8656,148.5281 Q391.9781,148.4625 392.1094,148.4625 Q392.3344,148.4625 392.475,148.6219 Q392.6156,148.7719 392.6156,149.1375 L392.6156,150.0094 Q392.6156,150.375 392.475,150.5344 Q392.3344,150.6938 392.1094,150.6938 Q391.9031,150.6938 391.7813,150.5719 Q391.6594,150.4594 391.5938,150.15 Q391.5656,149.9344 391.4531,149.8219 Q391.2562,149.5969 390.8906,149.4656 Q390.525,149.3344 390.15,149.3344 Q389.6906,149.3344 389.3063,149.5313 Q388.9313,149.7281 388.6312,150.1781 Q388.3406,150.6281 388.3406,151.2469 L388.3406,151.9031 Q388.3406,152.6437 388.875,153.1406 Q389.4094,153.6281 390.3656,153.6281 Q390.9281,153.6281 391.3219,153.4781 Q391.5563,153.3844 391.8094,153.1219 Q391.9688,152.9625 392.0531,152.9156 Q392.1469,152.8688 392.2688,152.8688 Q392.4656,152.8688 392.6156,153.0281 Q392.775,153.1781 392.775,153.3844 Q392.775,153.5906 392.5687,153.8344 Q392.2688,154.1813 391.7906,154.3781 Q391.1438,154.65 390.3656,154.65 Q389.4563,154.65 388.7344,154.275 Q388.1438,153.975 387.7313,153.3375 Q387.3187,152.6906 387.3187,151.9219 L387.3187,151.2281 Q387.3187,150.4313 387.6844,149.7469 Q388.0594,149.0531 388.7156,148.6875 Q389.3719,148.3125 390.1125,148.3125 Q390.5531,148.3125 390.9375,148.4156 Q391.3313,148.5094 391.6594,148.725 Z " fill="#000000"/><text fill="#000000" font-family="sans-serif" font-size="8.4" lengthAdjust="spacing" textLength="56.4" x="398.4" y="154.6781">ItemRepository</text><line style="stroke:#181818;stroke-width:0.3;" x1="381.6" x2="456" y1="160.8" y2="160.8"/><line style="stroke:#181818;stroke-width:0.3;" x1="381.6" x2="456" y1="165.6" y2="165.6"/><text fill="#000000" font-family="sans-serif" font-size="8.4" lengthAdjust="spacing" textLength="51.6" x="384.6" y="177.0645">+getItemList()</text></g><!--class MachineRepository--><g id="elem_MachineRepository"><rect codeLine="29" fill="#F1F1F1" height="39.9727" id="MachineRepository" rx="1.5" ry="1.5" style="stroke:#181818;stroke-width:0.3;" width="91.8" x="479.7" y="141.6"/><ellipse cx="488.7" cy="151.2" fill="#ADD1B2" rx="6.6" ry="6.6" style="stroke:#181818;stroke-width:0.6;"/><path d="M490.3594,148.725 Q490.4531,148.5938 490.5656,148.5281 Q490.6781,148.4625 490.8094,148.4625 Q491.0344,148.4625 491.175,148.6219 Q491.3156,148.7719 491.3156,149.1375 L491.3156,150.0094 Q491.3156,150.375 491.175,150.5344 Q491.0344,150.6938 490.8094,150.6938 Q490.6031,150.6938 490.4813,150.5719 Q490.3594,150.4594 490.2938,150.15 Q490.2656,149.9344 490.1531,149.8219 Q489.9562,149.5969 489.5906,149.4656 Q489.225,149.3344 488.85,149.3344 Q488.3906,149.3344 488.0062,149.5313 Q487.6312,149.7281 487.3312,150.1781 Q487.0406,150.6281 487.0406,151.2469 L487.0406,151.9031 Q487.0406,152.6437 487.575,153.1406 Q488.1094,153.6281 489.0656,153.6281 Q489.6281,153.6281 490.0219,153.4781 Q490.2562,153.3844 490.5094,153.1219 Q490.6688,152.9625 490.7531,152.9156 Q490.8469,152.8688 490.9688,152.8688 Q491.1656,152.8688 491.3156,153.0281 Q491.475,153.1781 491.475,153.3844 Q491.475,153.5906 491.2687,153.8344 Q490.9688,154.1813 490.4906,154.3781 Q489.8438,154.65 489.0656,154.65 Q488.1563,154.65 487.4344,154.275 Q486.8438,153.975 486.4313,153.3375 Q486.0187,152.6906 486.0187,151.9219 L486.0187,151.2281 Q486.0187,150.4313 486.3844,149.7469 Q486.7594,149.0531 487.4156,148.6875 Q488.0719,148.3125 488.8125,148.3125 Q489.2531,148.3125 489.6375,148.4156 Q490.0313,148.5094 490.3594,148.725 Z " fill="#000000"/><text fill="#000000" font-family="sans-serif" font-size="8.4" lengthAdjust="spacing" textLength="72.6" x="497.1" y="154.6781">MachineRepository</text><line style="stroke:#181818;stroke-width:0.3;" x1="480.3" x2="570.9" y1="160.8" y2="160.8"/><line style="stroke:#181818;stroke-width:0.3;" x1="480.3" x2="570.9" y1="165.6" y2="165.6"/><text fill="#000000" font-family="sans-serif" font-size="8.4" lengthAdjust="spacing" textLength="67.8" x="483.3" y="177.0645">+getMachineList()</text></g><!--class OperationRepository--><g id="elem_OperationRepository"><rect codeLine="33" fill="#F1F1F1" height="39.9727" id="OperationRepository" rx="1.5" ry="1.5" style="stroke:#181818;stroke-width:0.3;" width="97.8" x="593.7" y="141.6"/><ellipse cx="602.7" cy="151.2" fill="#ADD1B2" rx="6.6" ry="6.6" style="stroke:#181818;stroke-width:0.6;"/><path d="M604.3594,148.725 Q604.4531,148.5938 604.5656,148.5281 Q604.6781,148.4625 604.8094,148.4625 Q605.0344,148.4625 605.175,148.6219 Q605.3156,148.7719 605.3156,149.1375 L605.3156,150.0094 Q605.3156,150.375 605.175,150.5344 Q605.0344,150.6938 604.8094,150.6938 Q604.6031,150.6938 604.4812,150.5719 Q604.3594,150.4594 604.2937,150.15 Q604.2656,149.9344 604.1531,149.8219 Q603.9563,149.5969 603.5906,149.4656 Q603.225,149.3344 602.85,149.3344 Q602.3906,149.3344 602.0063,149.5313 Q601.6313,149.7281 601.3313,150.1781 Q601.0406,150.6281 601.0406,151.2469 L601.0406,151.9031 Q601.0406,152.6437 601.575,153.1406 Q602.1094,153.6281 603.0656,153.6281 Q603.6281,153.6281 604.0219,153.4781 Q604.2563,153.3844 604.5094,153.1219 Q604.6687,152.9625 604.7531,152.9156 Q604.8469,152.8688 604.9688,152.8688 Q605.1656,152.8688 605.3156,153.0281 Q605.475,153.1781 605.475,153.3844 Q605.475,153.5906 605.2688,153.8344 Q604.9688,154.1813 604.4906,154.3781 Q603.8438,154.65 603.0656,154.65 Q602.1563,154.65 601.4344,154.275 Q600.8438,153.975 600.4313,153.3375 Q600.0188,152.6906 600.0188,151.9219 L600.0188,151.2281 Q600.0188,150.4313 600.3844,149.7469 Q600.7594,149.0531 601.4156,148.6875 Q602.0719,148.3125 602.8125,148.3125 Q603.2531,148.3125 603.6375,148.4156 Q604.0313,148.5094 604.3594,148.725 Z " fill="#000000"/><text fill="#000000" font-family="sans-serif" font-size="8.4" lengthAdjust="spacing" textLength="78.6" x="611.1" y="154.6781">OperationRepository</text><line style="stroke:#181818;stroke-width:0.3;" x1="594.3" x2="690.9" y1="160.8" y2="160.8"/><line style="stroke:#181818;stroke-width:0.3;" x1="594.3" x2="690.9" y1="165.6" y2="165.6"/><text fill="#000000" font-family="sans-serif" font-size="8.4" lengthAdjust="spacing" textLength="64.8" x="597.3" y="177.0645">+getOperations()</text></g><!--class Repositories--><g id="elem_Repositories"><rect codeLine="37" fill="#F1F1F1" height="84.6633" id="Repositories" rx="1.5" ry="1.5" style="stroke:#181818;stroke-width:0.3;" width="116.4" x="557.4" y="4.2"/><ellipse cx="589.35" cy="13.8" fill="#ADD1B2" rx="6.6" ry="6.6" style="stroke:#181818;stroke-width:0.6;"/><path d="M591.0094,11.325 Q591.1031,11.1938 591.2156,11.1281 Q591.3281,11.0625 591.4594,11.0625 Q591.6844,11.0625 591.825,11.2219 Q591.9656,11.3719 591.9656,11.7375 L591.9656,12.6094 Q591.9656,12.975 591.825,13.1344 Q591.6844,13.2938 591.4594,13.2938 Q591.2531,13.2938 591.1313,13.1719 Q591.0094,13.0594 590.9438,12.75 Q590.9156,12.5344 590.8031,12.4219 Q590.6062,12.1969 590.2406,12.0656 Q589.875,11.9344 589.5,11.9344 Q589.0406,11.9344 588.6563,12.1313 Q588.2813,12.3281 587.9812,12.7781 Q587.6906,13.2281 587.6906,13.8469 L587.6906,14.5031 Q587.6906,15.2437 588.225,15.7406 Q588.7594,16.2281 589.7156,16.2281 Q590.2781,16.2281 590.6719,16.0781 Q590.9063,15.9844 591.1594,15.7219 Q591.3188,15.5625 591.4031,15.5156 Q591.4969,15.4688 591.6188,15.4688 Q591.8156,15.4688 591.9656,15.6281 Q592.125,15.7781 592.125,15.9844 Q592.125,16.1906 591.9187,16.4344 Q591.6188,16.7813 591.1406,16.9781 Q590.4938,17.25 589.7156,17.25 Q588.8063,17.25 588.0844,16.875 Q587.4938,16.575 587.0813,15.9375 Q586.6687,15.2906 586.6687,14.5219 L586.6687,13.8281 Q586.6687,13.0313 587.0344,12.3469 Q587.4094,11.6531 588.0656,11.2875 Q588.7219,10.9125 589.4625,10.9125 Q589.9031,10.9125 590.2875,11.0156 Q590.6813,11.1094 591.0094,11.325 Z " fill="#000000"/><text fill="#000000" font-family="sans-serif" font-size="8.4" lengthAdjust="spacing" textLength="47.4" x="601.65" y="17.2781">Repositories</text><line style="stroke:#181818;stroke-width:0.3;" x1="558" x2="673.2" y1="23.4" y2="23.4"/><line style="stroke:#181818;stroke-width:0.3;" x1="558" x2="673.2" y1="28.2" y2="28.2"/><text fill="#000000" font-family="sans-serif" font-size="8.4" lengthAdjust="spacing" textLength="56.4" x="561" y="39.6645">-Repositories()</text><text fill="#000000" font-family="sans-serif" font-size="8.4" lengthAdjust="spacing" textLength="109.2" x="561" y="50.8371">+getInstance() : Repositories</text><text fill="#000000" font-family="sans-serif" font-size="8.4" lengthAdjust="spacing" textLength="79.2" x="561" y="62.0098">+getItemRepository()</text><text fill="#000000" font-family="sans-serif" font-size="8.4" lengthAdjust="spacing" textLength="95.4" x="561" y="73.1824">+getMachineRepository()</text><text fill="#000000" font-family="sans-serif" font-size="8.4" lengthAdjust="spacing" textLength="101.4" x="561" y="84.3551">+getOperationRepository()</text></g><!--class SimulatorController--><g id="elem_SimulatorController"><rect codeLine="45" fill="#F1F1F1" height="73.4906" id="SimulatorController" rx="1.5" ry="1.5" style="stroke:#181818;stroke-width:0.3;" width="304.2" x="188.7" y="9.9"/><ellipse cx="301.95" cy="19.5" fill="#ADD1B2" rx="6.6" ry="6.6" style="stroke:#181818;stroke-width:0.6;"/><path d="M303.6094,17.025 Q303.7031,16.8938 303.8156,16.8281 Q303.9281,16.7625 304.0594,16.7625 Q304.2844,16.7625 304.425,16.9219 Q304.5656,17.0719 304.5656,17.4375 L304.5656,18.3094 Q304.5656,18.675 304.425,18.8344 Q304.2844,18.9938 304.0594,18.9938 Q303.8531,18.9938 303.7313,18.8719 Q303.6094,18.7594 303.5438,18.45 Q303.5156,18.2344 303.4031,18.1219 Q303.2063,17.8969 302.8406,17.7656 Q302.475,17.6344 302.1,17.6344 Q301.6406,17.6344 301.2562,17.8313 Q300.8812,18.0281 300.5813,18.4781 Q300.2906,18.9281 300.2906,19.5469 L300.2906,20.2031 Q300.2906,20.9437 300.825,21.4406 Q301.3594,21.9281 302.3156,21.9281 Q302.8781,21.9281 303.2719,21.7781 Q303.5062,21.6844 303.7594,21.4219 Q303.9188,21.2625 304.0031,21.2156 Q304.0969,21.1688 304.2188,21.1688 Q304.4156,21.1688 304.5656,21.3281 Q304.725,21.4781 304.725,21.6844 Q304.725,21.8906 304.5188,22.1344 Q304.2188,22.4813 303.7406,22.6781 Q303.0938,22.95 302.3156,22.95 Q301.4063,22.95 300.6844,22.575 Q300.0938,22.275 299.6813,21.6375 Q299.2688,20.9906 299.2688,20.2219 L299.2688,19.5281 Q299.2688,18.7313 299.6344,18.0469 Q300.0094,17.3531 300.6656,16.9875 Q301.3219,16.6125 302.0625,16.6125 Q302.5031,16.6125 302.8875,16.7156 Q303.2813,16.8094 303.6094,17.025 Z " fill="#000000"/><text fill="#000000" font-family="sans-serif" font-size="8.4" lengthAdjust="spacing" textLength="72.6" x="314.25" y="22.9781">SimulatorController</text><line style="stroke:#181818;stroke-width:0.3;" x1="189.3" x2="492.3" y1="29.1" y2="29.1"/><line style="stroke:#181818;stroke-width:0.3;" x1="189.3" x2="492.3" y1="33.9" y2="33.9"/><text fill="#000000" font-family="sans-serif" font-size="8.4" lengthAdjust="spacing" textLength="83.4" x="192.3" y="45.3645">+SimulatorController()</text><text fill="#000000" font-family="sans-serif" font-size="8.4" lengthAdjust="spacing" textLength="297" x="192.3" y="56.5371">+startSimulationWithOutPriority(Map&lt;Operation, Queue&lt;Machine&gt;&gt; machines,</text><text fill="#000000" font-family="sans-serif" font-size="8.4" lengthAdjust="spacing" textLength="252" x="192.3" y="67.7098">List&lt;Item&gt; items, List&lt;Operation&gt; operations, boolean priorityFlag)</text><text fill="#000000" font-family="sans-serif" font-size="8.4" lengthAdjust="spacing" textLength="73.2" x="192.3" y="78.8824">-getMachinesMap()</text></g><!--class Simulator--><g id="elem_Simulator"><rect codeLine="52" fill="#F1F1F1" height="118.1812" id="Simulator" rx="1.5" ry="1.5" style="stroke:#181818;stroke-width:0.3;" width="101.4" x="255.3" y="234.6"/><ellipse cx="285.75" cy="244.2" fill="#ADD1B2" rx="6.6" ry="6.6" style="stroke:#181818;stroke-width:0.6;"/><path d="M287.4094,241.725 Q287.5031,241.5938 287.6156,241.5281 Q287.7281,241.4625 287.8594,241.4625 Q288.0844,241.4625 288.225,241.6219 Q288.3656,241.7719 288.3656,242.1375 L288.3656,243.0094 Q288.3656,243.375 288.225,243.5344 Q288.0844,243.6938 287.8594,243.6938 Q287.6531,243.6938 287.5313,243.5719 Q287.4094,243.4594 287.3438,243.15 Q287.3156,242.9344 287.2031,242.8219 Q287.0062,242.5969 286.6406,242.4656 Q286.275,242.3344 285.9,242.3344 Q285.4406,242.3344 285.0563,242.5313 Q284.6813,242.7281 284.3812,243.1781 Q284.0906,243.6281 284.0906,244.2469 L284.0906,244.9031 Q284.0906,245.6437 284.625,246.1406 Q285.1594,246.6281 286.1156,246.6281 Q286.6781,246.6281 287.0719,246.4781 Q287.3063,246.3844 287.5594,246.1219 Q287.7188,245.9625 287.8031,245.9156 Q287.8969,245.8687 288.0188,245.8687 Q288.2156,245.8687 288.3656,246.0281 Q288.525,246.1781 288.525,246.3844 Q288.525,246.5906 288.3187,246.8344 Q288.0188,247.1812 287.5406,247.3781 Q286.8938,247.65 286.1156,247.65 Q285.2063,247.65 284.4844,247.275 Q283.8938,246.975 283.4813,246.3375 Q283.0687,245.6906 283.0687,244.9219 L283.0687,244.2281 Q283.0687,243.4312 283.4344,242.7469 Q283.8094,242.0531 284.4656,241.6875 Q285.1219,241.3125 285.8625,241.3125 Q286.3031,241.3125 286.6875,241.4156 Q287.0813,241.5094 287.4094,241.725 Z " fill="#000000"/><text fill="#000000" font-family="sans-serif" font-size="8.4" lengthAdjust="spacing" textLength="35.4" x="298.05" y="247.6781">Simulator</text><line style="stroke:#181818;stroke-width:0.3;" x1="255.9" x2="356.1" y1="253.8" y2="253.8"/><text fill="#000000" font-family="sans-serif" font-size="8.4" lengthAdjust="spacing" textLength="28.8" x="258.9" y="265.2645">itemList</text><text fill="#000000" font-family="sans-serif" font-size="8.4" lengthAdjust="spacing" textLength="45" x="258.9" y="276.4371">machineList</text><line style="stroke:#181818;stroke-width:0.3;" x1="255.9" x2="356.1" y1="280.9453" y2="280.9453"/><text fill="#000000" font-family="sans-serif" font-size="8.4" lengthAdjust="spacing" textLength="94.2" x="258.9" y="292.4098">addOperationToQueue()</text><text fill="#000000" font-family="sans-serif" font-size="8.4" lengthAdjust="spacing" textLength="60" x="258.9" y="303.5824">createQueues()</text><text fill="#000000" font-family="sans-serif" font-size="8.4" lengthAdjust="spacing" textLength="68.4" x="258.9" y="314.7551">updateMachines()</text><text fill="#000000" font-family="sans-serif" font-size="8.4" lengthAdjust="spacing" textLength="48.6" x="258.9" y="325.9277">printQueue()</text><text fill="#000000" font-family="sans-serif" font-size="8.4" lengthAdjust="spacing" textLength="78.6" x="258.9" y="337.1004">printMachineStatus()</text><text fill="#000000" font-family="sans-serif" font-size="8.4" lengthAdjust="spacing" textLength="88.2" x="258.9" y="348.273">assignItemToMachine()</text></g><!--class Item--><g id="elem_Item"><rect codeLine="64" fill="#F1F1F1" height="84.6633" id="Item" rx="1.5" ry="1.5" style="stroke:#181818;stroke-width:0.3;" width="136.8" x="138" y="428.1"/><ellipse cx="196.05" cy="437.7" fill="#ADD1B2" rx="6.6" ry="6.6" style="stroke:#181818;stroke-width:0.6;"/><path d="M197.7094,435.225 Q197.8031,435.0938 197.9156,435.0281 Q198.0281,434.9625 198.1594,434.9625 Q198.3844,434.9625 198.525,435.1219 Q198.6656,435.2719 198.6656,435.6375 L198.6656,436.5094 Q198.6656,436.875 198.525,437.0344 Q198.3844,437.1937 198.1594,437.1937 Q197.9531,437.1937 197.8312,437.0719 Q197.7094,436.9594 197.6437,436.65 Q197.6156,436.4344 197.5031,436.3219 Q197.3063,436.0969 196.9406,435.9656 Q196.575,435.8344 196.2,435.8344 Q195.7406,435.8344 195.3563,436.0313 Q194.9813,436.2281 194.6813,436.6781 Q194.3906,437.1281 194.3906,437.7469 L194.3906,438.4031 Q194.3906,439.1438 194.925,439.6406 Q195.4594,440.1281 196.4156,440.1281 Q196.9781,440.1281 197.3719,439.9781 Q197.6063,439.8844 197.8594,439.6219 Q198.0187,439.4625 198.1031,439.4156 Q198.1969,439.3688 198.3188,439.3688 Q198.5156,439.3688 198.6656,439.5281 Q198.825,439.6781 198.825,439.8844 Q198.825,440.0906 198.6188,440.3344 Q198.3188,440.6813 197.8406,440.8781 Q197.1938,441.15 196.4156,441.15 Q195.5063,441.15 194.7844,440.775 Q194.1938,440.475 193.7813,439.8375 Q193.3688,439.1906 193.3688,438.4219 L193.3688,437.7281 Q193.3688,436.9313 193.7344,436.2469 Q194.1094,435.5531 194.7656,435.1875 Q195.4219,434.8125 196.1625,434.8125 Q196.6031,434.8125 196.9875,434.9156 Q197.3813,435.0094 197.7094,435.225 Z " fill="#000000"/><text fill="#000000" font-family="sans-serif" font-size="8.4" lengthAdjust="spacing" textLength="15.6" x="208.35" y="441.1781">Item</text><line style="stroke:#181818;stroke-width:0.3;" x1="138.6" x2="274.2" y1="447.3" y2="447.3"/><text fill="#000000" font-family="sans-serif" font-size="8.4" lengthAdjust="spacing" textLength="38.4" x="141.6" y="458.7645">itemID : ID</text><text fill="#000000" font-family="sans-serif" font-size="8.4" lengthAdjust="spacing" textLength="129.6" x="141.6" y="469.9371">operationList : Qeueu&lt;Operation&gt;</text><text fill="#000000" font-family="sans-serif" font-size="8.4" lengthAdjust="spacing" textLength="107.4" x="141.6" y="481.1098">currentOperation: Operation</text><line style="stroke:#181818;stroke-width:0.3;" x1="138.6" x2="274.2" y1="485.618" y2="485.618"/><text fill="#000000" font-family="sans-serif" font-size="8.4" lengthAdjust="spacing" textLength="72" x="141.6" y="497.0824">getNextOperation()</text><text fill="#000000" font-family="sans-serif" font-size="8.4" lengthAdjust="spacing" textLength="84.6" x="141.6" y="508.2551">getCurrentOperation()</text></g><!--class PriorityEnum--><g id="elem_PriorityEnum"><rect codeLine="72" fill="#F1F1F1" height="62.318" id="PriorityEnum" rx="1.5" ry="1.5" style="stroke:#181818;stroke-width:0.3;" width="67.2" x="317.4" y="439.2"/><ellipse cx="326.4" cy="448.8" fill="#ADD1B2" rx="6.6" ry="6.6" style="stroke:#181818;stroke-width:0.6;"/><path d="M328.0594,446.325 Q328.1531,446.1937 328.2656,446.1281 Q328.3781,446.0625 328.5094,446.0625 Q328.7344,446.0625 328.875,446.2219 Q329.0156,446.3719 329.0156,446.7375 L329.0156,447.6094 Q329.0156,447.975 328.875,448.1344 Q328.7344,448.2938 328.5094,448.2938 Q328.3031,448.2938 328.1813,448.1719 Q328.0594,448.0594 327.9938,447.75 Q327.9656,447.5344 327.8531,447.4219 Q327.6563,447.1969 327.2906,447.0656 Q326.925,446.9344 326.55,446.9344 Q326.0906,446.9344 325.7063,447.1312 Q325.3313,447.3281 325.0313,447.7781 Q324.7406,448.2281 324.7406,448.8469 L324.7406,449.5031 Q324.7406,450.2438 325.275,450.7406 Q325.8094,451.2281 326.7656,451.2281 Q327.3281,451.2281 327.7219,451.0781 Q327.9563,450.9844 328.2094,450.7219 Q328.3688,450.5625 328.4531,450.5156 Q328.5469,450.4688 328.6688,450.4688 Q328.8656,450.4688 329.0156,450.6281 Q329.175,450.7781 329.175,450.9844 Q329.175,451.1906 328.9688,451.4344 Q328.6688,451.7813 328.1906,451.9781 Q327.5438,452.25 326.7656,452.25 Q325.8563,452.25 325.1344,451.875 Q324.5438,451.575 324.1312,450.9375 Q323.7188,450.2906 323.7188,449.5219 L323.7188,448.8281 Q323.7188,448.0313 324.0844,447.3469 Q324.4594,446.6531 325.1156,446.2875 Q325.7719,445.9125 326.5125,445.9125 Q326.9531,445.9125 327.3375,446.0156 Q327.7313,446.1094 328.0594,446.325 Z " fill="#000000"/><text fill="#000000" font-family="sans-serif" font-size="8.4" lengthAdjust="spacing" textLength="48" x="334.8" y="452.2781">PriorityEnum</text><line style="stroke:#181818;stroke-width:0.3;" x1="318" x2="384" y1="458.4" y2="458.4"/><text fill="#000000" font-family="sans-serif" font-size="8.4" lengthAdjust="spacing" textLength="16.2" x="321" y="469.8645">high</text><text fill="#000000" font-family="sans-serif" font-size="8.4" lengthAdjust="spacing" textLength="25.8" x="321" y="481.0371">normal</text><text fill="#000000" font-family="sans-serif" font-size="8.4" lengthAdjust="spacing" textLength="12" x="321" y="492.2098">low</text><line style="stroke:#181818;stroke-width:0.3;" x1="318" x2="384" y1="496.718" y2="496.718"/></g><!--class Operation--><g id="elem_Operation"><rect codeLine="80" fill="#F1F1F1" height="51.1453" id="Operation" rx="1.5" ry="1.5" style="stroke:#181818;stroke-width:0.3;" width="94.2" x="287.7" y="588"/><ellipse cx="313.44" cy="597.6" fill="#ADD1B2" rx="6.6" ry="6.6" style="stroke:#181818;stroke-width:0.6;"/><path d="M315.0994,595.125 Q315.1931,594.9938 315.3056,594.9281 Q315.4181,594.8625 315.5494,594.8625 Q315.7744,594.8625 315.915,595.0219 Q316.0556,595.1719 316.0556,595.5375 L316.0556,596.4094 Q316.0556,596.775 315.915,596.9344 Q315.7744,597.0938 315.5494,597.0938 Q315.3431,597.0938 315.2213,596.9719 Q315.0994,596.8594 315.0338,596.55 Q315.0056,596.3344 314.8931,596.2219 Q314.6962,595.9969 314.3306,595.8656 Q313.965,595.7344 313.59,595.7344 Q313.1306,595.7344 312.7463,595.9313 Q312.3713,596.1281 312.0712,596.5781 Q311.7806,597.0281 311.7806,597.6469 L311.7806,598.3031 Q311.7806,599.0437 312.315,599.5406 Q312.8494,600.0281 313.8056,600.0281 Q314.3681,600.0281 314.7619,599.8781 Q314.9963,599.7844 315.2494,599.5219 Q315.4088,599.3625 315.4931,599.3156 Q315.5869,599.2688 315.7087,599.2688 Q315.9056,599.2688 316.0556,599.4281 Q316.215,599.5781 316.215,599.7844 Q316.215,599.9906 316.0087,600.2344 Q315.7087,600.5813 315.2306,600.7781 Q314.5837,601.05 313.8056,601.05 Q312.8962,601.05 312.1744,600.675 Q311.5837,600.375 311.1713,599.7375 Q310.7587,599.0906 310.7587,598.3219 L310.7587,597.6281 Q310.7587,596.8313 311.1244,596.1469 Q311.4994,595.4531 312.1556,595.0875 Q312.8119,594.7125 313.5525,594.7125 Q313.9931,594.7125 314.3775,594.8156 Q314.7712,594.9094 315.0994,595.125 Z " fill="#000000"/><text fill="#000000" font-family="sans-serif" font-size="8.4" lengthAdjust="spacing" textLength="37.8" x="325.56" y="601.0781">Operation</text><line style="stroke:#181818;stroke-width:0.3;" x1="288.3" x2="381.3" y1="607.2" y2="607.2"/><text fill="#000000" font-family="sans-serif" font-size="8.4" lengthAdjust="spacing" textLength="87" x="291.3" y="618.6645">operationName : String</text><text fill="#000000" font-family="sans-serif" font-size="8.4" lengthAdjust="spacing" textLength="54.6" x="291.3" y="629.8371">duration : float</text><line style="stroke:#181818;stroke-width:0.3;" x1="288.3" x2="381.3" y1="634.3453" y2="634.3453"/></g><!--class Machine--><g id="elem_Machine"><rect codeLine="85" fill="#F1F1F1" height="140.5266" id="Machine" rx="1.5" ry="1.5" style="stroke:#181818;stroke-width:0.3;" width="114.6" x="405.9" y="400.2"/><ellipse cx="444.75" cy="409.8" fill="#ADD1B2" rx="6.6" ry="6.6" style="stroke:#181818;stroke-width:0.6;"/><path d="M446.4094,407.325 Q446.5031,407.1937 446.6156,407.1281 Q446.7281,407.0625 446.8594,407.0625 Q447.0844,407.0625 447.225,407.2219 Q447.3656,407.3719 447.3656,407.7375 L447.3656,408.6094 Q447.3656,408.975 447.225,409.1344 Q447.0844,409.2938 446.8594,409.2938 Q446.6531,409.2938 446.5313,409.1719 Q446.4094,409.0594 446.3438,408.75 Q446.3156,408.5344 446.2031,408.4219 Q446.0062,408.1969 445.6406,408.0656 Q445.275,407.9344 444.9,407.9344 Q444.4406,407.9344 444.0563,408.1312 Q443.6813,408.3281 443.3812,408.7781 Q443.0906,409.2281 443.0906,409.8469 L443.0906,410.5031 Q443.0906,411.2438 443.625,411.7406 Q444.1594,412.2281 445.1156,412.2281 Q445.6781,412.2281 446.0719,412.0781 Q446.3063,411.9844 446.5594,411.7219 Q446.7188,411.5625 446.8031,411.5156 Q446.8969,411.4688 447.0188,411.4688 Q447.2156,411.4688 447.3656,411.6281 Q447.525,411.7781 447.525,411.9844 Q447.525,412.1906 447.3187,412.4344 Q447.0188,412.7813 446.5406,412.9781 Q445.8938,413.25 445.1156,413.25 Q444.2063,413.25 443.4844,412.875 Q442.8938,412.575 442.4813,411.9375 Q442.0687,411.2906 442.0687,410.5219 L442.0687,409.8281 Q442.0687,409.0313 442.4344,408.3469 Q442.8094,407.6531 443.4656,407.2875 Q444.1219,406.9125 444.8625,406.9125 Q445.3031,406.9125 445.6875,407.0156 Q446.0813,407.1094 446.4094,407.325 Z " fill="#000000"/><text fill="#000000" font-family="sans-serif" font-size="8.4" lengthAdjust="spacing" textLength="31.8" x="457.05" y="413.2781">Machine</text><line style="stroke:#181818;stroke-width:0.3;" x1="406.5" x2="519.9" y1="419.4" y2="419.4"/><text fill="#000000" font-family="sans-serif" font-size="8.4" lengthAdjust="spacing" textLength="53.4" x="409.5" y="430.8645">idMachine : ID</text><text fill="#000000" font-family="sans-serif" font-size="8.4" lengthAdjust="spacing" textLength="81" x="409.5" y="442.0371">operation : Operation</text><text fill="#000000" font-family="sans-serif" font-size="8.4" lengthAdjust="spacing" textLength="93.6" x="409.5" y="453.2098">proccessingSpeed : float</text><text fill="#000000" font-family="sans-serif" font-size="8.4" lengthAdjust="spacing" textLength="71.4" x="409.5" y="464.3824">available : boolean</text><text fill="#000000" font-family="sans-serif" font-size="8.4" lengthAdjust="spacing" textLength="84" x="409.5" y="475.5551">timeLeftToFinish: float</text><text fill="#000000" font-family="sans-serif" font-size="8.4" lengthAdjust="spacing" textLength="107.4" x="409.5" y="486.7277">currentProcessingItem : Item</text><line style="stroke:#181818;stroke-width:0.3;" x1="406.5" x2="519.9" y1="491.2359" y2="491.2359"/><text fill="#000000" font-family="sans-serif" font-size="8.4" lengthAdjust="spacing" textLength="85.2" x="409.5" y="502.7004">processItem(Item item)</text><text fill="#000000" font-family="sans-serif" font-size="8.4" lengthAdjust="spacing" textLength="64.2" x="409.5" y="513.873">updateMachine()</text><text fill="#000000" font-family="sans-serif" font-size="8.4" lengthAdjust="spacing" textLength="57" x="409.5" y="525.0457">resetMachine()</text><text fill="#000000" font-family="sans-serif" font-size="8.4" lengthAdjust="spacing" textLength="46.8" x="409.5" y="536.2184">printStatus()</text></g><!--class OperationQueue--><g id="elem_OperationQueue"><rect codeLine="99" fill="#F1F1F1" height="118.1812" id="OperationQueue" rx="1.5" ry="1.5" style="stroke:#181818;stroke-width:0.3;" width="112.8" x="4.2" y="411.3"/><ellipse cx="26.7" cy="420.9" fill="#ADD1B2" rx="6.6" ry="6.6" style="stroke:#181818;stroke-width:0.6;"/><path d="M28.3594,418.425 Q28.4531,418.2938 28.5656,418.2281 Q28.6781,418.1625 28.8094,418.1625 Q29.0344,418.1625 29.175,418.3219 Q29.3156,418.4719 29.3156,418.8375 L29.3156,419.7094 Q29.3156,420.075 29.175,420.2344 Q29.0344,420.3938 28.8094,420.3938 Q28.6031,420.3938 28.4813,420.2719 Q28.3594,420.1594 28.2938,419.85 Q28.2656,419.6344 28.1531,419.5219 Q27.9563,419.2969 27.5906,419.1656 Q27.225,419.0344 26.85,419.0344 Q26.3906,419.0344 26.0062,419.2313 Q25.6312,419.4281 25.3313,419.8781 Q25.0406,420.3281 25.0406,420.9469 L25.0406,421.6031 Q25.0406,422.3438 25.575,422.8406 Q26.1094,423.3281 27.0656,423.3281 Q27.6281,423.3281 28.0219,423.1781 Q28.2562,423.0844 28.5094,422.8219 Q28.6688,422.6625 28.7531,422.6156 Q28.8469,422.5687 28.9688,422.5687 Q29.1656,422.5687 29.3156,422.7281 Q29.475,422.8781 29.475,423.0844 Q29.475,423.2906 29.2687,423.5344 Q28.9688,423.8812 28.4906,424.0781 Q27.8438,424.35 27.0656,424.35 Q26.1563,424.35 25.4344,423.975 Q24.8438,423.675 24.4313,423.0375 Q24.0188,422.3906 24.0188,421.6219 L24.0188,420.9281 Q24.0188,420.1312 24.3844,419.4469 Q24.7594,418.7531 25.4156,418.3875 Q26.0719,418.0125 26.8125,418.0125 Q27.2531,418.0125 27.6375,418.1156 Q28.0313,418.2094 28.3594,418.425 Z " fill="#000000"/><text fill="#000000" font-family="sans-serif" font-size="8.4" lengthAdjust="spacing" textLength="63.6" x="38.1" y="424.3781">OperationQueue</text><line style="stroke:#181818;stroke-width:0.3;" x1="4.8" x2="116.4" y1="430.5" y2="430.5"/><text fill="#000000" font-family="sans-serif" font-size="8.4" lengthAdjust="spacing" textLength="81" x="7.8" y="441.9645">operation : Operation</text><text fill="#000000" font-family="sans-serif" font-size="8.4" lengthAdjust="spacing" textLength="87" x="7.8" y="453.1371">itemList : Queue&lt;Item&gt;</text><text fill="#000000" font-family="sans-serif" font-size="8.4" lengthAdjust="spacing" textLength="63.6" x="7.8" y="464.3098">priority : boolean</text><line style="stroke:#181818;stroke-width:0.3;" x1="4.8" x2="116.4" y1="468.818" y2="468.818"/><text fill="#000000" font-family="sans-serif" font-size="8.4" lengthAdjust="spacing" textLength="55.8" x="7.8" y="480.2824">getOperation()</text><text fill="#000000" font-family="sans-serif" font-size="8.4" lengthAdjust="spacing" textLength="105.6" x="7.8" y="491.4551">addItemToQueue(Item item)</text><text fill="#000000" font-family="sans-serif" font-size="8.4" lengthAdjust="spacing" textLength="99.6" x="7.8" y="502.6277">checkOperation(Item item)</text><text fill="#000000" font-family="sans-serif" font-size="8.4" lengthAdjust="spacing" textLength="49.8" x="7.8" y="513.8004">getNextItem()</text><text fill="#000000" font-family="sans-serif" font-size="8.4" lengthAdjust="spacing" textLength="35.4" x="7.8" y="524.973">isEmpty()</text></g><!--class SimulatorUI--><g id="elem_SimulatorUI"><rect codeLine="112" fill="#F1F1F1" height="28.8" id="SimulatorUI" rx="1.5" ry="1.5" style="stroke:#181818;stroke-width:0.3;" width="61.8" x="105.9" y="32.1"/><ellipse cx="114.9" cy="41.7" fill="#ADD1B2" rx="6.6" ry="6.6" style="stroke:#181818;stroke-width:0.6;"/><path d="M116.5594,39.225 Q116.6531,39.0938 116.7656,39.0281 Q116.8781,38.9625 117.0094,38.9625 Q117.2344,38.9625 117.375,39.1219 Q117.5156,39.2719 117.5156,39.6375 L117.5156,40.5094 Q117.5156,40.875 117.375,41.0344 Q117.2344,41.1938 117.0094,41.1938 Q116.8031,41.1938 116.6812,41.0719 Q116.5594,40.9594 116.4937,40.65 Q116.4656,40.4344 116.3531,40.3219 Q116.1563,40.0969 115.7906,39.9656 Q115.425,39.8344 115.05,39.8344 Q114.5906,39.8344 114.2063,40.0313 Q113.8313,40.2281 113.5313,40.6781 Q113.2406,41.1281 113.2406,41.7469 L113.2406,42.4031 Q113.2406,43.1438 113.775,43.6406 Q114.3094,44.1281 115.2656,44.1281 Q115.8281,44.1281 116.2219,43.9781 Q116.4563,43.8844 116.7094,43.6219 Q116.8687,43.4625 116.9531,43.4156 Q117.0469,43.3688 117.1687,43.3688 Q117.3656,43.3688 117.5156,43.5281 Q117.675,43.6781 117.675,43.8844 Q117.675,44.0906 117.4688,44.3344 Q117.1687,44.6813 116.6906,44.8781 Q116.0437,45.15 115.2656,45.15 Q114.3563,45.15 113.6344,44.775 Q113.0438,44.475 112.6313,43.8375 Q112.2188,43.1906 112.2188,42.4219 L112.2188,41.7281 Q112.2188,40.9313 112.5844,40.2469 Q112.9594,39.5531 113.6156,39.1875 Q114.2719,38.8125 115.0125,38.8125 Q115.4531,38.8125 115.8375,38.9156 Q116.2312,39.0094 116.5594,39.225 Z " fill="#000000"/><text fill="#000000" font-family="sans-serif" font-size="8.4" lengthAdjust="spacing" textLength="42.6" x="123.3" y="45.1781">SimulatorUI</text><line style="stroke:#181818;stroke-width:0.3;" x1="106.5" x2="167.1" y1="51.3" y2="51.3"/><line style="stroke:#181818;stroke-width:0.3;" x1="106.5" x2="167.1" y1="56.1" y2="56.1"/></g><!--link Repositories to Repositories--><g id="link_Repositories_Repositories"><path codeLine="115" d="M673.968,34.56 C686.088,35.814 694.8,39.798 694.8,46.5 C694.8,53.202 689.6689,56.8155 677.5489,58.0695 " fill="none" id="Repositories-to-Repositories" style="stroke:#181818;stroke-width:0.6;"/><polygon fill="#181818" points="673.968,58.44,679.5863,60.2715,676.9521,58.1313,679.0923,55.497,673.968,58.44" style="stroke:#181818;stroke-width:0.6;"/><text fill="#000000" font-family="sans-serif" font-size="7.8" lengthAdjust="spacing" textLength="29.4" x="698.4" y="49.817">instance</text></g><!--link ApplicationSession to ApplicationSession--><g id="link_ApplicationSession_ApplicationSession"><path codeLine="116" d="M173.796,152.562 C185.7,153.102 194.7,156.15 194.7,161.7 C194.7,167.25 189.2963,170.1349 177.3923,170.6749 " fill="none" id="ApplicationSession-to-ApplicationSession" style="stroke:#181818;stroke-width:0.6;"/><polygon fill="#181818" points="173.796,170.838,179.2992,172.9908,176.7929,170.7021,179.0817,168.1958,173.796,170.838" style="stroke:#181818;stroke-width:0.6;"/><text fill="#000000" font-family="sans-serif" font-size="7.8" lengthAdjust="spacing" textLength="29.4" x="198.3" y="165.017">instance</text></g><!--link SimulatorUI to SimulatorController--><g id="link_SimulatorUI_SimulatorController"><path codeLine="118" d="M167.814,46.5 C175.032,46.5 178.83,46.5 185.094,46.5 " fill="none" id="SimulatorUI-to-SimulatorController" style="stroke:#181818;stroke-width:0.6;stroke-dasharray:7.0,7.0;"/><polygon fill="#181818" points="188.694,46.5,183.294,44.1,185.694,46.5,183.294,48.9,188.694,46.5" style="stroke:#181818;stroke-width:0.6;"/></g><!--link SimulatorController to Repositories--><g id="link_SimulatorController_Repositories"><path codeLine="120" d="M493.068,46.5 C515.916,46.5 534.606,46.5 553.776,46.5 " fill="none" id="SimulatorController-to-Repositories" style="stroke:#181818;stroke-width:0.6;stroke-dasharray:7.0,7.0;"/><polygon fill="#181818" points="557.376,46.5,551.976,44.1,554.376,46.5,551.976,48.9,557.376,46.5" style="stroke:#181818;stroke-width:0.6;"/><text fill="#000000" font-family="sans-serif" font-size="7.8" lengthAdjust="spacing" textLength="40.2" x="505.05" y="42.317">repositories</text></g><!--link Repositories to ItemRepository--><g id="link_Repositories_ItemRepository"><path codeLine="122" d="M557.352,80.844 C523.236,100.602 484.4651,123.0616 455.7311,139.7056 " fill="none" id="Repositories-to-ItemRepository" style="stroke:#181818;stroke-width:0.6;"/><polygon fill="#181818" points="452.616,141.51,458.4916,140.8801,455.2119,140.0063,456.0858,136.7266,452.616,141.51" style="stroke:#181818;stroke-width:0.6;"/><text fill="#000000" font-family="sans-serif" font-size="7.8" lengthAdjust="spacing" textLength="4.2" x="454.6601" y="134.7876">1</text></g><!--link Repositories to OperationRepository--><g id="link_Repositories_OperationRepository"><path codeLine="123" d="M625.68,88.89 C628.098,98.922 630,106.8 630,106.8 C630,106.8 633.6259,122.4333 637.2379,137.9913 " fill="none" id="Repositories-to-OperationRepository" style="stroke:#181818;stroke-width:0.6;"/><polygon fill="#181818" points="638.052,141.498,639.1686,135.6951,637.3736,138.5757,634.493,136.7807,638.052,141.498" style="stroke:#181818;stroke-width:0.6;"/><text fill="#000000" font-family="sans-serif" font-size="7.8" lengthAdjust="spacing" textLength="4.2" x="632.5432" y="134.7732">1</text></g><!--link SimulatorController to MachineRepository--><g id="link_SimulatorController_MachineRepository"><path codeLine="125" d="M391.782,83.274 C416.532,100.842 441,118.2 441,118.2 C441,118.2 461.4893,128.5898 483.8033,139.9058 " fill="none" id="SimulatorController-to-MachineRepository" style="stroke:#181818;stroke-width:0.6;stroke-dasharray:7.0,7.0;"/><polygon fill="#181818" points="487.014,141.534,483.2834,136.9511,484.3384,140.1771,481.1124,141.2321,487.014,141.534" style="stroke:#181818;stroke-width:0.6;"/><text fill="#000000" font-family="sans-serif" font-size="7.8" lengthAdjust="spacing" textLength="66.6" x="441.6" y="115.817">machineRepository</text></g><!--link SimulatorController to ItemRepository--><g id="link_SimulatorController_ItemRepository"><path codeLine="126" d="M339.714,83.202 C339.33,95.778 339,106.8 339,106.8 C339,106.8 339,118.2 339,118.2 C339,118.2 358.1852,128.5133 379.2332,139.8293 " fill="none" id="SimulatorController-to-ItemRepository" style="stroke:#181818;stroke-width:0.6;stroke-dasharray:7.0,7.0;"/><polygon fill="#181818" points="382.404,141.534,378.7843,136.8631,379.7617,140.1134,376.5113,141.0908,382.404,141.534" style="stroke:#181818;stroke-width:0.6;"/><text fill="#000000" font-family="sans-serif" font-size="7.8" lengthAdjust="spacing" textLength="52.2" x="339.6" y="115.817">itemRepository</text></g><!--link SimulatorController to OperationRepository--><g id="link_SimulatorController_OperationRepository"><path codeLine="127" d="M443.61,83.118 C479.598,95.73 511.2,106.8 511.2,106.8 C511.2,106.8 554.3489,124.631 592.0229,140.201 " fill="none" id="SimulatorController-to-OperationRepository" style="stroke:#181818;stroke-width:0.6;stroke-dasharray:7.0,7.0;"/><polygon fill="#181818" points="595.35,141.576,591.2761,137.2954,592.5774,140.4302,589.4427,141.7315,595.35,141.576" style="stroke:#181818;stroke-width:0.6;"/><text fill="#000000" font-family="sans-serif" font-size="7.8" lengthAdjust="spacing" textLength="69" x="536.4" y="115.817">operationRepository</text></g><!--link Repositories to MachineRepository--><g id="link_Repositories_MachineRepository"><path codeLine="129" d="M609.606,88.872 C607.386,104.346 605.4,118.2 605.4,118.2 C605.4,118.2 586.2148,128.5133 565.1668,139.8293 " fill="none" id="Repositories-to-MachineRepository" style="stroke:#181818;stroke-width:0.6;"/><polygon fill="#181818" points="561.996,141.534,567.8887,141.0908,564.6383,140.1134,565.6157,136.8631,561.996,141.534" style="stroke:#181818;stroke-width:0.6;"/><text fill="#000000" font-family="sans-serif" font-size="7.8" lengthAdjust="spacing" textLength="4.2" x="564.548" y="134.8163">1</text></g><!--link ApplicationSession to UserSession--><g id="link_ApplicationSession_UserSession"><path codeLine="131" d="M138.456,187.212 C148.566,212.262 162.608,247.0479 171.902,270.0639 " fill="none" id="ApplicationSession-to-UserSession" style="stroke:#181818;stroke-width:0.6;"/><polygon fill="#181818" points="173.25,273.402,173.4535,267.4962,172.1267,270.6202,169.0027,269.2935,173.25,273.402" style="stroke:#181818;stroke-width:0.6;"/><text fill="#000000" font-family="sans-serif" font-size="7.8" lengthAdjust="spacing" textLength="43.2" x="151.2" y="214.217">userSession</text><text fill="#000000" font-family="sans-serif" font-size="7.8" lengthAdjust="spacing" textLength="4.2" x="167.1342" y="266.8158">1</text></g><!--link SimulatorController to ApplicationSession--><g id="link_SimulatorController_ApplicationSession"><path codeLine="133" d="M273.594,83.172 C241.026,100.65 205.942,119.4795 176.878,135.0795 " fill="none" id="SimulatorController-to-ApplicationSession" style="stroke:#181818;stroke-width:0.6;stroke-dasharray:7.0,7.0;"/><polygon fill="#181818" points="173.706,136.782,179.599,136.3428,176.3493,135.3632,177.3289,132.1135,173.706,136.782" style="stroke:#181818;stroke-width:0.6;"/></g><!--link SimulatorController to UserSession--><g id="link_SimulatorController_UserSession"><path codeLine="134" d="M317.424,83.136 C283.224,135.846 222.6755,229.174 195.8915,270.454 " fill="none" id="SimulatorController-to-UserSession" style="stroke:#181818;stroke-width:0.6;stroke-dasharray:7.0,7.0;"/><polygon fill="#181818" points="193.932,273.474,198.8846,270.2503,195.5649,270.9573,194.8579,267.6377,193.932,273.474" style="stroke:#181818;stroke-width:0.6;"/></g><!--link SimulatorController to Simulator--><g id="link_SimulatorController_Simulator"><path codeLine="137" d="M331.038,83.34 C324.396,108.006 316.8,136.2 316.8,136.2 C316.8,136.2 313.3511,186.2965 310.2851,230.8645 " fill="none" id="SimulatorController-to-Simulator" style="stroke:#181818;stroke-width:0.6;"/><polygon fill="#181818" points="310.038,234.456,312.803,229.2334,310.2439,231.4631,308.0143,228.904,310.038,234.456" style="stroke:#181818;stroke-width:0.6;"/><text fill="#000000" font-family="sans-serif" font-size="7.8" lengthAdjust="spacing" textLength="52.2" x="317.4" y="165.017">startSimulation</text></g><!--link Item to Operation--><g id="link_Item_Operation"><path codeLine="138" d="M244.23,512.808 C266.274,537.168 290.9246,564.4086 309.6986,585.1566 " fill="none" id="Item-to-Operation" style="stroke:#181818;stroke-width:0.6;"/><polygon fill="#181818" points="312.114,587.826,310.2705,582.2116,310.1011,585.6015,306.7113,585.4322,312.114,587.826" style="stroke:#181818;stroke-width:0.6;"/><polygon fill="#000000" points="298.4129,566.6118,296.079,561.4045,293.464,563.7708,298.4129,566.6118" style="stroke:#000000;stroke-width:0.6;"/><text fill="#000000" font-family="sans-serif" font-size="7.8" lengthAdjust="spacing" textLength="12.6" x="301.8" y="567.617">has</text><text fill="#000000" font-family="sans-serif" font-size="7.8" lengthAdjust="spacing" textLength="4.2" x="243.5472" y="525.907">1</text><text fill="#000000" font-family="sans-serif" font-size="7.8" lengthAdjust="spacing" textLength="3" x="305.4105" y="581.333">*</text></g><!--link Machine to Operation--><g id="link_Machine_Operation"><path codeLine="139" d="M405.762,534.48 C388.668,553.368 373.3414,570.3066 359.8774,585.1866 " fill="none" id="Machine-to-Operation" style="stroke:#181818;stroke-width:0.6;"/><polygon fill="#181818" points="357.462,587.856,362.8647,585.4621,359.4748,585.6315,359.3055,582.2416,357.462,587.856" style="stroke:#181818;stroke-width:0.6;"/><polygon fill="#000000" points="384.9871,566.6118,389.936,563.7708,387.321,561.4045,384.9871,566.6118" style="stroke:#000000;stroke-width:0.6;"/><text fill="#000000" font-family="sans-serif" font-size="7.8" lengthAdjust="spacing" textLength="27.6" x="392.4" y="567.617">execute</text></g><!--link Item to PriorityEnum--><g id="link_Item_PriorityEnum"><path codeLine="140" d="M274.89,470.4 C289.632,470.4 300.99,470.4 313.698,470.4 " fill="none" id="Item-to-PriorityEnum" style="stroke:#181818;stroke-width:0.6;"/><polygon fill="#181818" points="317.298,470.4,311.898,468,314.298,470.4,311.898,472.8,317.298,470.4" style="stroke:#181818;stroke-width:0.6;"/><polygon fill="#000000" points="291.3,462.9873,285.8729,461.2239,285.8729,464.7507,291.3,462.9873" style="stroke:#000000;stroke-width:0.6;"/><text fill="#000000" font-family="sans-serif" font-size="7.8" lengthAdjust="spacing" textLength="12.6" x="293.7" y="466.217">has</text><text fill="#000000" font-family="sans-serif" font-size="7.8" lengthAdjust="spacing" textLength="4.2" x="279.6328" y="468.2781">1</text><text fill="#000000" font-family="sans-serif" font-size="7.8" lengthAdjust="spacing" textLength="4.2" x="308.5109" y="467.98">1</text></g><!--link Simulator to OperationQueue--><g id="link_Simulator_OperationQueue"><path codeLine="141" d="M255.084,331.35 C239.124,342.96 225.6,352.8 225.6,352.8 C225.6,352.8 127.2,400.2 127.2,400.2 C127.2,400.2 125.4583,402.0144 119.1343,408.6264 " fill="none" id="Simulator-to-OperationQueue" style="stroke:#181818;stroke-width:0.6;"/><polygon fill="#181818" points="116.646,411.228,122.1129,408.9844,118.7196,409.06,118.644,405.6667,116.646,411.228" style="stroke:#181818;stroke-width:0.6;"/><polygon fill="#000000" points="188.7919,378.0698,194.3814,376.9209,192.6386,373.8549,188.7919,378.0698" style="stroke:#000000;stroke-width:0.6;"/><text fill="#000000" font-family="sans-serif" font-size="7.8" lengthAdjust="spacing" textLength="12.6" x="196.8" y="379.817">has</text><text fill="#000000" font-family="sans-serif" font-size="7.8" lengthAdjust="spacing" textLength="4.2" x="246.3279" y="332.3726">1</text><text fill="#000000" font-family="sans-serif" font-size="7.8" lengthAdjust="spacing" textLength="4.2" x="116.5762" y="404.5316">1</text></g><!--link Simulator to Machine--><g id="link_Simulator_Machine"><path codeLine="142" d="M356.82,351.036 C372.474,368.514 387.4118,385.1887 403.4738,403.1167 " fill="none" id="Simulator-to-Machine" style="stroke:#181818;stroke-width:0.6;"/><polygon fill="#181818" points="405.876,405.798,404.0602,400.1746,403.8742,403.5636,400.4851,403.3775,405.876,405.798" style="stroke:#181818;stroke-width:0.6;"/><polygon fill="#000000" points="389.6017,378.8219,387.294,373.6029,384.6672,375.9561,389.6017,378.8219" style="stroke:#000000;stroke-width:0.6;"/><text fill="#000000" font-family="sans-serif" font-size="7.8" lengthAdjust="spacing" textLength="12.6" x="393" y="379.817">has</text><text fill="#000000" font-family="sans-serif" font-size="7.8" lengthAdjust="spacing" textLength="4.2" x="361.5332" y="353.9139">1</text><text fill="#000000" font-family="sans-serif" font-size="7.8" lengthAdjust="spacing" textLength="12" x="389.0278" y="398.6803">1..*</text></g><!--link OperationQueue to Item--><g id="link_OperationQueue_Item"><path codeLine="143" d="M117.006,470.4 C122.646,470.4 126.918,470.4 134.25,470.4 " fill="none" id="OperationQueue-to-Item" style="stroke:#181818;stroke-width:0.6;"/><polygon fill="#181818" points="137.85,470.4,132.45,468,134.85,470.4,132.45,472.8,137.85,470.4" style="stroke:#181818;stroke-width:0.6;"/><text fill="#000000" font-family="sans-serif" font-size="7.8" lengthAdjust="spacing" textLength="4.2" x="121.851" y="468.2027">1</text><text fill="#000000" font-family="sans-serif" font-size="7.8" lengthAdjust="spacing" textLength="12" x="121.8283" y="468.2681">1..*</text></g><!--SRC=[ZLP9RzmW5BxxLw1SidGoQgzMP2dA8esKjPEePsA_s2WOBC1Dfb7_UnyOOyR3j9t3oBprUoiSwZScEgfeIrefPDaesG8ngeTiudIqVACrhCs60r5G6Yfg7WleXbRodOcQl5AkOmvd0ioc0z99lh67x331bCh8BD8gETNwt1Z5Nde3grAADVi5v6kM7N9uDSH8ebZT658n2uT9aMLEXvnt7MSbjQGrQ6qvdnd1tnUY3P9BKeDP2VmM9HmTUnRIBdgbG1YlX9pVeybd3Mfk2nKi-QgbZ0-osIY-Cj1-XqvgPgJQa4Z3ScwODh7nMresc8MqWcVETUuxK2x2j5PWwrWfo3BGNlfqYnWdOqeGoRU4jeEP_CVAEo75p0Js6EMQjJsdIBsGmYZ9EQWGMe8NB2DSPRm06l_1J7FVcmV54BNP7DtIxYnuNf377deuypYBWhJ3bruuQpRTPpQyWZ3yruk14lGB8aE65-H5IWvKaCxxkkQqFlRfdPAX4K4oJXyTywtX3krKTdUcLHMSFqa7tWTUAg0676MiNzzLI1hTUYA24oPMT0GljCQvw4T91CTgOQD_afxl-tlgxWZpwX8RP7NfpY4h5ZYI7z5T7wLjG3oCMQ3cKpSxFgRi3ZucleSr3MZC2UaS2tqb-dO0r-1wS1z2gfPozydb-p2fip7oyGJyTnHNO4xMk7v4xLXLxoLpyiebDJlpwpDI-MCYAMGUQQTaMTgr8kfr1r05swuCFt6nq1TkBVaEStJ3MhZ13VWahvbWkebrV6eVqEvWrjKgToKB7f5ZpqUEPokOw1gVSmKwz6_SDg5V4Xl9zTZdFo8VcztsY9j4DsoZ0rV8MTZnuXWRjQg6BXtQUXPFsK3vDgdCkBx9N2862jDNRMSsFgZva3wli4MGlhL3JuljdPeJvhTcjdi9MUa4DTB9Oc_B8hNj8fbeFIvtSAXuOU-0FlXsCBkZPY9U9h6fzm101BlNM3wkiKXzd_RioinTgVv3BtKHvbFZnS2J8UwWpfAbyzBHEm2zzD6hO2_0n6jadsZyoaWRFBL0feiZdrzwcUjoYzGXFebAYC8DrQJ8nlra9Q8T31zGuaCB1IORGz3nPWrM9X31MzmmRYB_9hjSdeJa1wFRwXC69-ns6Fx-0000]--></g></svg>