<svg xmlns="http://www.w3.org/2000/svg" xmlns:xlink="http://www.w3.org/1999/xlink" contentStyleType="text/css" height="430.4px" preserveAspectRatio="none" style="width:1793px;height:430px;background:#FFFFFF;" version="1.1" viewBox="0 0 1793 430" width="1793.6px" zoomAndPan="magnify"><defs/><g><!--class ItemRepository--><g id="elem_ItemRepository"><rect codeLine="12" fill="#F1F1F1" height="103.1813" id="ItemRepository" rx="4" ry="4" style="stroke:#181818;stroke-width:0.8000000000000002;" width="214.825" x="966.4" y="316.72"/><ellipse cx="990.4" cy="342.32" fill="#ADD1B2" rx="17.6" ry="17.6" style="stroke:#181818;stroke-width:1.6000000000000003;"/><path d="M995.157,351.3489 Q994.2273,351.827 993.2047,352.0661 Q992.182,352.3052 991.0531,352.3052 Q987.0422,352.3052 984.9305,349.6622 Q982.8188,347.0192 982.8188,342.0255 Q982.8188,337.0184 984.9305,334.3755 Q987.0422,331.7325 991.0531,331.7325 Q992.182,331.7325 993.218,331.9716 Q994.2539,332.2106 995.157,332.6888 L995.157,337.045 Q994.1477,336.1153 993.198,335.6837 Q992.2484,335.252 991.2391,335.252 Q989.0875,335.252 987.9918,336.9587 Q986.8961,338.6653 986.8961,342.0255 Q986.8961,345.3723 987.9918,347.079 Q989.0875,348.7856 991.2391,348.7856 Q992.2484,348.7856 993.198,348.354 Q994.1477,347.9223 995.157,346.9927 Z " fill="#000000"/><text fill="#000000" font-family="sans-serif" font-size="22.4" lengthAdjust="spacing" textLength="163.625" x="1012.8" y="350.7856">ItemRepository</text><line style="stroke:#181818;stroke-width:0.8000000000000002;" x1="968" x2="1179.625" y1="367.92" y2="367.92"/><line style="stroke:#181818;stroke-width:0.8000000000000002;" x1="968" x2="1179.625" y1="380.72" y2="380.72"/><text fill="#000000" font-family="sans-serif" font-size="22.4" lengthAdjust="spacing" textLength="156.5266" x="976" y="408.7763">-fillInventory()</text></g><!--class MachineRepository--><g id="elem_MachineRepository"><rect codeLine="16" fill="#F1F1F1" height="103.1813" id="MachineRepository" rx="4" ry="4" style="stroke:#181818;stroke-width:0.8000000000000002;" width="256.4969" x="1299.152" y="316.72"/><ellipse cx="1323.152" cy="342.32" fill="#ADD1B2" rx="17.6" ry="17.6" style="stroke:#181818;stroke-width:1.6000000000000003;"/><path d="M1327.909,351.3489 Q1326.9793,351.827 1325.9567,352.0661 Q1324.934,352.3052 1323.8051,352.3052 Q1319.7942,352.3052 1317.6825,349.6622 Q1315.5708,347.0192 1315.5708,342.0255 Q1315.5708,337.0184 1317.6825,334.3755 Q1319.7942,331.7325 1323.8051,331.7325 Q1324.934,331.7325 1325.97,331.9716 Q1327.0059,332.2106 1327.909,332.6888 L1327.909,337.045 Q1326.8997,336.1153 1325.95,335.6837 Q1325.0004,335.252 1323.9911,335.252 Q1321.8395,335.252 1320.7438,336.9587 Q1319.6481,338.6653 1319.6481,342.0255 Q1319.6481,345.3723 1320.7438,347.079 Q1321.8395,348.7856 1323.9911,348.7856 Q1325.0004,348.7856 1325.95,348.354 Q1326.8997,347.9223 1327.909,346.9927 Z " fill="#000000"/><text fill="#000000" font-family="sans-serif" font-size="22.4" lengthAdjust="spacing" textLength="205.2969" x="1345.552" y="350.7856">MachineRepository</text><line style="stroke:#181818;stroke-width:0.8000000000000002;" x1="1300.752" x2="1554.0489" y1="367.92" y2="367.92"/><line style="stroke:#181818;stroke-width:0.8000000000000002;" x1="1300.752" x2="1554.0489" y1="380.72" y2="380.72"/><text fill="#000000" font-family="sans-serif" font-size="22.4" lengthAdjust="spacing" textLength="165.9547" x="1308.752" y="408.7763">-fillMachinery()</text></g><!--class Repositories--><g id="elem_Repositories"><rect codeLine="20" fill="#F1F1F1" height="182.325" id="Repositories" rx="4" ry="4" style="stroke:#181818;stroke-width:0.8000000000000002;" width="332.1109" x="1291.744" y="11.2"/><ellipse cx="1383.9635" cy="36.8" fill="#ADD1B2" rx="17.6" ry="17.6" style="stroke:#181818;stroke-width:1.6000000000000003;"/><path d="M1388.7206,45.8289 Q1387.7909,46.307 1386.7682,46.5461 Q1385.7456,46.7852 1384.6167,46.7852 Q1380.6057,46.7852 1378.494,44.1422 Q1376.3823,41.4992 1376.3823,36.5055 Q1376.3823,31.4984 1378.494,28.8555 Q1380.6057,26.2125 1384.6167,26.2125 Q1385.7456,26.2125 1386.7815,26.4516 Q1387.8174,26.6906 1388.7206,27.1688 L1388.7206,31.525 Q1387.7112,30.5953 1386.7616,30.1637 Q1385.812,29.732 1384.8026,29.732 Q1382.651,29.732 1381.5553,31.4387 Q1380.4596,33.1453 1380.4596,36.5055 Q1380.4596,39.8523 1381.5553,41.559 Q1382.651,43.2656 1384.8026,43.2656 Q1385.812,43.2656 1386.7616,42.834 Q1387.7112,42.4023 1388.7206,41.4727 Z " fill="#000000"/><text fill="#000000" font-family="sans-serif" font-size="22.4" lengthAdjust="spacing" textLength="134.0719" x="1416.7635" y="45.2656">Repositories</text><line style="stroke:#181818;stroke-width:0.8000000000000002;" x1="1293.344" x2="1622.2549" y1="62.4" y2="62.4"/><line style="stroke:#181818;stroke-width:0.8000000000000002;" x1="1293.344" x2="1622.2549" y1="75.2" y2="75.2"/><text fill="#000000" font-family="sans-serif" font-size="22.4" lengthAdjust="spacing" textLength="161.6016" x="1301.344" y="103.2563">-Repositories()</text><text fill="#000000" font-family="sans-serif" font-size="22.4" lengthAdjust="spacing" textLength="312.9109" x="1301.344" y="129.6375">+getInstance() : Repositories</text><text fill="#000000" font-family="sans-serif" font-size="22.4" lengthAdjust="spacing" textLength="272.4969" x="1301.344" y="156.0188">+getMachineRepository()</text><text fill="#000000" font-family="sans-serif" font-size="22.4" lengthAdjust="spacing" textLength="230.825" x="1301.344" y="182.4">+getItemRepository()</text></g><!--class FileDataReader--><g id="elem_FileDataReader"><rect codeLine="27" fill="#F1F1F1" height="129.5625" id="FileDataReader" rx="4" ry="4" style="stroke:#181818;stroke-width:0.8000000000000002;" width="262.0891" x="853.168" y="37.584"/><ellipse cx="899.1259" cy="63.184" fill="#ADD1B2" rx="17.6" ry="17.6" style="stroke:#181818;stroke-width:1.6000000000000003;"/><path d="M903.8829,72.2129 Q902.9532,72.691 901.9306,72.9301 Q900.9079,73.1692 899.779,73.1692 Q895.7681,73.1692 893.6564,70.5262 Q891.5446,67.8832 891.5446,62.8895 Q891.5446,57.8824 893.6564,55.2395 Q895.7681,52.5965 899.779,52.5965 Q900.9079,52.5965 901.9439,52.8356 Q902.9798,53.0746 903.8829,53.5528 L903.8829,57.909 Q902.8735,56.9793 901.9239,56.5477 Q900.9743,56.116 899.965,56.116 Q897.8134,56.116 896.7177,57.8227 Q895.622,59.5293 895.622,62.8895 Q895.622,66.2363 896.7177,67.943 Q897.8134,69.6496 899.965,69.6496 Q900.9743,69.6496 901.9239,69.218 Q902.8735,68.7863 903.8829,67.8567 Z " fill="#000000"/><text fill="#000000" font-family="sans-serif" font-size="22.4" lengthAdjust="spacing" textLength="162.0938" x="926.4054" y="71.6496">FileDataReader</text><line style="stroke:#181818;stroke-width:0.8000000000000002;" x1="854.768" x2="1113.6571" y1="88.784" y2="88.784"/><line style="stroke:#181818;stroke-width:0.8000000000000002;" x1="854.768" x2="1113.6571" y1="101.584" y2="101.584"/><text fill="#000000" font-family="sans-serif" font-size="22.4" lengthAdjust="spacing" textLength="201.2172" x="862.768" y="129.6403">+getItemsDetails()</text><text fill="#000000" font-family="sans-serif" font-size="22.4" lengthAdjust="spacing" textLength="242.8891" x="862.768" y="156.0215">+getMachinesDetails()</text></g><g id="elem_GMN6"><path d="M9.6,82.112 L9.6,122.6089 A0,0 0 0 0 9.6,122.6089 L797.2102,122.6089 A0,0 0 0 0 797.2102,122.6089 L797.2102,110.912 L852.4,102.368 L797.2102,98.112 L797.2102,98.112 L781.2102,82.112 L9.6,82.112 A0,0 0 0 0 9.6,82.112 " fill="#FEFFDD" style="stroke:#181818;stroke-width:0.8000000000000002;"/><path d="M781.2102,82.112 L781.2102,98.112 L797.2102,98.112 L781.2102,82.112 " fill="#FEFFDD" style="stroke:#181818;stroke-width:0.8000000000000002;"/><text fill="#000000" font-family="sans-serif" font-size="20.8" lengthAdjust="spacing" textLength="754.0102" x="19.2" y="110.2214">- reads all the info from files and transfers it to the respective repositories</text></g><!--link Repositories to Repositories--><g id="link_Repositories_Repositories"><path codeLine="38" d="M1624.368,74.992 C1656.816,78.176 1679.856,87.296 1679.856,102.368 C1679.856,117.424 1666.3701,125.6065 1633.9221,128.7905 " fill="none" id="Repositories-to-Repositories" style="stroke:#181818;stroke-width:1.6000000000000003;"/><polygon fill="#181818" points="1624.368,129.728,1639.3242,134.6911,1632.3298,128.9467,1638.0742,121.9523,1624.368,129.728" style="stroke:#181818;stroke-width:1.6000000000000003;"/><text fill="#000000" font-family="sans-serif" font-size="20.8" lengthAdjust="spacing" textLength="83.9414" x="1689.456" y="110.4774">instance</text></g><!--link FileDataReader to Repositories--><g id="link_FileDataReader_Repositories"><path codeLine="40" d="M1115.504,102.368 C1169.84,102.368 1223.888,102.368 1281.472,102.368 " fill="none" id="FileDataReader-to-Repositories" style="stroke:#181818;stroke-width:1.6000000000000003;stroke-dasharray:7.0,7.0;"/><polygon fill="#181818" points="1291.072,102.368,1276.672,95.968,1283.072,102.368,1276.672,108.768,1291.072,102.368" style="stroke:#181818;stroke-width:1.6000000000000003;"/><text fill="#000000" font-family="sans-serif" font-size="20.8" lengthAdjust="spacing" textLength="119.8539" x="1144.304" y="92.0774">repositories</text></g><!--link Repositories to ItemRepository--><g id="link_Repositories_ItemRepository"><path codeLine="42" d="M1406.192,194.048 C1384.144,232.528 1363.408,268.72 1363.408,268.72 C1363.408,268.72 1273.0777,299.2914 1190.7417,327.1474 " fill="none" id="Repositories-to-ItemRepository" style="stroke:#181818;stroke-width:1.6000000000000003;"/><polygon fill="#181818" points="1181.648,330.224,1197.3395,331.6716,1189.2261,327.6602,1193.2374,319.5467,1181.648,330.224" style="stroke:#181818;stroke-width:1.6000000000000003;"/><text fill="#000000" font-family="sans-serif" font-size="20.8" lengthAdjust="spacing" textLength="13.1523" x="1194.1618" y="320.8823">1</text></g><!--link FileDataReader to MachineRepository--><g id="link_FileDataReader_MachineRepository"><path codeLine="44" d="M1050.4,167.664 C1098.576,214.032 1155.408,268.72 1155.408,268.72 C1155.408,268.72 1219.2402,291.7222 1289.5442,317.0502 " fill="none" id="FileDataReader-to-MachineRepository" style="stroke:#181818;stroke-width:1.6000000000000003;stroke-dasharray:7.0,7.0;"/><polygon fill="#181818" points="1298.576,320.304,1287.1976,309.4021,1291.0495,317.5925,1282.8591,321.4444,1298.576,320.304" style="stroke:#181818;stroke-width:1.6000000000000003;"/><text fill="#000000" font-family="sans-serif" font-size="20.8" lengthAdjust="spacing" textLength="192.1359" x="1157.008" y="263.2294">machineRepository</text></g><!--link FileDataReader to ItemRepository--><g id="link_FileDataReader_ItemRepository"><path codeLine="45" d="M965.616,167.904 C955.168,203.84 944.208,241.52 944.208,241.52 C944.208,241.52 944.208,268.72 944.208,268.72 C944.208,268.72 967.4482,286.2878 999.0642,310.2078 " fill="none" id="FileDataReader-to-ItemRepository" style="stroke:#181818;stroke-width:1.6000000000000003;stroke-dasharray:7.0,7.0;"/><polygon fill="#181818" points="1006.72,316,999.0978,302.2079,1000.3402,311.1732,991.3749,312.4156,1006.72,316" style="stroke:#181818;stroke-width:1.6000000000000003;"/><text fill="#000000" font-family="sans-serif" font-size="20.8" lengthAdjust="spacing" textLength="151.9375" x="945.808" y="263.2294">ItemRepository</text></g><!--link Repositories to MachineRepository--><g id="link_Repositories_MachineRepository"><path codeLine="47" d="M1447.424,193.648 C1442.688,234.688 1438.3361,272.2237 1434.3201,306.9117 " fill="none" id="Repositories-to-MachineRepository" style="stroke:#181818;stroke-width:1.6000000000000003;"/><polygon fill="#181818" points="1433.216,316.448,1441.2296,302.8796,1434.1361,308.5011,1428.5146,301.4075,1433.216,316.448" style="stroke:#181818;stroke-width:1.6000000000000003;"/><text fill="#000000" font-family="sans-serif" font-size="20.8" lengthAdjust="spacing" textLength="13.1523" x="1420.3318" y="299.4369">1</text></g><!--SRC=[RLB1JiCm3BtdAwnTjWaLmRK79AG9gGSksnUOrcsZfN6LU4C5yUyaesnDkvmI-zdl-SLhVzIsHuSTT6ovR1rt1E9Ef6wP7iiZDdIGmH0uAWLjOwO0tsB5dzesKAFnqupHbcJe2NesGtoezPqaEs4rgIeDUlygulJ7IQWesHxq5y6JKcj3jO0mEDsq0fMESZHRfTIb20gXRayzUoti1lXM6TJQcCAUoSR8Pgj-_h7lMBP1mXtuc4dXLvmc7v0GJfO40pW67w0XAQmFDfMqsKAUW6wG1NrIdymnbV6c3UrGS4zOaHk5N6lyZWIrIRICH9DKQ6PP22vkSZthEOxcmiC36WFI4cXRCzHXFQ91mG2qLTWJjBucvq5VFYNY7Fa-_iavNYTZKy17pl1JAd4oUqcTpGFLdtTApMPzN40JYaNVrVDgjX3Bbg7dSWzowEQnUuMpPSiNPAcWKT62JYNd5m00]--></g></svg>