<svg xmlns="http://www.w3.org/2000/svg" xmlns:xlink="http://www.w3.org/1999/xlink" contentStyleType="text/css" height="526.4px" preserveAspectRatio="none" style="width:1472px;height:526px;background:#FFFFFF;" version="1.1" viewBox="0 0 1472 526" width="1472px" zoomAndPan="magnify"><defs/><g><rect fill="#FFFFFF" height="34.0969" style="stroke:#181818;stroke-width:1.6000000000000003;" width="16" x="29.2289" y="146.3813"/><rect fill="#FFFFFF" height="127.8906" style="stroke:#181818;stroke-width:1.6000000000000003;" width="16" x="272.5977" y="146.3813"/><rect fill="#FFFFFF" height="46.8969" style="stroke:#181818;stroke-width:1.6000000000000003;" width="16" x="498.2367" y="180.4781"/><rect fill="#FFFFFF" height="93.7938" style="stroke:#181818;stroke-width:1.6000000000000003;" width="16" x="721.0977" y="227.375"/><rect fill="#FFFFFF" height="93.7938" style="stroke:#181818;stroke-width:1.6000000000000003;" width="16" x="1052.9883" y="274.2719"/><rect fill="#FFFFFF" height="46.8969" style="stroke:#181818;stroke-width:1.6000000000000003;" width="16" x="1333.0414" y="321.1688"/><line style="stroke:#181818;stroke-width:0.8000000000000002;stroke-dasharray:5.0,5.0;" x1="36.8" x2="36.8" y1="130.3813" y2="396.8656"/><line style="stroke:#181818;stroke-width:0.8000000000000002;stroke-dasharray:5.0,5.0;" x1="279.207" x2="279.207" y1="130.3813" y2="396.8656"/><line style="stroke:#181818;stroke-width:0.8000000000000002;stroke-dasharray:5.0,5.0;" x1="505.9883" x2="505.9883" y1="130.3813" y2="396.8656"/><line style="stroke:#181818;stroke-width:0.8000000000000002;stroke-dasharray:5.0,5.0;" x1="728.8852" x2="728.8852" y1="130.3813" y2="396.8656"/><line style="stroke:#181818;stroke-width:0.8000000000000002;stroke-dasharray:5.0,5.0;" x1="1059.6445" x2="1059.6445" y1="130.3813" y2="396.8656"/><line style="stroke:#181818;stroke-width:0.8000000000000002;stroke-dasharray:5.0,5.0;" x1="1339.7258" x2="1339.7258" y1="130.3813" y2="396.8656"/><text fill="#000000" font-family="sans-serif" font-size="22.4" lengthAdjust="spacing" textLength="48.8578" x="8" y="125.6563">Files</text><ellipse cx="37.2289" cy="21.6" fill="#E3E3E3" rx="12.8" ry="12.8" style="stroke:#181818;stroke-width:0.8000000000000002;"/><path d="M37.2289,34.4 L37.2289,77.6 M16.4289,47.2 L58.0289,47.2 M37.2289,77.6 L16.4289,101.6 M37.2289,77.6 L58.0289,101.6 " fill="none" style="stroke:#181818;stroke-width:0.8000000000000002;"/><text fill="#000000" font-family="sans-serif" font-size="22.4" lengthAdjust="spacing" textLength="48.8578" x="8" y="416.9219">Files</text><ellipse cx="37.2289" cy="435.2469" fill="#E3E3E3" rx="12.8" ry="12.8" style="stroke:#181818;stroke-width:0.8000000000000002;"/><path d="M37.2289,448.0469 L37.2289,491.2469 M16.4289,460.8469 L58.0289,460.8469 M37.2289,491.2469 L16.4289,515.2469 M37.2289,491.2469 L58.0289,515.2469 " fill="none" style="stroke:#181818;stroke-width:0.8000000000000002;"/><rect fill="#E3E3E3" height="48.7813" rx="4" ry="4" style="stroke:#181818;stroke-width:0.8000000000000002;" width="191.5813" x="184.807" y="80"/><text fill="#000000" font-family="sans-serif" font-size="22.4" lengthAdjust="spacing" textLength="169.1813" x="196.007" y="112.8563">:FileDataReader</text><rect fill="#E3E3E3" height="48.7813" rx="4" ry="4" style="stroke:#181818;stroke-width:0.8000000000000002;" width="191.5813" x="184.807" y="395.2656"/><text fill="#000000" font-family="sans-serif" font-size="22.4" lengthAdjust="spacing" textLength="169.1813" x="196.007" y="428.1219">:FileDataReader</text><rect fill="#E3E3E3" height="48.7813" rx="4" ry="4" style="stroke:#181818;stroke-width:0.8000000000000002;" width="227.6969" x="392.3883" y="80"/><text fill="#000000" font-family="sans-serif" font-size="22.4" lengthAdjust="spacing" textLength="205.2969" x="403.5883" y="112.8563">MachineRepository</text><rect fill="#E3E3E3" height="48.7813" rx="4" ry="4" style="stroke:#181818;stroke-width:0.8000000000000002;" width="227.6969" x="392.3883" y="395.2656"/><text fill="#000000" font-family="sans-serif" font-size="22.4" lengthAdjust="spacing" textLength="205.2969" x="403.5883" y="428.1219">MachineRepository</text><rect fill="#E3E3E3" height="48.7813" rx="4" ry="4" style="stroke:#181818;stroke-width:0.8000000000000002;" width="186.025" x="636.0852" y="80"/><text fill="#000000" font-family="sans-serif" font-size="22.4" lengthAdjust="spacing" textLength="163.625" x="647.2852" y="112.8563">ItemRepository</text><rect fill="#E3E3E3" height="48.7813" rx="4" ry="4" style="stroke:#181818;stroke-width:0.8000000000000002;" width="186.025" x="636.0852" y="395.2656"/><text fill="#000000" font-family="sans-serif" font-size="22.4" lengthAdjust="spacing" textLength="163.625" x="647.2852" y="428.1219">ItemRepository</text><rect fill="#E3E3E3" height="48.7813" rx="4" ry="4" style="stroke:#181818;stroke-width:0.8000000000000002;" width="239.4875" x="941.2445" y="80"/><text fill="#000000" font-family="sans-serif" font-size="22.4" lengthAdjust="spacing" textLength="217.0875" x="952.4445" y="112.8563">OperationController</text><rect fill="#E3E3E3" height="48.7813" rx="4" ry="4" style="stroke:#181818;stroke-width:0.8000000000000002;" width="239.4875" x="941.2445" y="395.2656"/><text fill="#000000" font-family="sans-serif" font-size="22.4" lengthAdjust="spacing" textLength="217.0875" x="952.4445" y="428.1219">OperationController</text><rect fill="#E3E3E3" height="48.7813" rx="4" ry="4" style="stroke:#181818;stroke-width:0.8000000000000002;" width="245.8313" x="1218.1258" y="80"/><text fill="#000000" font-family="sans-serif" font-size="22.4" lengthAdjust="spacing" textLength="223.4313" x="1229.3258" y="112.8563">OperationRepository</text><rect fill="#E3E3E3" height="48.7813" rx="4" ry="4" style="stroke:#181818;stroke-width:0.8000000000000002;" width="245.8313" x="1218.1258" y="395.2656"/><text fill="#000000" font-family="sans-serif" font-size="22.4" lengthAdjust="spacing" textLength="223.4313" x="1229.3258" y="428.1219">OperationRepository</text><rect fill="#FFFFFF" height="34.0969" style="stroke:#181818;stroke-width:1.6000000000000003;" width="16" x="29.2289" y="146.3813"/><rect fill="#FFFFFF" height="127.8906" style="stroke:#181818;stroke-width:1.6000000000000003;" width="16" x="272.5977" y="146.3813"/><rect fill="#FFFFFF" height="46.8969" style="stroke:#181818;stroke-width:1.6000000000000003;" width="16" x="498.2367" y="180.4781"/><rect fill="#FFFFFF" height="93.7938" style="stroke:#181818;stroke-width:1.6000000000000003;" width="16" x="721.0977" y="227.375"/><rect fill="#FFFFFF" height="93.7938" style="stroke:#181818;stroke-width:1.6000000000000003;" width="16" x="1052.9883" y="274.2719"/><rect fill="#FFFFFF" height="46.8969" style="stroke:#181818;stroke-width:1.6000000000000003;" width="16" x="1333.0414" y="321.1688"/><polygon fill="#181818" points="253.3977,174.0781,269.3977,180.4781,253.3977,186.8781,259.7977,180.4781" style="stroke:#181818;stroke-width:1.6000000000000003;"/><line style="stroke:#181818;stroke-width:1.6000000000000003;" x1="37.2289" x2="262.9977" y1="180.4781" y2="180.4781"/><text fill="#000000" font-family="sans-serif" font-size="20.8" font-weight="bold" lengthAdjust="spacing" textLength="13.7211" x="48.4289" y="172.8906">1</text><text fill="#000000" font-family="sans-serif" font-size="20.8" lengthAdjust="spacing" textLength="168.8477" x="68.55" y="172.8906">loads all the info</text><polygon fill="#181818" points="487.0367,220.975,503.0367,227.375,487.0367,233.775,493.4367,227.375" style="stroke:#181818;stroke-width:1.6000000000000003;"/><line style="stroke:#181818;stroke-width:1.6000000000000003;" x1="288.5977" x2="496.6367" y1="227.375" y2="227.375"/><text fill="#000000" font-family="sans-serif" font-size="20.8" font-weight="bold" lengthAdjust="spacing" textLength="13.7211" x="299.7977" y="219.7875">2</text><text fill="#000000" font-family="sans-serif" font-size="20.8" lengthAdjust="spacing" textLength="142.0656" x="319.9188" y="219.7875">fillMachinery()</text><polygon fill="#181818" points="701.8977,267.8719,717.8977,274.2719,701.8977,280.6719,708.2977,274.2719" style="stroke:#181818;stroke-width:1.6000000000000003;"/><line style="stroke:#181818;stroke-width:1.6000000000000003;" x1="280.5977" x2="711.4977" y1="274.2719" y2="274.2719"/><text fill="#000000" font-family="sans-serif" font-size="20.8" font-weight="bold" lengthAdjust="spacing" textLength="13.7211" x="291.7977" y="266.6844">3</text><text fill="#000000" font-family="sans-serif" font-size="20.8" lengthAdjust="spacing" textLength="133.3109" x="311.9188" y="266.6844">fillInventory()</text><polygon fill="#181818" points="746.6977,314.7688,730.6977,321.1688,746.6977,327.5688,740.2977,321.1688" style="stroke:#181818;stroke-width:1.6000000000000003;"/><line style="stroke:#181818;stroke-width:1.6000000000000003;" x1="737.0977" x2="1051.3883" y1="321.1688" y2="321.1688"/><text fill="#000000" font-family="sans-serif" font-size="20.8" font-weight="bold" lengthAdjust="spacing" textLength="13.7211" x="756.2977" y="313.5813">4</text><text fill="#000000" font-family="sans-serif" font-size="20.8" lengthAdjust="spacing" textLength="257.3695" x="776.4188" y="313.5813">fillOperationsFromItems()</text><polygon fill="#181818" points="1321.8414,361.6656,1337.8414,368.0656,1321.8414,374.4656,1328.2414,368.0656" style="stroke:#181818;stroke-width:1.6000000000000003;"/><line style="stroke:#181818;stroke-width:1.6000000000000003;" x1="1060.9883" x2="1331.4414" y1="368.0656" y2="368.0656"/><text fill="#000000" font-family="sans-serif" font-size="20.8" font-weight="bold" lengthAdjust="spacing" textLength="13.7211" x="1072.1883" y="360.4781">5</text><text fill="#000000" font-family="sans-serif" font-size="20.8" lengthAdjust="spacing" textLength="205.532" x="1092.3094" y="360.4781">fillOperations(items)</text><!--SRC=[TLAxRiCm3Dpv5KIM9aD_84EN5W4o50MIBs1aEXOYYuR4fCtVrt8TrQze4e-dE-gaUB6-eK0rrkB5L45gHWrNXfWx3PaBdVceTySOs2ZviniIOaM5V5j_nf9SP02wglXhVU80y5BPWh4KqPFy01cLWAkTTHnNI17Bj8DMHwsn3Nd5rJPrFqZfm5Hmw6YXsyAO-4ccifuFt4YqhUwzeyxGyQ6zSZqvCOR6zA-60waL_ovUWpZN3sHo-OG_yLZ00L8SzaRAVGovV5mN-zMryVMjR-0MdL0HaPn3hHYjBmMWu6TwyqooTA_OQiz8soJZUZZSrniOUSn5SskIw8BPcF7djFStzgbCJWEZHneP68IVfV-nP_Bv2UAk_UQ94IT6ax4pllXuoyOBrAdxsYRhJHOOJZ2usG1Tyly5]--></g></svg>