<?xml version="1.0" encoding="us-ascii" standalone="no"?><svg xmlns="http://www.w3.org/2000/svg" xmlns:xlink="http://www.w3.org/1999/xlink" contentStyleType="text/css" height="1072px" preserveAspectRatio="none" style="width:1226px;height:1072px;background:#FFFFFF;" version="1.1" viewBox="0 0 1226 1072" width="1226px" zoomAndPan="magnify"><defs/><g><!--class ApplicationSession--><g id="elem_ApplicationSession"><rect codeLine="11" fill="#F1F1F1" height="85.2422" id="ApplicationSession" rx="2.5" ry="2.5" style="stroke:#181818;stroke-width:0.5;" width="151" x="138.5" y="227"/><ellipse cx="153.5" cy="243" fill="#ADD1B2" rx="11" ry="11" style="stroke:#181818;stroke-width:1.0;"/><path d="M156.2656,238.875 Q156.4219,238.6563 156.6094,238.5469 Q156.7969,238.4375 157.0156,238.4375 Q157.3906,238.4375 157.625,238.7031 Q157.8594,238.9531 157.8594,239.5625 L157.8594,241.0156 Q157.8594,241.625 157.625,241.8906 Q157.3906,242.1563 157.0156,242.1563 Q156.6719,242.1563 156.4688,241.9531 Q156.2656,241.7656 156.1563,241.25 Q156.1094,240.8906 155.9219,240.7031 Q155.5938,240.3281 154.9844,240.1094 Q154.375,239.8906 153.75,239.8906 Q152.9844,239.8906 152.3438,240.2188 Q151.7188,240.5469 151.2188,241.2969 Q150.7344,242.0469 150.7344,243.0781 L150.7344,244.1719 Q150.7344,245.4063 151.625,246.2344 Q152.5156,247.0469 154.1094,247.0469 Q155.0469,247.0469 155.7031,246.7969 Q156.0938,246.6406 156.5156,246.2031 Q156.7813,245.9375 156.9219,245.8594 Q157.0781,245.7813 157.2813,245.7813 Q157.6094,245.7813 157.8594,246.0469 Q158.125,246.2969 158.125,246.6406 Q158.125,246.9844 157.7813,247.3906 Q157.2813,247.9688 156.4844,248.2969 Q155.4063,248.75 154.1094,248.75 Q152.5938,248.75 151.3906,248.125 Q150.4063,247.625 149.7188,246.5625 Q149.0313,245.4844 149.0313,244.2031 L149.0313,243.0469 Q149.0313,241.7188 149.6406,240.5781 Q150.2656,239.4219 151.3594,238.8125 Q152.4531,238.1875 153.6875,238.1875 Q154.4219,238.1875 155.0625,238.3594 Q155.7188,238.5156 156.2656,238.875 Z " fill="#000000"/><text fill="#000000" font-family="sans-serif" font-size="14" lengthAdjust="spacing" textLength="119" x="167.5" y="248.7969">ApplicationSession</text><line style="stroke:#181818;stroke-width:0.5;" x1="139.5" x2="288.5" y1="259" y2="259"/><line style="stroke:#181818;stroke-width:0.5;" x1="139.5" x2="288.5" y1="267" y2="267"/><text fill="#000000" font-family="sans-serif" font-size="14" lengthAdjust="spacing" textLength="128" x="144.5" y="286.1074">+static getInstance()</text><text fill="#000000" font-family="sans-serif" font-size="14" lengthAdjust="spacing" textLength="136" x="144.5" y="304.7285">+getCurrentSession()</text></g><!--class UserSession--><g id="elem_UserSession"><rect codeLine="17" fill="#F1F1F1" height="66.6211" id="UserSession" rx="2.5" ry="2.5" style="stroke:#181818;stroke-width:0.5;" width="113" x="245.5" y="456"/><ellipse cx="261.4" cy="472" fill="#ADD1B2" rx="11" ry="11" style="stroke:#181818;stroke-width:1.0;"/><path d="M264.1656,467.875 Q264.3219,467.6563 264.5094,467.5469 Q264.6969,467.4375 264.9156,467.4375 Q265.2906,467.4375 265.525,467.7031 Q265.7594,467.9531 265.7594,468.5625 L265.7594,470.0156 Q265.7594,470.625 265.525,470.8906 Q265.2906,471.1563 264.9156,471.1563 Q264.5719,471.1563 264.3688,470.9531 Q264.1656,470.7656 264.0563,470.25 Q264.0094,469.8906 263.8219,469.7031 Q263.4938,469.3281 262.8844,469.1094 Q262.275,468.8906 261.65,468.8906 Q260.8844,468.8906 260.2438,469.2188 Q259.6188,469.5469 259.1188,470.2969 Q258.6344,471.0469 258.6344,472.0781 L258.6344,473.1719 Q258.6344,474.4063 259.525,475.2344 Q260.4156,476.0469 262.0094,476.0469 Q262.9469,476.0469 263.6031,475.7969 Q263.9938,475.6406 264.4156,475.2031 Q264.6813,474.9375 264.8219,474.8594 Q264.9781,474.7813 265.1813,474.7813 Q265.5094,474.7813 265.7594,475.0469 Q266.025,475.2969 266.025,475.6406 Q266.025,475.9844 265.6813,476.3906 Q265.1813,476.9688 264.3844,477.2969 Q263.3063,477.75 262.0094,477.75 Q260.4938,477.75 259.2906,477.125 Q258.3063,476.625 257.6188,475.5625 Q256.9313,474.4844 256.9313,473.2031 L256.9313,472.0469 Q256.9313,470.7188 257.5406,469.5781 Q258.1656,468.4219 259.2594,467.8125 Q260.3531,467.1875 261.5875,467.1875 Q262.3219,467.1875 262.9625,467.3594 Q263.6188,467.5156 264.1656,467.875 Z " fill="#000000"/><text fill="#000000" font-family="sans-serif" font-size="14" lengthAdjust="spacing" textLength="79" x="275.6" y="477.7969">UserSession</text><line style="stroke:#181818;stroke-width:0.5;" x1="246.5" x2="357.5" y1="488" y2="488"/><line style="stroke:#181818;stroke-width:0.5;" x1="246.5" x2="357.5" y1="496" y2="496"/><text fill="#000000" font-family="sans-serif" font-size="14" lengthAdjust="spacing" textLength="101" x="251.5" y="515.1074">+getUserEmail()</text></g><!--class ItemRepository--><g id="elem_ItemRepository"><rect codeLine="25" fill="#F1F1F1" height="66.6211" id="ItemRepository" rx="2.5" ry="2.5" style="stroke:#181818;stroke-width:0.5;" width="126" x="635" y="236"/><ellipse cx="650" cy="252" fill="#ADD1B2" rx="11" ry="11" style="stroke:#181818;stroke-width:1.0;"/><path d="M652.7656,247.875 Q652.9219,247.6563 653.1094,247.5469 Q653.2969,247.4375 653.5156,247.4375 Q653.8906,247.4375 654.125,247.7031 Q654.3594,247.9531 654.3594,248.5625 L654.3594,250.0156 Q654.3594,250.625 654.125,250.8906 Q653.8906,251.1563 653.5156,251.1563 Q653.1719,251.1563 652.9688,250.9531 Q652.7656,250.7656 652.6563,250.25 Q652.6094,249.8906 652.4219,249.7031 Q652.0938,249.3281 651.4844,249.1094 Q650.875,248.8906 650.25,248.8906 Q649.4844,248.8906 648.8438,249.2188 Q648.2188,249.5469 647.7188,250.2969 Q647.2344,251.0469 647.2344,252.0781 L647.2344,253.1719 Q647.2344,254.4063 648.125,255.2344 Q649.0156,256.0469 650.6094,256.0469 Q651.5469,256.0469 652.2031,255.7969 Q652.5938,255.6406 653.0156,255.2031 Q653.2813,254.9375 653.4219,254.8594 Q653.5781,254.7813 653.7813,254.7813 Q654.1094,254.7813 654.3594,255.0469 Q654.625,255.2969 654.625,255.6406 Q654.625,255.9844 654.2813,256.3906 Q653.7813,256.9688 652.9844,257.2969 Q651.9063,257.75 650.6094,257.75 Q649.0938,257.75 647.8906,257.125 Q646.9063,256.625 646.2188,255.5625 Q645.5313,254.4844 645.5313,253.2031 L645.5313,252.0469 Q645.5313,250.7188 646.1406,249.5781 Q646.7656,248.4219 647.8594,247.8125 Q648.9531,247.1875 650.1875,247.1875 Q650.9219,247.1875 651.5625,247.3594 Q652.2188,247.5156 652.7656,247.875 Z " fill="#000000"/><text fill="#000000" font-family="sans-serif" font-size="14" lengthAdjust="spacing" textLength="94" x="664" y="257.7969">ItemRepository</text><line style="stroke:#181818;stroke-width:0.5;" x1="636" x2="760" y1="268" y2="268"/><line style="stroke:#181818;stroke-width:0.5;" x1="636" x2="760" y1="276" y2="276"/><text fill="#000000" font-family="sans-serif" font-size="14" lengthAdjust="spacing" textLength="86" x="641" y="295.1074">+getItemList()</text></g><!--class MachineRepository--><g id="elem_MachineRepository"><rect codeLine="29" fill="#F1F1F1" height="66.6211" id="MachineRepository" rx="2.5" ry="2.5" style="stroke:#181818;stroke-width:0.5;" width="153" x="799.5" y="236"/><ellipse cx="814.5" cy="252" fill="#ADD1B2" rx="11" ry="11" style="stroke:#181818;stroke-width:1.0;"/><path d="M817.2656,247.875 Q817.4219,247.6563 817.6094,247.5469 Q817.7969,247.4375 818.0156,247.4375 Q818.3906,247.4375 818.625,247.7031 Q818.8594,247.9531 818.8594,248.5625 L818.8594,250.0156 Q818.8594,250.625 818.625,250.8906 Q818.3906,251.1563 818.0156,251.1563 Q817.6719,251.1563 817.4688,250.9531 Q817.2656,250.7656 817.1563,250.25 Q817.1094,249.8906 816.9219,249.7031 Q816.5938,249.3281 815.9844,249.1094 Q815.375,248.8906 814.75,248.8906 Q813.9844,248.8906 813.3438,249.2188 Q812.7188,249.5469 812.2188,250.2969 Q811.7344,251.0469 811.7344,252.0781 L811.7344,253.1719 Q811.7344,254.4063 812.625,255.2344 Q813.5156,256.0469 815.1094,256.0469 Q816.0469,256.0469 816.7031,255.7969 Q817.0938,255.6406 817.5156,255.2031 Q817.7813,254.9375 817.9219,254.8594 Q818.0781,254.7813 818.2813,254.7813 Q818.6094,254.7813 818.8594,255.0469 Q819.125,255.2969 819.125,255.6406 Q819.125,255.9844 818.7813,256.3906 Q818.2813,256.9688 817.4844,257.2969 Q816.4063,257.75 815.1094,257.75 Q813.5938,257.75 812.3906,257.125 Q811.4063,256.625 810.7188,255.5625 Q810.0313,254.4844 810.0313,253.2031 L810.0313,252.0469 Q810.0313,250.7188 810.6406,249.5781 Q811.2656,248.4219 812.3594,247.8125 Q813.4531,247.1875 814.6875,247.1875 Q815.4219,247.1875 816.0625,247.3594 Q816.7188,247.5156 817.2656,247.875 Z " fill="#000000"/><text fill="#000000" font-family="sans-serif" font-size="14" lengthAdjust="spacing" textLength="121" x="828.5" y="257.7969">MachineRepository</text><line style="stroke:#181818;stroke-width:0.5;" x1="800.5" x2="951.5" y1="268" y2="268"/><line style="stroke:#181818;stroke-width:0.5;" x1="800.5" x2="951.5" y1="276" y2="276"/><text fill="#000000" font-family="sans-serif" font-size="14" lengthAdjust="spacing" textLength="113" x="805.5" y="295.1074">+getMachineList()</text></g><!--class OperationRepository--><g id="elem_OperationRepository"><rect codeLine="33" fill="#F1F1F1" height="66.6211" id="OperationRepository" rx="2.5" ry="2.5" style="stroke:#181818;stroke-width:0.5;" width="163" x="989.5" y="236"/><ellipse cx="1004.5" cy="252" fill="#ADD1B2" rx="11" ry="11" style="stroke:#181818;stroke-width:1.0;"/><path d="M1007.2656,247.875 Q1007.4219,247.6563 1007.6094,247.5469 Q1007.7969,247.4375 1008.0156,247.4375 Q1008.3906,247.4375 1008.625,247.7031 Q1008.8594,247.9531 1008.8594,248.5625 L1008.8594,250.0156 Q1008.8594,250.625 1008.625,250.8906 Q1008.3906,251.1563 1008.0156,251.1563 Q1007.6719,251.1563 1007.4688,250.9531 Q1007.2656,250.7656 1007.1563,250.25 Q1007.1094,249.8906 1006.9219,249.7031 Q1006.5938,249.3281 1005.9844,249.1094 Q1005.375,248.8906 1004.75,248.8906 Q1003.9844,248.8906 1003.3438,249.2188 Q1002.7188,249.5469 1002.2188,250.2969 Q1001.7344,251.0469 1001.7344,252.0781 L1001.7344,253.1719 Q1001.7344,254.4063 1002.625,255.2344 Q1003.5156,256.0469 1005.1094,256.0469 Q1006.0469,256.0469 1006.7031,255.7969 Q1007.0938,255.6406 1007.5156,255.2031 Q1007.7813,254.9375 1007.9219,254.8594 Q1008.0781,254.7813 1008.2813,254.7813 Q1008.6094,254.7813 1008.8594,255.0469 Q1009.125,255.2969 1009.125,255.6406 Q1009.125,255.9844 1008.7813,256.3906 Q1008.2813,256.9688 1007.4844,257.2969 Q1006.4063,257.75 1005.1094,257.75 Q1003.5938,257.75 1002.3906,257.125 Q1001.4063,256.625 1000.7188,255.5625 Q1000.0313,254.4844 1000.0313,253.2031 L1000.0313,252.0469 Q1000.0313,250.7188 1000.6406,249.5781 Q1001.2656,248.4219 1002.3594,247.8125 Q1003.4531,247.1875 1004.6875,247.1875 Q1005.4219,247.1875 1006.0625,247.3594 Q1006.7188,247.5156 1007.2656,247.875 Z " fill="#000000"/><text fill="#000000" font-family="sans-serif" font-size="14" lengthAdjust="spacing" textLength="131" x="1018.5" y="257.7969">OperationRepository</text><line style="stroke:#181818;stroke-width:0.5;" x1="990.5" x2="1151.5" y1="268" y2="268"/><line style="stroke:#181818;stroke-width:0.5;" x1="990.5" x2="1151.5" y1="276" y2="276"/><text fill="#000000" font-family="sans-serif" font-size="14" lengthAdjust="spacing" textLength="108" x="995.5" y="295.1074">+getOperations()</text></g><!--class Repositories--><g id="elem_Repositories"><rect codeLine="37" fill="#F1F1F1" height="141.1055" id="Repositories" rx="2.5" ry="2.5" style="stroke:#181818;stroke-width:0.5;" width="194" x="929" y="7"/><ellipse cx="982.25" cy="23" fill="#ADD1B2" rx="11" ry="11" style="stroke:#181818;stroke-width:1.0;"/><path d="M985.0156,18.875 Q985.1719,18.6563 985.3594,18.5469 Q985.5469,18.4375 985.7656,18.4375 Q986.1406,18.4375 986.375,18.7031 Q986.6094,18.9531 986.6094,19.5625 L986.6094,21.0156 Q986.6094,21.625 986.375,21.8906 Q986.1406,22.1563 985.7656,22.1563 Q985.4219,22.1563 985.2188,21.9531 Q985.0156,21.7656 984.9063,21.25 Q984.8594,20.8906 984.6719,20.7031 Q984.3438,20.3281 983.7344,20.1094 Q983.125,19.8906 982.5,19.8906 Q981.7344,19.8906 981.0938,20.2188 Q980.4688,20.5469 979.9688,21.2969 Q979.4844,22.0469 979.4844,23.0781 L979.4844,24.1719 Q979.4844,25.4063 980.375,26.2344 Q981.2656,27.0469 982.8594,27.0469 Q983.7969,27.0469 984.4531,26.7969 Q984.8438,26.6406 985.2656,26.2031 Q985.5313,25.9375 985.6719,25.8594 Q985.8281,25.7813 986.0313,25.7813 Q986.3594,25.7813 986.6094,26.0469 Q986.875,26.2969 986.875,26.6406 Q986.875,26.9844 986.5313,27.3906 Q986.0313,27.9688 985.2344,28.2969 Q984.1563,28.75 982.8594,28.75 Q981.3438,28.75 980.1406,28.125 Q979.1563,27.625 978.4688,26.5625 Q977.7813,25.4844 977.7813,24.2031 L977.7813,23.0469 Q977.7813,21.7188 978.3906,20.5781 Q979.0156,19.4219 980.1094,18.8125 Q981.2031,18.1875 982.4375,18.1875 Q983.1719,18.1875 983.8125,18.3594 Q984.4688,18.5156 985.0156,18.875 Z " fill="#000000"/><text fill="#000000" font-family="sans-serif" font-size="14" lengthAdjust="spacing" textLength="79" x="1002.75" y="28.7969">Repositories</text><line style="stroke:#181818;stroke-width:0.5;" x1="930" x2="1122" y1="39" y2="39"/><line style="stroke:#181818;stroke-width:0.5;" x1="930" x2="1122" y1="47" y2="47"/><text fill="#000000" font-family="sans-serif" font-size="14" lengthAdjust="spacing" textLength="94" x="935" y="66.1074">-Repositories()</text><text fill="#000000" font-family="sans-serif" font-size="14" lengthAdjust="spacing" textLength="182" x="935" y="84.7285">+getInstance() : Repositories</text><text fill="#000000" font-family="sans-serif" font-size="14" lengthAdjust="spacing" textLength="132" x="935" y="103.3496">+getItemRepository()</text><text fill="#000000" font-family="sans-serif" font-size="14" lengthAdjust="spacing" textLength="159" x="935" y="121.9707">+getMachineRepository()</text><text fill="#000000" font-family="sans-serif" font-size="14" lengthAdjust="spacing" textLength="169" x="935" y="140.5918">+getOperationRepository()</text></g><!--class SimulatorController--><g id="elem_SimulatorController"><rect codeLine="45" fill="#F1F1F1" height="122.4844" id="SimulatorController" rx="2.5" ry="2.5" style="stroke:#181818;stroke-width:0.5;" width="507" x="314.5" y="16.5"/><ellipse cx="503.25" cy="32.5" fill="#ADD1B2" rx="11" ry="11" style="stroke:#181818;stroke-width:1.0;"/><path d="M506.0156,28.375 Q506.1719,28.1563 506.3594,28.0469 Q506.5469,27.9375 506.7656,27.9375 Q507.1406,27.9375 507.375,28.2031 Q507.6094,28.4531 507.6094,29.0625 L507.6094,30.5156 Q507.6094,31.125 507.375,31.3906 Q507.1406,31.6563 506.7656,31.6563 Q506.4219,31.6563 506.2188,31.4531 Q506.0156,31.2656 505.9063,30.75 Q505.8594,30.3906 505.6719,30.2031 Q505.3438,29.8281 504.7344,29.6094 Q504.125,29.3906 503.5,29.3906 Q502.7344,29.3906 502.0938,29.7188 Q501.4688,30.0469 500.9688,30.7969 Q500.4844,31.5469 500.4844,32.5781 L500.4844,33.6719 Q500.4844,34.9063 501.375,35.7344 Q502.2656,36.5469 503.8594,36.5469 Q504.7969,36.5469 505.4531,36.2969 Q505.8438,36.1406 506.2656,35.7031 Q506.5313,35.4375 506.6719,35.3594 Q506.8281,35.2813 507.0313,35.2813 Q507.3594,35.2813 507.6094,35.5469 Q507.875,35.7969 507.875,36.1406 Q507.875,36.4844 507.5313,36.8906 Q507.0313,37.4688 506.2344,37.7969 Q505.1563,38.25 503.8594,38.25 Q502.3438,38.25 501.1406,37.625 Q500.1563,37.125 499.4688,36.0625 Q498.7813,34.9844 498.7813,33.7031 L498.7813,32.5469 Q498.7813,31.2188 499.3906,30.0781 Q500.0156,28.9219 501.1094,28.3125 Q502.2031,27.6875 503.4375,27.6875 Q504.1719,27.6875 504.8125,27.8594 Q505.4688,28.0156 506.0156,28.375 Z " fill="#000000"/><text fill="#000000" font-family="sans-serif" font-size="14" lengthAdjust="spacing" textLength="121" x="523.75" y="38.2969">SimulatorController</text><line style="stroke:#181818;stroke-width:0.5;" x1="315.5" x2="820.5" y1="48.5" y2="48.5"/><line style="stroke:#181818;stroke-width:0.5;" x1="315.5" x2="820.5" y1="56.5" y2="56.5"/><text fill="#000000" font-family="sans-serif" font-size="14" lengthAdjust="spacing" textLength="139" x="320.5" y="75.6074">+SimulatorController()</text><text fill="#000000" font-family="sans-serif" font-size="14" lengthAdjust="spacing" textLength="495" x="320.5" y="94.2285">+startSimulationWithOutPriority(Map&lt;Operation, Queue&lt;Machine&gt;&gt; machines,</text><text fill="#000000" font-family="sans-serif" font-size="14" lengthAdjust="spacing" textLength="420" x="320.5" y="112.8496">List&lt;Item&gt; items, List&lt;Operation&gt; operations, boolean priorityFlag)</text><text fill="#000000" font-family="sans-serif" font-size="14" lengthAdjust="spacing" textLength="122" x="320.5" y="131.4707">-getMachinesMap()</text></g><!--class Simulator--><g id="elem_Simulator"><rect codeLine="52" fill="#F1F1F1" height="196.9688" id="Simulator" rx="2.5" ry="2.5" style="stroke:#181818;stroke-width:0.5;" width="169" x="425.5" y="391"/><ellipse cx="476.25" cy="407" fill="#ADD1B2" rx="11" ry="11" style="stroke:#181818;stroke-width:1.0;"/><path d="M479.0156,402.875 Q479.1719,402.6563 479.3594,402.5469 Q479.5469,402.4375 479.7656,402.4375 Q480.1406,402.4375 480.375,402.7031 Q480.6094,402.9531 480.6094,403.5625 L480.6094,405.0156 Q480.6094,405.625 480.375,405.8906 Q480.1406,406.1563 479.7656,406.1563 Q479.4219,406.1563 479.2188,405.9531 Q479.0156,405.7656 478.9063,405.25 Q478.8594,404.8906 478.6719,404.7031 Q478.3438,404.3281 477.7344,404.1094 Q477.125,403.8906 476.5,403.8906 Q475.7344,403.8906 475.0938,404.2188 Q474.4688,404.5469 473.9688,405.2969 Q473.4844,406.0469 473.4844,407.0781 L473.4844,408.1719 Q473.4844,409.4063 474.375,410.2344 Q475.2656,411.0469 476.8594,411.0469 Q477.7969,411.0469 478.4531,410.7969 Q478.8438,410.6406 479.2656,410.2031 Q479.5313,409.9375 479.6719,409.8594 Q479.8281,409.7813 480.0313,409.7813 Q480.3594,409.7813 480.6094,410.0469 Q480.875,410.2969 480.875,410.6406 Q480.875,410.9844 480.5313,411.3906 Q480.0313,411.9688 479.2344,412.2969 Q478.1563,412.75 476.8594,412.75 Q475.3438,412.75 474.1406,412.125 Q473.1563,411.625 472.4688,410.5625 Q471.7813,409.4844 471.7813,408.2031 L471.7813,407.0469 Q471.7813,405.7188 472.3906,404.5781 Q473.0156,403.4219 474.1094,402.8125 Q475.2031,402.1875 476.4375,402.1875 Q477.1719,402.1875 477.8125,402.3594 Q478.4688,402.5156 479.0156,402.875 Z " fill="#000000"/><text fill="#000000" font-family="sans-serif" font-size="14" lengthAdjust="spacing" textLength="59" x="496.75" y="412.7969">Simulator</text><line style="stroke:#181818;stroke-width:0.5;" x1="426.5" x2="593.5" y1="423" y2="423"/><text fill="#000000" font-family="sans-serif" font-size="14" lengthAdjust="spacing" textLength="48" x="431.5" y="442.1074">itemList</text><text fill="#000000" font-family="sans-serif" font-size="14" lengthAdjust="spacing" textLength="75" x="431.5" y="460.7285">machineList</text><line style="stroke:#181818;stroke-width:0.5;" x1="426.5" x2="593.5" y1="468.2422" y2="468.2422"/><text fill="#000000" font-family="sans-serif" font-size="14" lengthAdjust="spacing" textLength="157" x="431.5" y="487.3496">addOperationToQueue()</text><text fill="#000000" font-family="sans-serif" font-size="14" lengthAdjust="spacing" textLength="100" x="431.5" y="505.9707">createQueues()</text><text fill="#000000" font-family="sans-serif" font-size="14" lengthAdjust="spacing" textLength="114" x="431.5" y="524.5918">updateMachines()</text><text fill="#000000" font-family="sans-serif" font-size="14" lengthAdjust="spacing" textLength="81" x="431.5" y="543.2129">printQueue()</text><text fill="#000000" font-family="sans-serif" font-size="14" lengthAdjust="spacing" textLength="131" x="431.5" y="561.834">printMachineStatus()</text><text fill="#000000" font-family="sans-serif" font-size="14" lengthAdjust="spacing" textLength="147" x="431.5" y="580.4551">assignItemToMachine()</text></g><!--class Item--><g id="elem_Item"><rect codeLine="64" fill="#F1F1F1" height="141.1055" id="Item" rx="2.5" ry="2.5" style="stroke:#181818;stroke-width:0.5;" width="228" x="230" y="713.5"/><ellipse cx="326.75" cy="729.5" fill="#ADD1B2" rx="11" ry="11" style="stroke:#181818;stroke-width:1.0;"/><path d="M329.5156,725.375 Q329.6719,725.1563 329.8594,725.0469 Q330.0469,724.9375 330.2656,724.9375 Q330.6406,724.9375 330.875,725.2031 Q331.1094,725.4531 331.1094,726.0625 L331.1094,727.5156 Q331.1094,728.125 330.875,728.3906 Q330.6406,728.6563 330.2656,728.6563 Q329.9219,728.6563 329.7188,728.4531 Q329.5156,728.2656 329.4063,727.75 Q329.3594,727.3906 329.1719,727.2031 Q328.8438,726.8281 328.2344,726.6094 Q327.625,726.3906 327,726.3906 Q326.2344,726.3906 325.5938,726.7188 Q324.9688,727.0469 324.4688,727.7969 Q323.9844,728.5469 323.9844,729.5781 L323.9844,730.6719 Q323.9844,731.9063 324.875,732.7344 Q325.7656,733.5469 327.3594,733.5469 Q328.2969,733.5469 328.9531,733.2969 Q329.3438,733.1406 329.7656,732.7031 Q330.0313,732.4375 330.1719,732.3594 Q330.3281,732.2813 330.5313,732.2813 Q330.8594,732.2813 331.1094,732.5469 Q331.375,732.7969 331.375,733.1406 Q331.375,733.4844 331.0313,733.8906 Q330.5313,734.4688 329.7344,734.7969 Q328.6563,735.25 327.3594,735.25 Q325.8438,735.25 324.6406,734.625 Q323.6563,734.125 322.9688,733.0625 Q322.2813,731.9844 322.2813,730.7031 L322.2813,729.5469 Q322.2813,728.2188 322.8906,727.0781 Q323.5156,725.9219 324.6094,725.3125 Q325.7031,724.6875 326.9375,724.6875 Q327.6719,724.6875 328.3125,724.8594 Q328.9688,725.0156 329.5156,725.375 Z " fill="#000000"/><text fill="#000000" font-family="sans-serif" font-size="14" lengthAdjust="spacing" textLength="26" x="347.25" y="735.2969">Item</text><line style="stroke:#181818;stroke-width:0.5;" x1="231" x2="457" y1="745.5" y2="745.5"/><text fill="#000000" font-family="sans-serif" font-size="14" lengthAdjust="spacing" textLength="64" x="236" y="764.6074">itemID : ID</text><text fill="#000000" font-family="sans-serif" font-size="14" lengthAdjust="spacing" textLength="216" x="236" y="783.2285">operationList : Qeueu&lt;Operation&gt;</text><text fill="#000000" font-family="sans-serif" font-size="14" lengthAdjust="spacing" textLength="179" x="236" y="801.8496">currentOperation: Operation</text><line style="stroke:#181818;stroke-width:0.5;" x1="231" x2="457" y1="809.3633" y2="809.3633"/><text fill="#000000" font-family="sans-serif" font-size="14" lengthAdjust="spacing" textLength="120" x="236" y="828.4707">getNextOperation()</text><text fill="#000000" font-family="sans-serif" font-size="14" lengthAdjust="spacing" textLength="141" x="236" y="847.0918">getCurrentOperation()</text></g><!--class PriorityEnum--><g id="elem_PriorityEnum"><rect codeLine="72" fill="#F1F1F1" height="103.8633" id="PriorityEnum" rx="2.5" ry="2.5" style="stroke:#181818;stroke-width:0.5;" width="112" x="529" y="732"/><ellipse cx="544" cy="748" fill="#ADD1B2" rx="11" ry="11" style="stroke:#181818;stroke-width:1.0;"/><path d="M546.7656,743.875 Q546.9219,743.6563 547.1094,743.5469 Q547.2969,743.4375 547.5156,743.4375 Q547.8906,743.4375 548.125,743.7031 Q548.3594,743.9531 548.3594,744.5625 L548.3594,746.0156 Q548.3594,746.625 548.125,746.8906 Q547.8906,747.1563 547.5156,747.1563 Q547.1719,747.1563 546.9688,746.9531 Q546.7656,746.7656 546.6563,746.25 Q546.6094,745.8906 546.4219,745.7031 Q546.0938,745.3281 545.4844,745.1094 Q544.875,744.8906 544.25,744.8906 Q543.4844,744.8906 542.8438,745.2188 Q542.2188,745.5469 541.7188,746.2969 Q541.2344,747.0469 541.2344,748.0781 L541.2344,749.1719 Q541.2344,750.4063 542.125,751.2344 Q543.0156,752.0469 544.6094,752.0469 Q545.5469,752.0469 546.2031,751.7969 Q546.5938,751.6406 547.0156,751.2031 Q547.2813,750.9375 547.4219,750.8594 Q547.5781,750.7813 547.7813,750.7813 Q548.1094,750.7813 548.3594,751.0469 Q548.625,751.2969 548.625,751.6406 Q548.625,751.9844 548.2813,752.3906 Q547.7813,752.9688 546.9844,753.2969 Q545.9063,753.75 544.6094,753.75 Q543.0938,753.75 541.8906,753.125 Q540.9063,752.625 540.2188,751.5625 Q539.5313,750.4844 539.5313,749.2031 L539.5313,748.0469 Q539.5313,746.7188 540.1406,745.5781 Q540.7656,744.4219 541.8594,743.8125 Q542.9531,743.1875 544.1875,743.1875 Q544.9219,743.1875 545.5625,743.3594 Q546.2188,743.5156 546.7656,743.875 Z " fill="#000000"/><text fill="#000000" font-family="sans-serif" font-size="14" lengthAdjust="spacing" textLength="80" x="558" y="753.7969">PriorityEnum</text><line style="stroke:#181818;stroke-width:0.5;" x1="530" x2="640" y1="764" y2="764"/><text fill="#000000" font-family="sans-serif" font-size="14" lengthAdjust="spacing" textLength="27" x="535" y="783.1074">high</text><text fill="#000000" font-family="sans-serif" font-size="14" lengthAdjust="spacing" textLength="43" x="535" y="801.7285">normal</text><text fill="#000000" font-family="sans-serif" font-size="14" lengthAdjust="spacing" textLength="20" x="535" y="820.3496">low</text><line style="stroke:#181818;stroke-width:0.5;" x1="530" x2="640" y1="827.8633" y2="827.8633"/></g><!--class Operation--><g id="elem_Operation"><rect codeLine="80" fill="#F1F1F1" height="85.2422" id="Operation" rx="2.5" ry="2.5" style="stroke:#181818;stroke-width:0.5;" width="157" x="479.5" y="980"/><ellipse cx="522.4" cy="996" fill="#ADD1B2" rx="11" ry="11" style="stroke:#181818;stroke-width:1.0;"/><path d="M525.1656,991.875 Q525.3219,991.6563 525.5094,991.5469 Q525.6969,991.4375 525.9156,991.4375 Q526.2906,991.4375 526.525,991.7031 Q526.7594,991.9531 526.7594,992.5625 L526.7594,994.0156 Q526.7594,994.625 526.525,994.8906 Q526.2906,995.1563 525.9156,995.1563 Q525.5719,995.1563 525.3688,994.9531 Q525.1656,994.7656 525.0563,994.25 Q525.0094,993.8906 524.8219,993.7031 Q524.4938,993.3281 523.8844,993.1094 Q523.275,992.8906 522.65,992.8906 Q521.8844,992.8906 521.2438,993.2188 Q520.6188,993.5469 520.1188,994.2969 Q519.6344,995.0469 519.6344,996.0781 L519.6344,997.1719 Q519.6344,998.4063 520.525,999.2344 Q521.4156,1000.0469 523.0094,1000.0469 Q523.9469,1000.0469 524.6031,999.7969 Q524.9938,999.6406 525.4156,999.2031 Q525.6813,998.9375 525.8219,998.8594 Q525.9781,998.7813 526.1813,998.7813 Q526.5094,998.7813 526.7594,999.0469 Q527.025,999.2969 527.025,999.6406 Q527.025,999.9844 526.6813,1000.3906 Q526.1813,1000.9688 525.3844,1001.2969 Q524.3063,1001.75 523.0094,1001.75 Q521.4938,1001.75 520.2906,1001.125 Q519.3063,1000.625 518.6188,999.5625 Q517.9313,998.4844 517.9313,997.2031 L517.9313,996.0469 Q517.9313,994.7188 518.5406,993.5781 Q519.1656,992.4219 520.2594,991.8125 Q521.3531,991.1875 522.5875,991.1875 Q523.3219,991.1875 523.9625,991.3594 Q524.6188,991.5156 525.1656,991.875 Z " fill="#000000"/><text fill="#000000" font-family="sans-serif" font-size="14" lengthAdjust="spacing" textLength="63" x="542.6" y="1001.7969">Operation</text><line style="stroke:#181818;stroke-width:0.5;" x1="480.5" x2="635.5" y1="1012" y2="1012"/><text fill="#000000" font-family="sans-serif" font-size="14" lengthAdjust="spacing" textLength="145" x="485.5" y="1031.1074">operationName : String</text><text fill="#000000" font-family="sans-serif" font-size="14" lengthAdjust="spacing" textLength="91" x="485.5" y="1049.7285">duration : float</text><line style="stroke:#181818;stroke-width:0.5;" x1="480.5" x2="635.5" y1="1057.2422" y2="1057.2422"/></g><!--class Machine--><g id="elem_Machine"><rect codeLine="85" fill="#F1F1F1" height="234.2109" id="Machine" rx="2.5" ry="2.5" style="stroke:#181818;stroke-width:0.5;" width="191" x="676.5" y="667"/><ellipse cx="741.25" cy="683" fill="#ADD1B2" rx="11" ry="11" style="stroke:#181818;stroke-width:1.0;"/><path d="M744.0156,678.875 Q744.1719,678.6563 744.3594,678.5469 Q744.5469,678.4375 744.7656,678.4375 Q745.1406,678.4375 745.375,678.7031 Q745.6094,678.9531 745.6094,679.5625 L745.6094,681.0156 Q745.6094,681.625 745.375,681.8906 Q745.1406,682.1563 744.7656,682.1563 Q744.4219,682.1563 744.2188,681.9531 Q744.0156,681.7656 743.9063,681.25 Q743.8594,680.8906 743.6719,680.7031 Q743.3438,680.3281 742.7344,680.1094 Q742.125,679.8906 741.5,679.8906 Q740.7344,679.8906 740.0938,680.2188 Q739.4688,680.5469 738.9688,681.2969 Q738.4844,682.0469 738.4844,683.0781 L738.4844,684.1719 Q738.4844,685.4063 739.375,686.2344 Q740.2656,687.0469 741.8594,687.0469 Q742.7969,687.0469 743.4531,686.7969 Q743.8438,686.6406 744.2656,686.2031 Q744.5313,685.9375 744.6719,685.8594 Q744.8281,685.7813 745.0313,685.7813 Q745.3594,685.7813 745.6094,686.0469 Q745.875,686.2969 745.875,686.6406 Q745.875,686.9844 745.5313,687.3906 Q745.0313,687.9688 744.2344,688.2969 Q743.1563,688.75 741.8594,688.75 Q740.3438,688.75 739.1406,688.125 Q738.1563,687.625 737.4688,686.5625 Q736.7813,685.4844 736.7813,684.2031 L736.7813,683.0469 Q736.7813,681.7188 737.3906,680.5781 Q738.0156,679.4219 739.1094,678.8125 Q740.2031,678.1875 741.4375,678.1875 Q742.1719,678.1875 742.8125,678.3594 Q743.4688,678.5156 744.0156,678.875 Z " fill="#000000"/><text fill="#000000" font-family="sans-serif" font-size="14" lengthAdjust="spacing" textLength="53" x="761.75" y="688.7969">Machine</text><line style="stroke:#181818;stroke-width:0.5;" x1="677.5" x2="866.5" y1="699" y2="699"/><text fill="#000000" font-family="sans-serif" font-size="14" lengthAdjust="spacing" textLength="89" x="682.5" y="718.1074">idMachine : ID</text><text fill="#000000" font-family="sans-serif" font-size="14" lengthAdjust="spacing" textLength="135" x="682.5" y="736.7285">operation : Operation</text><text fill="#000000" font-family="sans-serif" font-size="14" lengthAdjust="spacing" textLength="156" x="682.5" y="755.3496">proccessingSpeed : float</text><text fill="#000000" font-family="sans-serif" font-size="14" lengthAdjust="spacing" textLength="119" x="682.5" y="773.9707">available : boolean</text><text fill="#000000" font-family="sans-serif" font-size="14" lengthAdjust="spacing" textLength="140" x="682.5" y="792.5918">timeLeftToFinish: float</text><text fill="#000000" font-family="sans-serif" font-size="14" lengthAdjust="spacing" textLength="179" x="682.5" y="811.2129">currentProcessingItem : Item</text><line style="stroke:#181818;stroke-width:0.5;" x1="677.5" x2="866.5" y1="818.7266" y2="818.7266"/><text fill="#000000" font-family="sans-serif" font-size="14" lengthAdjust="spacing" textLength="142" x="682.5" y="837.834">processItem(Item item)</text><text fill="#000000" font-family="sans-serif" font-size="14" lengthAdjust="spacing" textLength="107" x="682.5" y="856.4551">updateMachine()</text><text fill="#000000" font-family="sans-serif" font-size="14" lengthAdjust="spacing" textLength="95" x="682.5" y="875.0762">resetMachine()</text><text fill="#000000" font-family="sans-serif" font-size="14" lengthAdjust="spacing" textLength="78" x="682.5" y="893.6973">printStatus()</text></g><!--class OperationQueue--><g id="elem_OperationQueue"><rect codeLine="99" fill="#F1F1F1" height="196.9688" id="OperationQueue" rx="2.5" ry="2.5" style="stroke:#181818;stroke-width:0.5;" width="188" x="7" y="685.5"/><ellipse cx="44.5" cy="701.5" fill="#ADD1B2" rx="11" ry="11" style="stroke:#181818;stroke-width:1.0;"/><path d="M47.2656,697.375 Q47.4219,697.1563 47.6094,697.0469 Q47.7969,696.9375 48.0156,696.9375 Q48.3906,696.9375 48.625,697.2031 Q48.8594,697.4531 48.8594,698.0625 L48.8594,699.5156 Q48.8594,700.125 48.625,700.3906 Q48.3906,700.6563 48.0156,700.6563 Q47.6719,700.6563 47.4688,700.4531 Q47.2656,700.2656 47.1563,699.75 Q47.1094,699.3906 46.9219,699.2031 Q46.5938,698.8281 45.9844,698.6094 Q45.375,698.3906 44.75,698.3906 Q43.9844,698.3906 43.3438,698.7188 Q42.7188,699.0469 42.2188,699.7969 Q41.7344,700.5469 41.7344,701.5781 L41.7344,702.6719 Q41.7344,703.9063 42.625,704.7344 Q43.5156,705.5469 45.1094,705.5469 Q46.0469,705.5469 46.7031,705.2969 Q47.0938,705.1406 47.5156,704.7031 Q47.7813,704.4375 47.9219,704.3594 Q48.0781,704.2813 48.2813,704.2813 Q48.6094,704.2813 48.8594,704.5469 Q49.125,704.7969 49.125,705.1406 Q49.125,705.4844 48.7813,705.8906 Q48.2813,706.4688 47.4844,706.7969 Q46.4063,707.25 45.1094,707.25 Q43.5938,707.25 42.3906,706.625 Q41.4063,706.125 40.7188,705.0625 Q40.0313,703.9844 40.0313,702.7031 L40.0313,701.5469 Q40.0313,700.2188 40.6406,699.0781 Q41.2656,697.9219 42.3594,697.3125 Q43.4531,696.6875 44.6875,696.6875 Q45.4219,696.6875 46.0625,696.8594 Q46.7188,697.0156 47.2656,697.375 Z " fill="#000000"/><text fill="#000000" font-family="sans-serif" font-size="14" lengthAdjust="spacing" textLength="106" x="63.5" y="707.2969">OperationQueue</text><line style="stroke:#181818;stroke-width:0.5;" x1="8" x2="194" y1="717.5" y2="717.5"/><text fill="#000000" font-family="sans-serif" font-size="14" lengthAdjust="spacing" textLength="135" x="13" y="736.6074">operation : Operation</text><text fill="#000000" font-family="sans-serif" font-size="14" lengthAdjust="spacing" textLength="145" x="13" y="755.2285">itemList : Queue&lt;Item&gt;</text><text fill="#000000" font-family="sans-serif" font-size="14" lengthAdjust="spacing" textLength="106" x="13" y="773.8496">priority : boolean</text><line style="stroke:#181818;stroke-width:0.5;" x1="8" x2="194" y1="781.3633" y2="781.3633"/><text fill="#000000" font-family="sans-serif" font-size="14" lengthAdjust="spacing" textLength="93" x="13" y="800.4707">getOperation()</text><text fill="#000000" font-family="sans-serif" font-size="14" lengthAdjust="spacing" textLength="176" x="13" y="819.0918">addItemToQueue(Item item)</text><text fill="#000000" font-family="sans-serif" font-size="14" lengthAdjust="spacing" textLength="166" x="13" y="837.7129">checkOperation(Item item)</text><text fill="#000000" font-family="sans-serif" font-size="14" lengthAdjust="spacing" textLength="83" x="13" y="856.334">getNextItem()</text><text fill="#000000" font-family="sans-serif" font-size="14" lengthAdjust="spacing" textLength="59" x="13" y="874.9551">isEmpty()</text></g><!--class SimulatorUI--><g id="elem_SimulatorUI"><rect codeLine="112" fill="#F1F1F1" height="48" id="SimulatorUI" rx="2.5" ry="2.5" style="stroke:#181818;stroke-width:0.5;" width="103" x="176.5" y="53.5"/><ellipse cx="191.5" cy="69.5" fill="#ADD1B2" rx="11" ry="11" style="stroke:#181818;stroke-width:1.0;"/><path d="M194.2656,65.375 Q194.4219,65.1563 194.6094,65.0469 Q194.7969,64.9375 195.0156,64.9375 Q195.3906,64.9375 195.625,65.2031 Q195.8594,65.4531 195.8594,66.0625 L195.8594,67.5156 Q195.8594,68.125 195.625,68.3906 Q195.3906,68.6563 195.0156,68.6563 Q194.6719,68.6563 194.4688,68.4531 Q194.2656,68.2656 194.1563,67.75 Q194.1094,67.3906 193.9219,67.2031 Q193.5938,66.8281 192.9844,66.6094 Q192.375,66.3906 191.75,66.3906 Q190.9844,66.3906 190.3438,66.7188 Q189.7188,67.0469 189.2188,67.7969 Q188.7344,68.5469 188.7344,69.5781 L188.7344,70.6719 Q188.7344,71.9063 189.625,72.7344 Q190.5156,73.5469 192.1094,73.5469 Q193.0469,73.5469 193.7031,73.2969 Q194.0938,73.1406 194.5156,72.7031 Q194.7813,72.4375 194.9219,72.3594 Q195.0781,72.2813 195.2813,72.2813 Q195.6094,72.2813 195.8594,72.5469 Q196.125,72.7969 196.125,73.1406 Q196.125,73.4844 195.7813,73.8906 Q195.2813,74.4688 194.4844,74.7969 Q193.4063,75.25 192.1094,75.25 Q190.5938,75.25 189.3906,74.625 Q188.4063,74.125 187.7188,73.0625 Q187.0313,71.9844 187.0313,70.7031 L187.0313,69.5469 Q187.0313,68.2188 187.6406,67.0781 Q188.2656,65.9219 189.3594,65.3125 Q190.4531,64.6875 191.6875,64.6875 Q192.4219,64.6875 193.0625,64.8594 Q193.7188,65.0156 194.2656,65.375 Z " fill="#000000"/><text fill="#000000" font-family="sans-serif" font-size="14" lengthAdjust="spacing" textLength="71" x="205.5" y="75.2969">SimulatorUI</text><line style="stroke:#181818;stroke-width:0.5;" x1="177.5" x2="278.5" y1="85.5" y2="85.5"/><line style="stroke:#181818;stroke-width:0.5;" x1="177.5" x2="278.5" y1="93.5" y2="93.5"/></g><!--link Repositories to Repositories--><g id="link_Repositories_Repositories"><path codeLine="115" d="M1123.28,57.6 C1143.48,59.69 1158,66.33 1158,77.5 C1158,88.67 1149.4481,94.6925 1129.2481,96.7825 " fill="none" id="Repositories-to-Repositories" style="stroke:#181818;stroke-width:1.0;"/><polygon fill="#181818" points="1123.28,97.4,1132.6439,100.4525,1128.2535,96.8854,1131.8205,92.495,1123.28,97.4" style="stroke:#181818;stroke-width:1.0;"/><text fill="#000000" font-family="sans-serif" font-size="13" lengthAdjust="spacing" textLength="49" x="1164" y="83.0283">instance</text></g><!--link ApplicationSession to ApplicationSession--><g id="link_ApplicationSession_ApplicationSession"><path codeLine="116" d="M289.66,254.27 C309.5,255.17 324.5,260.25 324.5,269.5 C324.5,278.75 315.4938,283.5581 295.6538,284.4581 " fill="none" id="ApplicationSession-to-ApplicationSession" style="stroke:#181818;stroke-width:1.0;"/><polygon fill="#181818" points="289.66,284.73,298.832,288.318,294.6549,284.5034,298.4695,280.3263,289.66,284.73" style="stroke:#181818;stroke-width:1.0;"/><text fill="#000000" font-family="sans-serif" font-size="13" lengthAdjust="spacing" textLength="49" x="330.5" y="275.0283">instance</text></g><!--link SimulatorUI to SimulatorController--><g id="link_SimulatorUI_SimulatorController"><path codeLine="118" d="M279.69,77.5 C291.72,77.5 298.05,77.5 308.49,77.5 " fill="none" id="SimulatorUI-to-SimulatorController" style="stroke:#181818;stroke-width:1.0;stroke-dasharray:7.0,7.0;"/><polygon fill="#181818" points="314.49,77.5,305.49,73.5,309.49,77.5,305.49,81.5,314.49,77.5" style="stroke:#181818;stroke-width:1.0;"/></g><!--link SimulatorController to Repositories--><g id="link_SimulatorController_Repositories"><path codeLine="120" d="M821.78,77.5 C859.86,77.5 891.01,77.5 922.96,77.5 " fill="none" id="SimulatorController-to-Repositories" style="stroke:#181818;stroke-width:1.0;stroke-dasharray:7.0,7.0;"/><polygon fill="#181818" points="928.96,77.5,919.96,73.5,923.96,77.5,919.96,81.5,928.96,77.5" style="stroke:#181818;stroke-width:1.0;"/><text fill="#000000" font-family="sans-serif" font-size="13" lengthAdjust="spacing" textLength="67" x="841.75" y="70.5283">repositories</text></g><!--link Repositories to ItemRepository--><g id="link_Repositories_ItemRepository"><path codeLine="122" d="M928.92,134.74 C872.06,167.67 807.4419,205.1026 759.5519,232.8426 " fill="none" id="Repositories-to-ItemRepository" style="stroke:#181818;stroke-width:1.0;"/><polygon fill="#181818" points="754.36,235.85,764.1527,234.8002,758.6866,233.3439,760.1429,227.8777,754.36,235.85" style="stroke:#181818;stroke-width:1.0;"/><text fill="#000000" font-family="sans-serif" font-size="13" lengthAdjust="spacing" textLength="7" x="757.7668" y="224.646">1</text></g><!--link Repositories to OperationRepository--><g id="link_Repositories_OperationRepository"><path codeLine="123" d="M1042.8,148.15 C1046.83,164.87 1050,178 1050,178 C1050,178 1056.0431,204.0554 1062.0631,229.9854 " fill="none" id="Repositories-to-OperationRepository" style="stroke:#181818;stroke-width:1.0;"/><polygon fill="#181818" points="1063.42,235.83,1065.281,226.1586,1062.2893,230.9595,1057.4883,227.9678,1063.42,235.83" style="stroke:#181818;stroke-width:1.0;"/><text fill="#000000" font-family="sans-serif" font-size="13" lengthAdjust="spacing" textLength="7" x="1054.2386" y="224.622">1</text></g><!--link SimulatorController to MachineRepository--><g id="link_SimulatorController_MachineRepository"><path codeLine="125" d="M652.97,138.79 C694.22,168.07 735,197 735,197 C735,197 769.1488,214.3163 806.3388,233.1763 " fill="none" id="SimulatorController-to-MachineRepository" style="stroke:#181818;stroke-width:1.0;stroke-dasharray:7.0,7.0;"/><polygon fill="#181818" points="811.69,235.89,805.4723,228.2519,807.2306,233.6285,801.854,235.3869,811.69,235.89" style="stroke:#181818;stroke-width:1.0;"/><text fill="#000000" font-family="sans-serif" font-size="13" lengthAdjust="spacing" textLength="111" x="736" y="193.0283">machineRepository</text></g><!--link SimulatorController to ItemRepository--><g id="link_SimulatorController_ItemRepository"><path codeLine="126" d="M566.19,138.67 C565.55,159.63 565,178 565,178 C565,178 565,197 565,197 C565,197 596.9753,214.1888 632.0553,233.0488 " fill="none" id="SimulatorController-to-ItemRepository" style="stroke:#181818;stroke-width:1.0;stroke-dasharray:7.0,7.0;"/><polygon fill="#181818" points="637.34,235.89,631.3071,228.1051,632.9361,233.5223,627.5189,235.1513,637.34,235.89" style="stroke:#181818;stroke-width:1.0;"/><text fill="#000000" font-family="sans-serif" font-size="13" lengthAdjust="spacing" textLength="87" x="566" y="193.0283">itemRepository</text></g><!--link SimulatorController to OperationRepository--><g id="link_SimulatorController_OperationRepository"><path codeLine="127" d="M739.35,138.53 C799.33,159.55 852,178 852,178 C852,178 923.9149,207.7183 986.7049,233.6683 " fill="none" id="SimulatorController-to-OperationRepository" style="stroke:#181818;stroke-width:1.0;stroke-dasharray:7.0,7.0;"/><polygon fill="#181818" points="992.25,235.96,985.4601,228.8257,987.6291,234.0503,982.4046,236.2192,992.25,235.96" style="stroke:#181818;stroke-width:1.0;"/><text fill="#000000" font-family="sans-serif" font-size="13" lengthAdjust="spacing" textLength="115" x="894" y="193.0283">operationRepository</text></g><!--link Repositories to MachineRepository--><g id="link_Repositories_MachineRepository"><path codeLine="129" d="M1016.01,148.12 C1012.31,173.91 1009,197 1009,197 C1009,197 977.0247,214.1888 941.9447,233.0488 " fill="none" id="Repositories-to-MachineRepository" style="stroke:#181818;stroke-width:1.0;"/><polygon fill="#181818" points="936.66,235.89,946.4811,235.1513,941.0639,233.5223,942.6929,228.1051,936.66,235.89" style="stroke:#181818;stroke-width:1.0;"/><text fill="#000000" font-family="sans-serif" font-size="13" lengthAdjust="spacing" textLength="7" x="940.9134" y="224.6939">1</text></g><!--link ApplicationSession to UserSession--><g id="link_ApplicationSession_UserSession"><path codeLine="131" d="M230.76,312.02 C247.61,353.77 271.0134,411.7465 286.5034,450.1065 " fill="none" id="ApplicationSession-to-UserSession" style="stroke:#181818;stroke-width:1.0;"/><polygon fill="#181818" points="288.75,455.67,289.0891,445.827,286.8778,451.0337,281.6711,448.8224,288.75,455.67" style="stroke:#181818;stroke-width:1.0;"/><text fill="#000000" font-family="sans-serif" font-size="13" lengthAdjust="spacing" textLength="72" x="252" y="357.0283">userSession</text><text fill="#000000" font-family="sans-serif" font-size="13" lengthAdjust="spacing" textLength="7" x="278.557" y="444.693">1</text></g><!--link SimulatorController to ApplicationSession--><g id="link_SimulatorController_ApplicationSession"><path codeLine="133" d="M455.99,138.62 C401.71,167.75 343.2366,199.1324 294.7966,225.1324 " fill="none" id="SimulatorController-to-ApplicationSession" style="stroke:#181818;stroke-width:1.0;stroke-dasharray:7.0,7.0;"/><polygon fill="#181818" points="289.51,227.97,299.3316,227.2381,293.9155,225.6054,295.5482,220.1892,289.51,227.97" style="stroke:#181818;stroke-width:1.0;"/></g><!--link SimulatorController to UserSession--><g id="link_SimulatorController_UserSession"><path codeLine="134" d="M529.04,138.56 C472.04,226.41 371.1258,381.9567 326.4858,450.7567 " fill="none" id="SimulatorController-to-UserSession" style="stroke:#181818;stroke-width:1.0;stroke-dasharray:7.0,7.0;"/><polygon fill="#181818" points="323.22,455.79,331.4743,450.4172,325.9415,451.5956,324.7632,446.0628,323.22,455.79" style="stroke:#181818;stroke-width:1.0;"/></g><!--link SimulatorController to Simulator--><g id="link_SimulatorController_Simulator"><path codeLine="137" d="M551.73,138.9 C540.66,180.01 528,227 528,227 C528,227 522.2518,310.4941 517.1418,384.7741 " fill="none" id="SimulatorController-to-Simulator" style="stroke:#181818;stroke-width:1.0;"/><polygon fill="#181818" points="516.73,390.76,521.3383,382.0557,517.0732,385.7718,513.3571,381.5067,516.73,390.76" style="stroke:#181818;stroke-width:1.0;"/><text fill="#000000" font-family="sans-serif" font-size="13" lengthAdjust="spacing" textLength="87" x="529" y="275.0283">startSimulation</text></g><!--link Item to Operation--><g id="link_Item_Operation"><path codeLine="138" d="M407.05,854.68 C443.79,895.28 484.8743,940.681 516.1643,975.261 " fill="none" id="Item-to-Operation" style="stroke:#181818;stroke-width:1.0;"/><polygon fill="#181818" points="520.19,979.71,517.1174,970.3527,516.8352,976.0025,511.1854,975.7203,520.19,979.71" style="stroke:#181818;stroke-width:1.0;"/><polygon fill="#000000" points="497.3549,944.3529,493.465,935.6742,489.1067,939.6181,497.3549,944.3529" style="stroke:#000000;stroke-width:1.0;"/><text fill="#000000" font-family="sans-serif" font-size="13" lengthAdjust="spacing" textLength="21" x="503" y="946.0283">has</text><text fill="#000000" font-family="sans-serif" font-size="13" lengthAdjust="spacing" textLength="7" x="405.912" y="876.5117">1</text><text fill="#000000" font-family="sans-serif" font-size="13" lengthAdjust="spacing" textLength="5" x="509.0175" y="968.8883">*</text></g><!--link Machine to Operation--><g id="link_Machine_Operation"><path codeLine="139" d="M676.27,890.8 C647.78,922.28 622.2357,950.511 599.7957,975.311 " fill="none" id="Machine-to-Operation" style="stroke:#181818;stroke-width:1.0;"/><polygon fill="#181818" points="595.77,979.76,604.7745,975.7702,599.1247,976.0525,598.8425,970.4027,595.77,979.76" style="stroke:#181818;stroke-width:1.0;"/><polygon fill="#000000" points="641.6451,944.3529,649.8933,939.6181,645.535,935.6742,641.6451,944.3529" style="stroke:#000000;stroke-width:1.0;"/><text fill="#000000" font-family="sans-serif" font-size="13" lengthAdjust="spacing" textLength="46" x="654" y="946.0283">execute</text></g><!--link Item to PriorityEnum--><g id="link_Item_PriorityEnum"><path codeLine="140" d="M458.15,784 C482.72,784 501.65,784 522.83,784 " fill="none" id="Item-to-PriorityEnum" style="stroke:#181818;stroke-width:1.0;"/><polygon fill="#181818" points="528.83,784,519.83,780,523.83,784,519.83,788,528.83,784" style="stroke:#181818;stroke-width:1.0;"/><polygon fill="#000000" points="485.5,771.6455,476.4549,768.7066,476.4549,774.5844,485.5,771.6455" style="stroke:#000000;stroke-width:1.0;"/><text fill="#000000" font-family="sans-serif" font-size="13" lengthAdjust="spacing" textLength="21" x="489.5" y="777.0283">has</text><text fill="#000000" font-family="sans-serif" font-size="13" lengthAdjust="spacing" textLength="7" x="466.0546" y="780.4635">1</text><text fill="#000000" font-family="sans-serif" font-size="13" lengthAdjust="spacing" textLength="7" x="514.1848" y="779.9667">1</text></g><!--link Simulator to OperationQueue--><g id="link_Simulator_OperationQueue"><path codeLine="141" d="M425.14,552.25 C398.54,571.6 376,588 376,588 C376,588 212,667 212,667 C212,667 209.0972,670.024 198.5572,681.044 " fill="none" id="Simulator-to-OperationQueue" style="stroke:#181818;stroke-width:1.0;"/><polygon fill="#181818" points="194.41,685.38,203.5214,681.6407,197.866,681.7666,197.7401,676.1112,194.41,685.38" style="stroke:#181818;stroke-width:1.0;"/><polygon fill="#000000" points="314.6532,630.1163,323.969,628.2016,321.0644,623.0916,314.6532,630.1163" style="stroke:#000000;stroke-width:1.0;"/><text fill="#000000" font-family="sans-serif" font-size="13" lengthAdjust="spacing" textLength="21" x="328" y="633.0283">has</text><text fill="#000000" font-family="sans-serif" font-size="13" lengthAdjust="spacing" textLength="7" x="410.5466" y="553.9543">1</text><text fill="#000000" font-family="sans-serif" font-size="13" lengthAdjust="spacing" textLength="7" x="194.2937" y="674.2193">1</text></g><!--link Simulator to Machine--><g id="link_Simulator_Machine"><path codeLine="142" d="M594.7,585.06 C620.79,614.19 645.6863,641.9812 672.4563,671.8612 " fill="none" id="Simulator-to-Machine" style="stroke:#181818;stroke-width:1.0;"/><polygon fill="#181818" points="676.46,676.33,673.4337,666.9576,673.1236,672.606,667.4752,672.2959,676.46,676.33" style="stroke:#181818;stroke-width:1.0;"/><polygon fill="#000000" points="649.3362,631.3698,645.49,622.6716,641.1119,626.5935,649.3362,631.3698" style="stroke:#000000;stroke-width:1.0;"/><text fill="#000000" font-family="sans-serif" font-size="13" lengthAdjust="spacing" textLength="21" x="655" y="633.0283">has</text><text fill="#000000" font-family="sans-serif" font-size="13" lengthAdjust="spacing" textLength="7" x="602.5553" y="589.8565">1</text><text fill="#000000" font-family="sans-serif" font-size="13" lengthAdjust="spacing" textLength="20" x="648.3796" y="664.4671">1..*</text></g><!--link OperationQueue to Item--><g id="link_OperationQueue_Item"><path codeLine="143" d="M195.01,784 C204.41,784 211.53,784 223.75,784 " fill="none" id="OperationQueue-to-Item" style="stroke:#181818;stroke-width:1.0;"/><polygon fill="#181818" points="229.75,784,220.75,780,224.75,784,220.75,788,229.75,784" style="stroke:#181818;stroke-width:1.0;"/><text fill="#000000" font-family="sans-serif" font-size="13" lengthAdjust="spacing" textLength="7" x="203.085" y="780.3378">1</text><text fill="#000000" font-family="sans-serif" font-size="13" lengthAdjust="spacing" textLength="20" x="203.0471" y="780.4469">1..*</text></g><!--SRC=[ZLP9RzmW5BxxLw1SidGoQgzMP2dA8esKjPEePsA_s2WOBC1Dfb7_UnyOOyR3j9t3oBprUoiSwZScEgfeIrefPDaesG8ngeTiudIqVACrhCs60r5G6Yfg7WleXbRodOcQl5AkOmvd0ioc0z99lh67x331bCh8BD8gETNwt1Z5Nde3grAADVi5v6kM7N9uDSH8ebZT658n2uT9aMLEXvnt7MSbjQGrQ6qvdnd1tnUY3P9BKeDP2VmM9HmTUnRIBdgbG1YlX9pVeybd3Mfk2nKi-QgbZ0-osIY-Cj1-XqvgPgJQa4Z3ScwODh7nMresc8MqWcVETUuxK2x2j5PWwrWfo3BGNlfqYnWdOqeGoRU4jeEP_CVAEo75p0Js6EMQjJsdIBsGmYZ9EQWGMe8NB2DSPRm06l_1J7FVcmV54BNP7DtIxYnuNf377deuypYBWhJ3bruuQpRTPpQyWZ3yruk14lGB8aE65-H5IWvKaCxxkkQqFlRfdPAX4K4oJXyTywtX3krKTdUcLHMSFqa7tWTUAg0676MiNzzLI1hTUYA24oPMT0GljCQvw4T91CTgOQD_afxl-tlgxWZpwX8RP7NfpY4h5ZYI7z5T7wLjG3oCMQ3cKpSxFgRi3ZucleSr3MZC2UaS2tqb-dO0r-1wS1z2gfPozydb-p2fip7oyGJyTnHNO4xMk7v4xLXLxoLpyiebDJlpwpDI-MCYAMGUQQTaMTgr8kfr1r05swuCFt6nq1TkBVaEStJ3MhZ13VWahvbWkebrV6eVqEvWrjKgToKB7f5ZpqUEPokOw1gVSmKwz6_SDg5V4Xl9zTZdFo8VcztsY9j4DsoZ0rV8MTZnuXWRjQg6BXtQUXPFsK3vDgdCkBx9N2862jDNRMSsFgZva3wli4MGlhL3JuljdPeJvhTcjdi9MUa4DTB9Oc_B8hNj8fbeFIvtSAXuOU-0FlXsCBkZPY9U9h6fzm101BlNM3wkiKXzd_RioinTgVv3BtKHvbFZnS2J8UwWpfAbyzBHEm2zzD6hO2_0n6jadsZyoaWRFBL0feiZdrzwcUjoYzGXFebAYC8DrQJ8nlra9Q8T31zGuaCB1IORGz3nPWrM9X31MzmmRYB_9hjSdeJa1wFRwXC69-ns6Fx-0000]--></g></svg>