<svg xmlns="http://www.w3.org/2000/svg" xmlns:xlink="http://www.w3.org/1999/xlink" contentStyleType="text/css" height="417px" preserveAspectRatio="none" style="width:429px;height:417px;background:#FFFFFF;" version="1.1" viewBox="0 0 429 417" width="429px" zoomAndPan="magnify"><title>System Sequence Diagram (SSD) - Alternative One</title><defs/><g><text fill="#000000" font-family="sans-serif" font-size="14" font-weight="bold" lengthAdjust="spacing" textLength="347.3527" x="40.3191" y="29.9659">System Sequence Diagram (SSD) - Alternative One</text><rect fill="#FFFFFF" height="191.2361" style="stroke:#181818;stroke-width:1.0;" width="10" x="69.9338" y="134.1358"/><rect fill="#FFFFFF" height="31.706" style="stroke:#181818;stroke-width:1.0;" width="10" x="386.329" y="157.8419"/><rect fill="#FFFFFF" height="31.706" style="stroke:#181818;stroke-width:1.0;" width="10" x="386.329" y="221.2539"/><rect fill="#FFFFFF" height="31.706" style="stroke:#181818;stroke-width:1.0;" width="10" x="386.329" y="284.6659"/><line style="stroke:#181818;stroke-width:0.5;stroke-dasharray:5.0,5.0;" x1="74" x2="74" y1="124.1358" y2="334.3719"/><line style="stroke:#181818;stroke-width:0.5;stroke-dasharray:5.0,5.0;" x1="390.6671" x2="390.6671" y1="124.1358" y2="334.3719"/><text fill="#000000" font-family="sans-serif" font-size="14" lengthAdjust="spacing" textLength="133.8675" x="5" y="120.0339">Plant Floor Manager</text><ellipse cx="74.9338" cy="53.5679" fill="#E3E3E3" rx="8" ry="8" style="stroke:#181818;stroke-width:0.5;"/><path d="M74.9338,61.5679 L74.9338,88.5679 M61.9338,69.5679 L87.9338,69.5679 M74.9338,88.5679 L61.9338,103.5679 M74.9338,88.5679 L87.9338,103.5679 " fill="none" style="stroke:#181818;stroke-width:0.5;"/><text fill="#000000" font-family="sans-serif" font-size="14" lengthAdjust="spacing" textLength="133.8675" x="5" y="348.3379">Plant Floor Manager</text><ellipse cx="74.9338" cy="360.9398" fill="#E3E3E3" rx="8" ry="8" style="stroke:#181818;stroke-width:0.5;"/><path d="M74.9338,368.9398 L74.9338,395.9398 M61.9338,376.9398 L87.9338,376.9398 M74.9338,395.9398 L61.9338,410.9398 M74.9338,395.9398 L87.9338,410.9398 " fill="none" style="stroke:#181818;stroke-width:0.5;"/><rect fill="#E3E3E3" height="33.0679" rx="2.5" ry="2.5" style="stroke:#181818;stroke-width:0.5;" width="65.3238" x="358.6671" y="90.0679"/><text fill="#000000" font-family="sans-serif" font-size="14" lengthAdjust="spacing" textLength="51.3238" x="365.6671" y="112.0339">:System</text><rect fill="#E3E3E3" height="33.0679" rx="2.5" ry="2.5" style="stroke:#181818;stroke-width:0.5;" width="65.3238" x="358.6671" y="333.3719"/><text fill="#000000" font-family="sans-serif" font-size="14" lengthAdjust="spacing" textLength="51.3238" x="365.6671" y="355.3379">:System</text><rect fill="#FFFFFF" height="191.2361" style="stroke:#181818;stroke-width:1.0;" width="10" x="69.9338" y="134.1358"/><rect fill="#FFFFFF" height="31.706" style="stroke:#181818;stroke-width:1.0;" width="10" x="386.329" y="157.8419"/><rect fill="#FFFFFF" height="31.706" style="stroke:#181818;stroke-width:1.0;" width="10" x="386.329" y="221.2539"/><rect fill="#FFFFFF" height="31.706" style="stroke:#181818;stroke-width:1.0;" width="10" x="386.329" y="284.6659"/><polygon fill="#181818" points="374.329,153.8419,384.329,157.8419,374.329,161.8419,378.329,157.8419" style="stroke:#181818;stroke-width:1.0;"/><line style="stroke:#181818;stroke-width:1.0;" x1="79.9338" x2="380.329" y1="157.8419" y2="157.8419"/><text fill="#000000" font-family="sans-serif" font-size="13" font-weight="bold" lengthAdjust="spacing" textLength="7.436" x="86.9338" y="152.0328">1</text><text fill="#000000" font-family="sans-serif" font-size="13" lengthAdjust="spacing" textLength="181.6622" x="98.3698" y="152.0328">asks to start a new simulation</text><polygon fill="#181818" points="90.9338,185.5479,80.9338,189.5479,90.9338,193.5479,86.9338,189.5479" style="stroke:#181818;stroke-width:1.0;"/><line style="stroke:#181818;stroke-width:1.0;stroke-dasharray:2.0,2.0;" x1="84.9338" x2="390.329" y1="189.5479" y2="189.5479"/><text fill="#000000" font-family="sans-serif" font-size="13" font-weight="bold" lengthAdjust="spacing" textLength="7.436" x="96.9338" y="183.7389">2</text><text fill="#000000" font-family="sans-serif" font-size="13" lengthAdjust="spacing" textLength="267.6312" x="108.3698" y="183.7389">requests an identification for the simulation</text><polygon fill="#181818" points="374.329,217.2539,384.329,221.2539,374.329,225.2539,378.329,221.2539" style="stroke:#181818;stroke-width:1.0;"/><line style="stroke:#181818;stroke-width:1.0;" x1="79.9338" x2="380.329" y1="221.2539" y2="221.2539"/><text fill="#000000" font-family="sans-serif" font-size="13" font-weight="bold" lengthAdjust="spacing" textLength="7.436" x="86.9338" y="215.4449">3</text><text fill="#000000" font-family="sans-serif" font-size="13" lengthAdjust="spacing" textLength="129.2201" x="98.3698" y="215.4449">types requested data</text><polygon fill="#181818" points="90.9338,248.9599,80.9338,252.9599,90.9338,256.9599,86.9338,252.9599" style="stroke:#181818;stroke-width:1.0;"/><line style="stroke:#181818;stroke-width:1.0;stroke-dasharray:2.0,2.0;" x1="84.9338" x2="390.329" y1="252.9599" y2="252.9599"/><text fill="#000000" font-family="sans-serif" font-size="13" font-weight="bold" lengthAdjust="spacing" textLength="7.436" x="96.9338" y="247.1509">4</text><text fill="#000000" font-family="sans-serif" font-size="13" lengthAdjust="spacing" textLength="234.6242" x="108.3698" y="247.1509">shows data and requests confirmation</text><polygon fill="#181818" points="374.329,280.6659,384.329,284.6659,374.329,288.6659,378.329,284.6659" style="stroke:#181818;stroke-width:1.0;"/><line style="stroke:#181818;stroke-width:1.0;" x1="79.9338" x2="380.329" y1="284.6659" y2="284.6659"/><text fill="#000000" font-family="sans-serif" font-size="13" font-weight="bold" lengthAdjust="spacing" textLength="7.436" x="86.9338" y="278.8569">5</text><text fill="#000000" font-family="sans-serif" font-size="13" lengthAdjust="spacing" textLength="84.3701" x="98.3698" y="278.8569">confirms data</text><polygon fill="#181818" points="90.9338,312.3719,80.9338,316.3719,90.9338,320.3719,86.9338,316.3719" style="stroke:#181818;stroke-width:1.0;"/><line style="stroke:#181818;stroke-width:1.0;stroke-dasharray:2.0,2.0;" x1="84.9338" x2="390.329" y1="316.3719" y2="316.3719"/><text fill="#000000" font-family="sans-serif" font-size="13" font-weight="bold" lengthAdjust="spacing" textLength="7.436" x="96.9338" y="310.5629">6</text><text fill="#000000" font-family="sans-serif" font-size="13" lengthAdjust="spacing" textLength="270.9592" x="108.3698" y="310.5629">displays operation success and informations</text><!--SRC=[bP31Ri8m38RlVGgBqtRW1JXCceIueI7r2RpKRIrIfujTghxzJ0jiGZ1fEJdAxyzVh4UM7ZDsq2L9eSsf8x0yKA6tbnx34HigROe4cOAXDF5tG5kiqiZIG8rHgIYCpQFbf4OTbFGra0I2BMDpZh-KvVOLrl0UZRAWyOdWGxmD1qioT9-KlGwMCgmE4SLW5vDVzYYkaLU02eVTll3Xne7xSsArMQRDZqivC_Y4HdEw03zUmFhjQhRny5714gWv2n24Hb3kXkXMIUQM6-HAXSkvGDREEsCtlXh_g9e22d15Obnpc45GkxwrTC-kw27ztjAcdlIAfmegD7piLZmKqpQDEdUvMlNZ6PBKdBj_-rpwz0-HfqkgMFk8aqBgAI_BqI44KftTM7nLYv4-KVe6]--></g></svg>